{"glyphs":{"0":{"ha":772,"x_min":0,"x_max":0,"o":"m 53 492 b 67 318 53 436 57 378 b 118 153 76 258 93 203 b 220 31 143 104 177 63 b 386 -17 263 -1 319 -17 b 552 31 454 -17 509 -1 b 654 153 595 63 629 104 b 706 318 679 203 696 258 b 719 492 715 378 719 436 b 706 665 719 547 715 605 b 654 830 696 725 679 780 b 552 952 629 879 595 920 b 386 1000 509 984 454 1000 b 220 952 319 1000 263 984 b 118 830 177 920 143 879 b 67 665 93 780 76 725 b 53 492 57 605 53 547 z m 169 492 b 172 572 169 516 170 543 b 183 662 174 602 178 632 b 205 750 188 692 195 721 b 244 826 215 779 228 804 b 303 880 260 849 280 866 b 386 900 326 893 354 900 b 469 880 419 900 446 893 b 528 826 493 866 512 849 b 567 750 545 804 558 779 b 590 662 577 721 584 692 b 600 572 595 632 598 602 b 603 492 602 543 603 516 b 600 411 603 468 602 441 b 590 322 598 381 595 352 b 567 233 584 291 577 262 b 528 157 558 205 545 179 b 469 103 512 135 493 117 b 386 83 446 90 419 83 b 303 103 354 83 326 90 b 244 157 280 117 260 135 b 205 233 228 179 215 205 b 183 322 195 262 188 291 b 172 411 178 352 174 381 b 169 492 170 441 169 468 z "},"1":{"ha":772,"x_min":0,"x_max":0,"o":"m 500 0 l 500 983 l 399 983 l 135 769 l 204 685 l 381 833 l 383 833 l 383 0 z "},"2":{"ha":772,"x_min":0,"x_max":0,"o":"m 69 133 l 69 0 l 703 0 l 703 108 l 201 108 l 201 111 l 504 396 b 576 466 529 419 553 442 b 637 541 598 490 619 515 b 680 628 655 567 669 596 b 696 733 691 659 696 694 b 672 849 696 777 688 815 b 606 932 655 882 634 910 b 511 983 579 954 547 971 b 396 1000 475 994 437 1000 b 285 984 356 1000 319 995 b 192 938 250 973 220 958 b 124 860 165 917 142 891 b 88 754 106 829 94 794 l 214 743 b 276 857 223 790 244 828 b 400 900 309 886 350 900 b 470 888 425 900 448 896 b 527 855 492 880 511 869 b 565 803 543 841 556 823 b 579 733 575 782 579 759 b 571 668 579 709 576 688 b 545 612 565 649 557 630 b 501 556 534 594 519 575 b 440 494 484 537 463 517 z "},"3":{"ha":772,"x_min":0,"x_max":0,"o":"m 283 567 l 283 467 l 319 467 b 410 457 350 467 380 463 b 490 426 439 450 466 440 b 547 367 513 411 532 392 b 568 276 561 343 568 313 b 552 198 568 248 563 222 b 509 137 541 174 527 154 b 446 97 491 120 470 106 b 368 83 422 88 396 83 b 240 117 313 83 271 94 b 169 229 210 139 186 176 l 51 190 b 172 32 76 117 117 64 b 368 -17 228 0 293 -17 b 492 1 412 -17 453 -11 b 596 56 532 13 566 31 b 667 144 625 80 649 109 b 693 268 684 180 693 221 b 679 356 693 299 688 328 b 639 430 670 383 656 408 b 576 485 621 452 600 470 b 492 515 551 500 523 510 l 492 518 b 613 603 542 534 582 562 b 660 743 644 645 660 691 b 636 855 660 786 652 823 b 572 935 620 887 599 913 b 478 983 545 956 514 972 b 367 1000 443 994 406 1000 b 195 958 304 1000 247 986 b 82 833 144 931 106 889 l 194 790 b 267 872 212 826 236 854 b 375 900 297 891 333 900 b 497 856 425 900 466 885 b 543 738 528 827 543 788 b 522 648 543 700 536 671 b 467 596 507 625 489 608 b 395 572 446 584 422 576 b 319 567 369 569 344 567 z "},"4":{"ha":772,"x_min":0,"x_max":0,"o":"m 582 333 l 582 983 l 439 983 l 49 354 l 49 225 l 465 225 l 465 0 l 582 0 l 582 225 l 724 225 l 724 333 z m 465 847 l 465 333 l 149 333 l 463 847 z "},"5":{"ha":772,"x_min":0,"x_max":0,"o":"m 658 875 l 658 983 l 143 983 l 133 472 b 231 516 163 490 195 504 b 333 533 266 528 300 533 b 429 519 368 533 400 528 b 506 476 459 509 484 495 b 558 406 528 457 545 433 b 576 310 570 378 576 346 b 560 217 576 275 571 244 b 515 145 549 189 534 165 b 448 99 496 125 473 110 b 365 83 422 89 395 83 b 255 117 324 83 287 95 b 182 207 223 140 199 170 l 65 163 b 174 32 92 108 128 64 b 356 -17 220 0 281 -17 b 490 7 404 -17 448 -9 b 597 73 531 23 566 45 b 667 176 627 101 650 135 b 693 310 684 216 693 261 b 671 438 693 356 686 399 b 607 541 656 478 635 512 b 508 609 579 570 546 593 b 379 633 469 625 426 633 b 315 628 359 633 337 632 b 253 610 292 625 271 619 l 257 875 z "},"6":{"ha":772,"x_min":0,"x_max":0,"o":"m 283 574 l 547 983 l 411 983 l 150 568 b 83 440 123 525 101 483 b 57 292 66 398 57 348 b 82 163 57 244 65 200 b 151 66 99 125 122 92 b 256 5 181 40 216 19 b 386 -17 297 -9 340 -17 b 516 5 432 -17 476 -9 b 621 66 556 19 591 40 b 690 163 650 92 674 125 b 715 292 707 200 715 244 b 693 417 715 337 708 379 b 631 515 678 455 658 487 b 537 578 605 542 573 563 b 418 600 500 593 461 600 b 351 593 398 600 375 598 b 286 571 326 588 305 581 z m 386 500 b 469 485 416 500 444 495 b 537 444 495 476 518 462 b 582 378 556 426 571 404 b 599 292 593 352 599 323 b 582 205 599 259 593 230 b 537 140 571 179 556 158 b 469 98 518 122 495 108 b 386 83 444 88 416 83 b 303 98 356 83 329 88 b 235 140 277 108 254 122 b 190 205 216 158 201 179 b 174 292 179 230 174 259 b 190 378 174 323 179 352 b 235 444 201 404 216 426 b 303 485 254 462 277 476 b 386 500 329 495 356 500 z "},"7":{"ha":772,"x_min":0,"x_max":0,"o":"m 667 875 l 667 983 l 67 983 l 67 875 l 542 875 l 142 0 l 274 0 z "},"8":{"ha":772,"x_min":0,"x_max":0,"o":"m 106 743 b 117 674 106 720 109 697 b 149 610 124 650 135 629 b 199 558 162 590 179 573 b 267 526 219 544 242 533 l 267 524 b 186 491 237 517 210 506 b 125 435 162 476 142 457 b 86 359 108 413 95 387 b 72 271 77 331 72 301 b 97 151 72 226 80 186 b 163 60 113 115 135 85 b 263 3 191 35 225 16 b 386 -17 302 -10 343 -17 b 509 3 430 -17 471 -10 b 609 60 547 16 581 35 b 676 151 637 85 659 115 b 700 271 692 186 700 226 b 686 359 700 301 695 331 b 647 435 677 387 664 413 b 586 491 631 457 610 476 b 506 524 562 506 535 517 l 506 526 b 573 558 531 533 553 544 b 624 610 593 573 610 590 b 656 674 638 629 648 650 b 667 743 663 697 667 720 b 645 849 667 782 659 817 b 586 929 631 880 611 907 b 497 981 561 951 531 969 b 386 1000 463 994 426 1000 b 275 981 346 1000 309 994 b 186 929 241 969 211 951 b 127 849 161 907 141 880 b 106 743 113 817 106 782 z m 222 738 b 267 854 222 785 237 824 b 386 900 297 885 337 900 b 505 854 435 900 475 885 b 550 738 535 824 550 785 b 505 621 550 690 535 651 b 386 575 475 590 435 575 b 267 621 337 575 297 590 b 222 738 237 651 222 690 z m 189 279 b 204 358 189 308 194 334 b 247 420 214 382 228 403 b 309 460 265 437 285 451 b 386 475 333 470 358 475 b 463 460 414 475 440 470 b 526 420 487 451 508 437 b 568 358 544 403 558 382 b 583 279 578 334 583 308 b 568 200 583 250 578 224 b 526 138 558 176 544 155 b 463 98 508 121 487 108 b 386 83 440 88 414 83 b 309 98 358 83 333 88 b 247 138 285 108 265 121 b 204 200 228 155 214 176 b 189 279 194 224 189 250 z "},"9":{"ha":772,"x_min":0,"x_max":0,"o":"m 489 410 l 225 0 l 361 0 l 622 415 b 659 478 635 437 647 458 b 689 543 671 499 681 521 b 708 613 697 565 704 588 b 715 692 713 637 715 663 b 690 821 715 740 707 783 b 621 917 674 859 650 891 b 516 978 591 944 556 964 b 386 1000 476 993 432 1000 b 256 978 340 1000 297 993 b 151 917 216 964 181 944 b 82 821 122 891 99 859 b 57 692 65 783 57 740 b 79 566 57 645 64 603 b 141 469 94 528 115 496 b 235 406 167 441 199 420 b 354 383 272 391 312 383 b 422 390 375 383 397 386 b 486 413 446 395 468 402 z m 386 483 b 303 498 356 483 329 488 b 235 540 277 508 254 522 b 190 605 216 558 201 579 b 174 692 179 630 174 659 b 190 778 174 723 179 752 b 235 844 201 804 216 826 b 303 885 254 862 277 876 b 386 900 329 895 356 900 b 469 885 416 900 444 895 b 537 844 495 876 518 862 b 582 778 556 826 571 804 b 599 692 593 752 599 723 b 582 605 599 659 593 630 b 537 540 571 579 556 558 b 469 498 518 522 495 508 b 386 483 444 488 416 483 z "},"\r":{"ha":0,"x_min":0,"x_max":0,"o":""}," ":{"ha":386,"x_min":0,"x_max":0,"o":""},"!":{"ha":386,"x_min":0,"x_max":0,"o":"m 251 275 l 251 983 l 135 983 l 135 275 z m 193 158 b 134 134 170 158 150 150 b 110 75 118 118 110 98 b 135 16 110 52 118 32 b 193 -8 153 0 172 -8 b 251 16 214 -8 234 0 b 276 75 268 32 276 52 b 252 134 276 98 268 118 b 193 158 236 150 216 158 z "},"\"":{"ha":721,"x_min":0,"x_max":0,"o":"m 208 983 l 208 650 l 308 650 l 308 983 z m 413 983 l 413 650 l 513 650 l 513 983 z "},"#":{"ha":772,"x_min":0,"x_max":0,"o":"m 178 296 l 136 0 l 229 0 l 271 296 l 446 296 l 404 0 l 497 0 l 539 296 l 689 296 l 689 388 l 553 388 l 582 599 l 731 599 l 731 690 l 594 690 l 636 983 l 543 983 l 501 690 l 326 690 l 368 983 l 275 983 l 233 690 l 83 690 l 83 599 l 219 599 l 192 388 l 42 388 l 42 296 z m 489 599 l 460 388 l 285 388 l 314 599 z "},"$":{"ha":772,"x_min":0,"x_max":0,"o":"m 356 -17 l 356 -115 l 422 -115 l 422 -17 b 535 8 462 -14 500 -6 b 627 65 570 22 601 41 b 690 151 653 89 675 118 b 714 264 706 185 714 222 b 690 378 714 309 706 347 b 624 455 673 408 652 434 b 531 507 597 476 566 493 b 422 546 495 521 459 534 l 422 892 b 522 869 458 892 492 884 b 600 804 553 853 579 832 l 692 888 b 570 972 659 925 619 954 b 422 1000 522 991 472 1000 l 422 1092 l 356 1092 l 356 1000 b 251 974 319 997 285 989 b 163 917 218 960 189 941 b 103 833 138 894 118 866 b 81 726 88 801 81 765 b 103 617 81 685 88 648 b 163 538 118 586 138 560 b 251 481 189 515 218 497 b 356 444 285 466 319 454 l 356 92 b 241 122 316 94 278 104 b 156 197 204 141 176 166 l 58 113 b 190 13 94 65 137 32 b 356 -17 242 -7 297 -17 z m 356 892 l 356 564 b 297 590 334 572 315 581 b 249 621 278 598 263 609 b 217 664 236 633 225 647 b 206 725 209 681 206 701 b 247 835 206 769 219 806 b 356 892 274 865 310 883 z m 422 92 l 422 426 b 484 403 444 420 464 412 b 538 371 504 395 522 384 b 575 324 553 358 566 342 b 589 258 584 305 589 283 b 541 146 589 214 573 176 b 422 92 509 115 469 97 z "},"%":{"ha":1157,"x_min":0,"x_max":0,"o":"m 53 757 b 72 661 53 723 59 691 b 123 584 84 631 101 606 b 200 533 145 562 170 545 b 296 514 230 520 262 514 b 392 533 330 514 362 520 b 469 584 421 545 447 562 b 520 661 491 606 508 631 b 539 757 533 691 539 723 b 520 853 539 791 533 823 b 469 930 508 882 491 908 b 392 981 447 952 421 969 b 296 1000 362 994 330 1000 b 200 981 262 1000 230 994 b 123 930 170 969 145 952 b 72 853 101 908 84 882 b 53 757 59 823 53 791 z m 153 757 b 165 812 153 776 157 795 b 196 858 172 829 183 844 b 241 889 209 871 224 881 b 296 900 258 896 276 900 b 351 889 315 900 334 896 b 396 858 368 881 383 871 b 427 812 409 844 419 829 b 439 757 435 795 439 776 b 427 702 439 738 435 719 b 396 656 419 685 409 670 b 351 625 383 643 368 632 b 296 614 334 618 315 614 b 241 625 276 614 258 618 b 196 656 224 632 209 643 b 165 702 183 670 172 685 b 153 757 157 719 153 738 z m 618 226 b 637 131 618 192 624 160 b 688 53 649 101 666 75 b 765 2 710 32 736 15 b 861 -17 795 -10 827 -17 b 957 2 895 -17 927 -10 b 1034 53 987 15 1012 32 b 1085 131 1056 75 1073 101 b 1104 226 1098 160 1104 192 b 1085 322 1104 261 1098 293 b 1034 399 1073 352 1056 378 b 957 451 1012 421 987 438 b 861 469 927 463 895 469 b 765 451 827 469 795 463 b 688 399 736 438 710 421 b 637 322 666 378 649 352 b 618 226 624 293 618 261 z m 718 226 b 730 281 718 246 722 264 b 761 327 738 298 748 314 b 806 358 774 341 789 351 b 861 369 823 366 842 369 b 916 358 881 369 899 366 b 961 327 933 351 948 341 b 992 281 974 314 984 298 b 1004 226 1000 264 1004 246 b 992 172 1004 207 1000 189 b 961 126 984 154 974 139 b 916 94 948 112 933 102 b 861 83 899 87 881 83 b 806 94 842 83 823 87 b 761 126 789 102 774 112 b 730 172 748 139 738 154 b 718 226 722 189 718 207 z m 853 1028 l 236 0 l 313 -44 l 929 983 z "},"&":{"ha":1003,"x_min":0,"x_max":0,"o":"m 690 142 l 824 0 l 983 0 l 758 231 l 947 533 l 815 533 l 683 313 l 475 533 b 549 577 500 546 525 561 b 616 631 574 593 596 611 b 665 699 636 651 652 674 b 683 783 677 725 683 753 b 664 878 683 819 677 851 b 610 947 651 906 633 928 b 532 988 588 965 562 978 b 438 1001 502 997 471 1001 b 340 987 403 1001 371 997 b 260 944 310 977 283 963 b 204 873 237 925 218 901 b 183 776 190 845 183 813 b 218 651 183 729 195 688 b 301 549 241 615 269 581 b 217 501 272 535 244 519 b 148 438 191 483 168 462 b 101 359 128 415 112 388 b 83 264 89 330 83 298 b 109 145 83 219 92 180 b 177 57 126 110 149 81 b 276 2 205 33 238 15 b 396 -17 314 -10 354 -17 b 563 25 462 -17 517 -3 b 690 142 608 53 650 92 z m 403 604 l 368 640 b 322 698 351 658 336 677 b 300 769 307 719 300 743 b 342 866 300 810 314 842 b 442 901 369 890 403 901 b 530 871 476 901 505 891 b 567 786 554 850 567 822 b 551 722 567 762 562 741 b 513 674 541 704 528 688 b 460 636 497 660 479 647 b 403 604 440 625 421 614 z m 374 478 l 619 219 b 572 167 604 201 588 184 b 520 124 555 151 538 137 b 461 94 502 112 482 102 b 392 83 440 87 417 83 b 318 97 366 83 341 88 b 257 136 295 106 275 119 b 215 194 239 153 225 172 b 200 268 205 217 200 241 b 215 339 200 294 205 318 b 256 396 225 360 239 379 b 311 441 272 413 291 428 b 374 478 331 454 352 467 z "},"'":{"ha":386,"x_min":0,"x_max":0,"o":"m 143 983 l 143 650 l 243 650 l 243 983 z "},"(":{"ha":386,"x_min":0,"x_max":0,"o":"m 279 -217 l 354 -164 b 276 -28 325 -117 299 -71 b 221 105 254 16 236 60 b 188 244 206 150 195 196 b 176 400 180 293 176 344 b 221 696 176 502 191 600 b 354 961 250 791 295 880 l 279 1017 b 130 729 215 930 166 834 b 76 400 94 625 76 515 b 128 81 76 294 94 187 b 279 -217 162 -26 213 -125 z "},")":{"ha":386,"x_min":0,"x_max":0,"o":"m 107 1017 l 32 964 b 110 828 62 917 88 871 b 165 695 132 784 150 740 b 199 556 180 650 191 604 b 210 400 206 507 210 456 b 165 104 210 298 195 200 b 32 -161 136 9 91 -80 l 107 -217 b 256 71 171 -130 221 -34 b 310 400 292 175 310 285 b 258 719 310 506 293 613 b 107 1017 224 826 174 925 z "},"*":{"ha":617,"x_min":0,"x_max":0,"o":"m 350 776 l 350 983 l 267 983 l 267 776 l 69 843 l 43 763 l 239 696 l 118 531 l 188 478 l 308 649 l 433 478 l 501 531 l 378 696 l 574 763 l 547 843 z "},"+":{"ha":925,"x_min":0,"x_max":0,"o":"m 100 467 l 100 375 l 417 375 l 417 58 l 508 58 l 508 375 l 825 375 l 825 467 l 508 467 l 508 783 l 417 783 l 417 467 z "},",":{"ha":386,"x_min":0,"x_max":0,"o":"m 179 -192 l 293 142 l 167 142 l 72 -192 z "},"-":{"ha":463,"x_min":0,"x_max":0,"o":"m 61 383 l 61 283 l 401 283 l 401 383 z "},".":{"ha":386,"x_min":0,"x_max":0,"o":"m 193 158 b 134 134 170 158 150 150 b 110 75 118 118 110 98 b 135 16 110 52 118 32 b 193 -8 153 0 172 -8 b 251 16 214 -8 234 0 b 276 75 268 32 276 52 b 252 134 276 98 268 118 b 193 158 236 150 216 158 z "},"/":{"ha":514,"x_min":0,"x_max":0,"o":"m 92 -60 l 510 1008 l 422 1042 l 4 -25 z "},":":{"ha":386,"x_min":0,"x_max":0,"o":"m 193 667 b 134 642 170 667 150 659 b 110 583 118 626 110 606 b 135 524 110 560 118 541 b 193 500 153 508 172 500 b 251 524 214 500 234 508 b 276 583 268 541 276 560 b 252 642 276 606 268 626 b 193 667 236 659 216 667 z m 193 158 b 134 134 170 158 150 150 b 110 75 118 118 110 98 b 135 16 110 52 118 32 b 193 -8 153 0 172 -8 b 251 16 214 -8 234 0 b 276 75 268 32 276 52 b 252 134 276 98 268 118 b 193 158 236 150 216 158 z "},";":{"ha":386,"x_min":0,"x_max":0,"o":"m 179 -192 l 293 142 l 167 142 l 72 -192 z m 193 667 b 134 642 170 667 150 659 b 110 583 118 626 110 606 b 135 524 110 560 118 541 b 193 500 153 508 172 500 b 251 524 214 500 234 508 b 276 583 268 541 276 560 b 252 642 276 606 268 626 b 193 667 236 659 216 667 z "},"<":{"ha":925,"x_min":0,"x_max":0,"o":"m 825 692 l 825 783 l 100 461 l 100 381 l 825 58 l 825 150 l 213 421 z "},"=":{"ha":925,"x_min":0,"x_max":0,"o":"m 100 575 l 100 483 l 825 483 l 825 575 z m 100 358 l 100 267 l 825 267 l 825 358 z "},">":{"ha":925,"x_min":0,"x_max":0,"o":"m 100 150 l 100 58 l 825 381 l 825 461 l 100 783 l 100 692 l 713 421 z "},"?":{"ha":669,"x_min":0,"x_max":0,"o":"m 263 363 l 263 275 l 379 275 l 379 339 b 381 388 379 358 380 375 b 390 425 383 402 386 414 b 410 457 395 436 402 447 b 446 493 419 467 431 479 b 506 551 466 513 486 532 b 556 610 525 570 542 590 b 591 678 571 631 582 654 b 604 761 600 703 604 731 b 583 867 604 801 597 836 b 526 945 569 898 550 924 b 440 992 501 966 472 982 b 333 1008 407 1003 371 1008 b 226 992 295 1008 260 1003 b 138 947 193 982 163 966 b 73 872 112 927 90 902 b 38 771 56 843 44 809 l 163 757 b 217 867 170 802 188 839 b 332 908 247 894 285 908 b 440 866 378 908 414 894 b 479 757 466 838 479 801 b 468 697 479 735 475 715 b 440 647 461 680 451 663 b 401 602 428 631 415 616 b 358 558 386 588 372 573 b 313 511 340 540 325 524 b 283 472 300 498 291 485 b 267 426 276 458 271 443 b 263 363 264 410 263 388 z m 321 158 b 262 134 298 158 278 150 b 238 75 246 118 238 98 b 263 16 238 52 246 32 b 321 -8 280 0 300 -8 b 378 16 342 -8 361 0 b 404 75 396 32 404 52 b 380 134 404 98 396 118 b 321 158 364 150 344 158 z "},"@":{"ha":1111,"x_min":0,"x_max":0,"o":"m 364 407 b 381 503 364 438 369 470 b 427 598 392 537 407 569 b 498 670 447 627 471 651 b 588 699 525 689 555 699 b 630 688 602 699 616 695 b 665 660 643 681 655 672 b 690 618 675 648 684 634 b 700 568 697 602 700 586 b 683 474 700 539 694 508 b 638 378 672 439 657 407 b 569 303 618 348 595 323 b 485 274 544 284 515 274 b 398 311 450 274 421 286 b 364 407 375 336 364 368 z m 743 371 l 860 764 l 769 764 l 744 676 l 742 676 b 677 765 726 718 704 747 b 588 790 650 782 620 790 b 454 756 538 790 494 779 b 352 667 414 734 380 704 b 287 540 324 630 302 588 b 264 397 272 493 264 445 b 278 313 264 367 269 338 b 317 244 287 287 300 264 b 379 199 334 225 355 210 b 460 182 403 188 430 182 b 561 209 500 182 534 191 b 633 274 588 227 612 249 l 636 274 b 664 204 638 242 647 219 b 725 182 681 189 701 182 b 831 211 757 182 793 192 b 936 293 869 231 904 258 b 1017 419 969 328 996 370 b 1050 583 1039 469 1050 523 b 1013 755 1050 645 1038 703 b 910 890 988 807 953 852 b 761 977 867 927 818 956 b 581 1008 705 998 644 1008 b 379 968 509 1008 442 995 b 214 858 316 941 261 905 b 102 694 167 812 129 757 b 61 492 75 631 61 564 b 101 290 61 419 75 352 b 212 126 128 227 165 172 b 376 15 259 79 313 42 b 581 -25 439 -12 507 -25 b 713 -8 626 -25 670 -19 b 833 40 755 3 795 19 b 938 116 871 60 906 86 b 1018 218 969 146 996 180 l 931 218 b 779 96 893 167 842 126 b 581 50 716 65 650 50 b 417 84 523 50 469 61 b 281 178 365 107 319 138 b 188 318 242 218 211 264 b 153 492 164 372 153 430 b 186 661 153 551 164 607 b 277 802 208 715 239 762 b 413 898 316 842 361 874 b 581 933 464 922 520 933 b 721 908 629 933 675 925 b 842 837 766 892 806 868 b 926 724 877 806 905 768 b 958 576 948 680 958 631 b 940 464 958 538 952 500 b 894 367 928 428 913 396 b 832 299 876 339 855 316 b 764 274 809 282 786 274 b 731 301 742 274 731 283 b 734 335 731 312 732 323 b 743 371 736 348 739 360 z "},"A":{"ha":978,"x_min":0,"x_max":0,"o":"m 442 983 l 8 0 l 140 0 l 242 242 l 733 242 l 833 0 l 969 0 l 551 983 z m 494 833 l 689 350 l 288 350 l 492 833 z "},"B":{"ha":875,"x_min":0,"x_max":0,"o":"m 122 983 l 122 0 l 415 0 b 552 13 461 0 506 4 b 676 56 598 21 639 35 b 765 140 712 77 742 105 b 799 275 787 175 799 220 b 782 366 799 307 793 338 b 735 440 771 394 755 419 b 665 492 716 462 692 479 b 576 517 637 506 608 514 l 576 519 b 702 599 629 535 671 562 b 749 742 733 637 749 684 b 720 856 749 787 739 825 b 646 930 701 886 676 911 b 542 971 615 949 581 963 b 422 983 503 979 463 983 z m 239 567 l 239 875 l 413 875 b 490 869 438 875 464 873 b 558 846 515 865 538 857 b 606 801 578 835 594 820 b 624 726 618 782 624 757 b 604 644 624 692 617 665 b 553 595 591 623 574 607 b 481 572 531 584 508 576 b 400 567 455 569 428 567 z m 239 108 l 239 458 l 439 458 b 526 450 469 458 497 456 b 601 421 554 444 579 435 b 653 365 622 407 640 388 b 674 279 667 342 674 313 b 653 199 674 248 667 221 b 598 147 639 178 621 160 b 522 117 575 133 550 123 b 436 108 493 111 465 108 z "},"C":{"ha":978,"x_min":0,"x_max":0,"o":"m 811 781 l 913 854 b 758 972 871 909 819 948 b 565 1008 696 996 632 1008 b 364 968 492 1008 425 995 b 206 858 303 941 250 905 b 102 694 161 812 127 757 b 65 492 78 631 65 564 b 103 285 65 417 78 348 b 209 122 129 222 164 167 b 368 14 254 76 307 40 b 565 -25 429 -12 495 -25 b 777 17 644 -25 715 -11 b 938 147 840 44 893 88 l 850 221 b 726 119 815 176 774 142 b 565 83 679 95 625 83 b 413 115 510 83 459 94 b 295 202 367 137 328 166 b 218 331 262 239 237 282 b 190 492 200 381 190 434 b 218 647 190 545 200 597 b 296 777 237 696 263 740 b 415 867 329 815 369 844 b 565 900 460 889 511 900 b 701 870 613 900 658 890 b 811 781 745 850 781 820 z "},"D":{"ha":1029,"x_min":0,"x_max":0,"o":"m 104 983 l 104 0 l 482 0 b 585 11 514 0 549 4 b 692 47 621 19 657 30 b 795 110 728 63 762 84 b 882 203 828 136 857 167 b 942 330 907 240 927 282 b 964 492 956 378 964 431 b 942 653 964 552 956 606 b 882 780 927 701 907 743 b 795 874 857 816 828 848 b 692 937 762 900 728 921 b 585 972 657 953 621 965 b 482 983 549 980 514 983 z m 221 108 l 221 875 l 443 875 b 600 853 500 875 552 868 b 725 784 648 838 690 815 b 808 665 760 753 788 713 b 839 492 829 617 839 559 b 808 318 839 424 829 366 b 725 199 788 270 760 230 b 600 131 690 168 648 145 b 443 108 552 116 500 108 z "},"E":{"ha":824,"x_min":0,"x_max":0,"o":"m 122 983 l 122 0 l 765 0 l 765 108 l 239 108 l 239 458 l 707 458 l 707 567 l 239 567 l 239 875 l 740 875 l 740 983 z "},"F":{"ha":772,"x_min":0,"x_max":0,"o":"m 122 983 l 122 0 l 239 0 l 239 442 l 697 442 l 697 550 l 239 550 l 239 875 l 732 875 l 732 983 z "},"G":{"ha":1081,"x_min":0,"x_max":0,"o":"m 958 67 l 958 550 l 615 550 l 615 442 l 842 442 l 842 140 b 722 98 806 122 766 108 b 597 83 679 88 637 83 b 432 114 537 83 482 94 b 303 199 382 134 339 163 b 220 329 268 236 240 279 b 190 492 200 379 190 433 b 220 656 190 551 200 606 b 303 785 240 706 268 749 b 429 869 339 821 381 849 b 586 900 477 890 530 900 b 733 871 636 900 685 890 b 854 788 780 851 821 824 l 942 879 b 781 979 894 926 841 960 b 594 1008 722 999 659 1008 b 388 971 520 1008 451 996 b 219 866 324 946 268 911 b 106 703 171 821 134 767 b 65 492 79 640 65 569 b 104 281 65 415 78 345 b 213 118 130 218 166 163 b 379 13 260 73 315 38 b 590 -25 443 -12 513 -25 b 780 -3 654 -25 717 -18 b 958 67 842 12 902 35 z "},"H":{"ha":1003,"x_min":0,"x_max":0,"o":"m 122 983 l 122 0 l 239 0 l 239 458 l 764 458 l 764 0 l 881 0 l 881 983 l 764 983 l 764 567 l 239 567 l 239 983 z "},"I":{"ha":361,"x_min":0,"x_max":0,"o":"m 122 983 l 122 0 l 239 0 l 239 983 z "},"J":{"ha":669,"x_min":0,"x_max":0,"o":"m 547 254 l 547 983 l 431 983 l 431 294 b 424 216 431 268 428 241 b 399 149 419 191 411 168 b 350 101 388 129 371 113 b 268 83 329 89 301 83 b 169 117 226 83 193 95 b 121 210 144 140 128 171 l 4 186 b 93 28 17 116 47 63 b 267 -25 139 -7 197 -25 b 399 0 319 -25 364 -17 b 485 65 435 17 464 38 b 533 155 507 92 523 122 b 547 254 542 188 547 221 z "},"K":{"ha":875,"x_min":0,"x_max":0,"o":"m 122 983 l 122 0 l 239 0 l 239 500 l 256 500 l 724 0 l 894 0 l 385 535 l 871 983 l 703 983 l 256 558 l 239 558 l 239 983 z "},"L":{"ha":694,"x_min":0,"x_max":0,"o":"m 122 983 l 122 0 l 689 0 l 689 108 l 239 108 l 239 983 z "},"M":{"ha":1260,"x_min":0,"x_max":0,"o":"m 122 983 l 122 0 l 239 0 l 239 825 l 242 825 l 594 0 l 665 0 l 1018 825 l 1021 825 l 1021 0 l 1138 0 l 1138 983 l 968 983 l 632 213 l 629 213 l 296 983 z "},"N":{"ha":1081,"x_min":0,"x_max":0,"o":"m 122 983 l 122 0 l 239 0 l 239 817 l 242 817 l 811 0 l 958 0 l 958 983 l 842 983 l 842 167 l 839 167 l 269 983 z "},"O":{"ha":1158,"x_min":0,"x_max":0,"o":"m 579 -25 b 785 14 654 -25 723 -12 b 948 122 848 40 902 76 b 1055 285 994 167 1029 222 b 1093 492 1080 349 1093 418 b 1055 698 1093 566 1080 634 b 948 862 1029 761 994 816 b 785 969 902 908 848 944 b 579 1008 723 995 654 1008 b 373 969 504 1008 435 995 b 210 862 310 944 256 908 b 103 698 165 816 129 761 b 65 492 78 634 65 566 b 103 285 65 418 78 349 b 210 122 129 222 165 167 b 373 14 256 76 310 40 b 579 -25 435 -12 504 -25 z m 579 83 b 422 115 522 83 469 94 b 299 203 374 137 333 166 b 219 333 264 240 238 283 b 190 492 200 382 190 435 b 219 651 190 548 200 601 b 299 781 238 700 264 744 b 422 868 333 818 374 847 b 579 900 469 889 522 900 b 737 868 637 900 689 889 b 860 781 784 847 825 818 b 940 651 894 744 921 700 b 968 492 959 601 968 548 b 940 333 968 435 959 382 b 860 203 921 283 894 240 b 737 115 825 166 784 137 b 579 83 689 94 637 83 z "},"P":{"ha":824,"x_min":0,"x_max":0,"o":"m 122 983 l 122 0 l 239 0 l 239 442 l 436 442 b 544 454 470 442 506 446 b 649 497 582 463 617 477 b 728 581 681 518 707 545 b 758 714 748 616 758 660 b 730 842 758 765 749 808 b 653 926 711 877 685 905 b 544 970 622 947 585 961 b 414 983 503 979 459 983 z m 239 550 l 239 875 l 436 875 b 578 835 494 875 542 862 b 633 713 615 809 633 768 b 578 590 633 657 615 616 b 436 550 542 563 494 550 z "},"Q":{"ha":1158,"x_min":0,"x_max":0,"o":"m 1142 0 l 1142 100 l 838 100 l 838 103 b 937 169 875 119 908 141 b 1012 265 966 197 991 229 b 1060 380 1033 300 1049 339 b 1076 504 1071 421 1076 463 b 1038 703 1076 575 1063 642 b 931 863 1012 765 976 818 b 772 969 886 908 833 944 b 571 1008 710 995 643 1008 b 370 969 499 1008 432 995 b 210 863 309 944 255 908 b 104 703 166 818 130 765 b 65 504 78 642 65 575 b 104 305 65 433 78 366 b 210 145 130 243 166 190 b 370 39 255 100 309 65 b 571 0 432 13 499 0 z m 190 504 b 219 658 190 559 200 610 b 298 784 238 706 264 748 b 418 869 332 820 372 848 b 571 900 464 890 515 900 b 724 869 626 900 677 890 b 844 784 770 848 810 820 b 923 658 878 748 904 706 b 951 504 942 610 951 559 b 922 349 951 449 942 397 b 842 223 903 300 876 259 b 722 139 809 187 768 159 b 571 108 675 119 625 108 b 419 139 516 108 466 119 b 299 223 373 159 333 187 b 219 349 266 259 239 300 b 190 504 200 397 190 449 z "},"R":{"ha":849,"x_min":0,"x_max":0,"o":"m 122 983 l 122 0 l 239 0 l 239 442 l 389 442 l 656 0 l 799 0 l 519 453 b 700 538 596 465 656 493 b 765 713 744 582 765 640 b 731 858 765 774 754 822 b 640 939 707 893 677 920 b 515 975 603 957 561 969 b 374 983 468 981 421 983 z m 239 550 l 239 875 l 403 875 b 488 869 431 875 460 873 b 565 847 516 866 542 858 b 619 797 587 835 606 819 b 640 713 633 776 640 748 b 612 619 640 672 631 641 b 540 571 593 597 569 581 b 444 553 510 561 478 555 b 343 550 409 551 375 550 z "},"S":{"ha":772,"x_min":0,"x_max":0,"o":"m 589 810 l 685 893 b 562 983 649 936 608 966 b 410 1008 516 1000 465 1008 b 285 990 366 1008 325 1002 b 178 937 245 978 209 960 b 103 849 146 913 121 884 b 75 725 84 813 75 772 b 94 620 75 684 81 649 b 145 545 106 591 123 566 b 222 492 167 524 193 507 b 319 454 252 478 284 465 b 433 415 363 439 401 426 b 514 378 466 404 493 392 b 561 328 535 364 551 347 b 576 254 571 309 576 285 b 557 181 576 226 570 202 b 507 127 544 159 527 141 b 438 94 487 113 464 102 b 363 83 413 87 388 83 b 242 111 320 83 280 93 b 153 193 204 130 174 157 l 53 111 b 113 48 69 86 89 65 b 187 6 136 31 160 17 b 269 -17 213 -4 241 -12 b 356 -25 298 -22 327 -25 b 485 -8 400 -25 443 -19 b 595 45 526 4 563 22 b 672 135 627 69 653 99 b 701 263 692 171 701 213 b 677 383 701 311 693 351 b 612 463 661 415 639 441 b 517 515 584 484 553 501 b 407 554 482 529 445 542 b 308 590 368 566 335 578 b 244 629 281 602 260 615 b 210 676 229 643 217 659 b 200 735 203 693 200 713 b 218 810 200 763 206 788 b 266 861 230 831 246 848 b 333 890 286 874 308 884 b 410 900 358 897 384 900 b 511 878 445 900 479 893 b 589 810 544 864 569 841 z "},"T":{"ha":797,"x_min":0,"x_max":0,"o":"m 782 875 l 782 983 l 15 983 l 15 875 l 340 875 l 340 0 l 457 0 l 457 875 z "},"U":{"ha":978,"x_min":0,"x_max":0,"o":"m 860 375 l 860 983 l 743 983 l 743 392 b 731 276 743 352 739 313 b 689 178 722 239 708 206 b 611 109 669 149 644 126 b 489 83 579 92 538 83 b 367 109 440 83 399 92 b 289 178 334 126 308 149 b 247 276 269 206 256 239 b 235 392 239 313 235 352 l 235 983 l 118 983 l 118 375 b 138 222 118 321 125 270 b 202 95 152 174 173 132 b 317 8 231 59 269 29 b 489 -25 364 -14 421 -25 b 661 8 556 -25 614 -14 b 776 95 708 29 747 59 b 840 222 805 132 826 174 b 860 375 853 270 860 321 z "},"V":{"ha":849,"x_min":0,"x_max":0,"o":"m -12 983 l 364 0 l 476 0 l 861 983 l 738 983 l 425 175 l 422 175 l 119 983 z "},"W":{"ha":1338,"x_min":0,"x_max":0,"o":"m 8 983 l 296 0 l 424 0 l 668 833 l 671 833 l 914 0 l 1040 0 l 1329 983 l 1207 983 l 979 167 l 976 167 l 736 983 l 606 983 l 364 167 l 361 167 l 138 983 z "},"X":{"ha":875,"x_min":0,"x_max":0,"o":"m 354 518 l -4 0 l 140 0 l 433 436 l 725 0 l 879 0 l 517 518 l 847 983 l 701 983 l 439 599 l 174 983 l 24 983 z "},"Y":{"ha":825,"x_min":0,"x_max":0,"o":"m 354 424 l 354 0 l 471 0 l 471 424 l 838 983 l 697 983 l 413 539 l 136 983 l -12 983 z "},"Z":{"ha":797,"x_min":0,"x_max":0,"o":"m 40 104 l 40 0 l 757 0 l 757 108 l 182 108 l 750 883 l 750 983 l 49 983 l 49 875 l 608 875 z "},"[":{"ha":360,"x_min":0,"x_max":0,"o":"m 268 933 l 268 1017 l 39 1017 l 39 -217 l 268 -217 l 268 -133 l 139 -133 l 139 933 z "},"\\":{"ha":514,"x_min":0,"x_max":0,"o":"m 4 1008 l 422 -60 l 510 -25 l 92 1042 z "},"]":{"ha":360,"x_min":0,"x_max":0,"o":"m 92 1017 l 92 933 l 221 933 l 221 -133 l 92 -133 l 92 -217 l 321 -217 l 321 1017 z "},"^":{"ha":925,"x_min":0,"x_max":0,"o":"m 421 983 l 111 382 l 214 382 l 463 867 l 711 382 l 814 382 l 504 983 z "},"_":{"ha":694,"x_min":0,"x_max":0,"o":"m 0 -104 l 0 -174 l 694 -174 l 694 -104 z "},"`":{"ha":333,"x_min":0,"x_max":0,"o":"m 263 783 l 118 983 l -35 983 l 164 783 z "},"a":{"ha":721,"x_min":0,"x_max":0,"o":"m 94 567 l 163 496 b 252 549 188 520 218 538 b 356 567 286 561 320 567 b 474 531 406 567 446 555 b 517 424 503 506 517 471 l 517 404 l 475 404 b 344 399 435 404 391 402 b 210 371 296 395 252 386 b 107 303 169 356 135 333 b 65 176 79 272 65 230 b 85 93 65 145 72 117 b 137 33 98 69 115 49 b 213 -4 159 16 184 4 b 307 -17 242 -12 274 -17 b 435 15 357 -17 400 -6 b 521 97 471 37 500 64 l 524 97 b 524 49 524 83 524 67 b 531 0 525 31 527 15 l 635 0 b 628 55 632 17 630 35 b 625 113 626 75 625 94 l 625 392 b 561 599 625 484 604 553 b 353 667 519 644 449 667 b 213 642 306 667 259 659 b 94 567 167 626 128 601 z m 408 313 l 517 313 l 517 271 b 503 195 516 244 511 219 b 467 133 494 172 482 151 b 408 91 451 116 431 102 b 325 75 384 80 356 75 b 223 101 284 75 250 84 b 182 188 196 118 182 147 b 243 283 182 232 202 264 b 408 313 284 303 339 313 z "},"b":{"ha":849,"x_min":0,"x_max":0,"o":"m 97 1050 l 97 0 l 206 0 l 206 115 l 208 115 b 305 22 229 78 261 47 b 458 -17 349 -4 400 -17 b 586 9 504 -17 546 -8 b 690 81 626 26 660 50 b 758 189 719 111 742 147 b 783 325 775 231 783 276 b 758 461 783 374 775 419 b 689 569 742 503 719 539 b 581 641 659 600 623 624 b 442 667 539 658 493 667 b 312 638 394 667 351 657 b 208 556 272 618 238 591 l 206 556 l 206 1050 z m 206 325 b 222 420 206 359 211 391 b 268 497 232 449 248 475 b 341 548 288 518 313 535 b 436 567 369 560 401 567 b 531 548 471 567 503 560 b 604 497 559 535 584 518 b 651 420 625 475 640 449 b 667 325 661 391 667 359 b 651 230 667 291 661 259 b 604 153 640 201 625 175 b 531 102 584 132 559 115 b 436 83 503 90 471 83 b 341 102 401 83 369 90 b 268 153 313 115 288 132 b 222 230 248 175 232 201 b 206 325 211 259 206 291 z "},"c":{"ha":669,"x_min":0,"x_max":0,"o":"m 565 488 l 651 564 b 538 642 619 599 581 625 b 401 667 495 658 450 667 b 265 641 351 667 306 658 b 158 569 223 624 188 600 b 90 461 129 539 106 503 b 65 325 73 419 65 374 b 90 188 65 275 73 229 b 158 79 106 146 128 110 b 264 8 187 49 222 25 b 401 -17 306 -8 351 -17 b 536 8 449 -17 494 -8 b 647 88 579 25 616 51 l 567 164 b 401 83 528 110 473 83 b 311 102 368 83 338 90 b 242 154 284 115 261 132 b 198 231 223 176 209 202 b 182 325 187 260 182 292 b 196 419 182 358 187 390 b 237 496 205 448 219 474 b 306 548 255 518 278 535 b 401 567 333 560 365 567 b 490 548 434 567 463 560 b 565 488 517 535 542 515 z "},"d":{"ha":849,"x_min":0,"x_max":0,"o":"m 643 115 l 643 0 l 751 0 l 751 1050 l 643 1050 l 643 556 l 640 556 b 537 638 611 591 576 618 b 407 667 497 657 454 667 b 267 641 356 667 309 658 b 160 569 225 624 189 600 b 90 461 130 539 107 503 b 65 325 74 419 65 374 b 90 189 65 276 74 231 b 159 81 107 147 130 111 b 263 9 188 50 223 26 b 390 -17 302 -8 345 -17 b 544 22 449 -17 500 -4 b 640 115 588 47 620 78 z m 643 325 b 627 230 643 291 638 259 b 581 153 616 201 601 175 b 508 102 560 132 536 115 b 413 83 479 90 448 83 b 317 102 377 83 346 90 b 244 153 289 115 265 132 b 198 230 224 175 209 201 b 182 325 187 259 182 291 b 198 420 182 359 187 391 b 244 497 209 449 224 475 b 317 548 265 518 289 535 b 413 567 346 560 377 567 b 508 548 448 567 479 560 b 581 497 536 535 560 518 b 627 420 601 475 616 449 b 643 325 638 391 643 359 z "},"e":{"ha":772,"x_min":0,"x_max":0,"o":"m 683 118 l 601 182 b 514 108 575 150 546 125 b 394 83 481 92 442 83 b 313 100 365 83 338 89 b 247 145 288 111 266 126 b 202 212 229 164 214 186 b 182 292 191 237 184 264 l 707 292 l 707 326 b 685 470 707 380 700 428 b 622 577 670 512 649 548 b 524 644 594 606 562 628 b 399 667 486 659 444 667 b 265 642 350 667 306 658 b 160 572 225 625 189 602 b 90 463 130 541 107 505 b 65 325 74 421 65 375 b 88 192 65 278 73 233 b 153 83 103 150 125 114 b 257 10 182 53 216 28 b 394 -17 298 -8 344 -17 b 556 13 456 -17 509 -7 b 683 118 602 33 644 68 z m 590 383 l 182 383 b 249 517 189 439 212 483 b 394 567 286 550 334 567 b 536 517 455 567 502 550 b 590 383 570 483 588 439 z "},"f":{"ha":438,"x_min":0,"x_max":0,"o":"m 158 558 l 158 0 l 267 0 l 267 558 l 425 558 l 425 650 l 267 650 l 267 772 b 269 850 267 800 267 826 b 283 912 270 874 275 895 b 318 952 291 929 302 942 b 383 967 334 962 356 967 b 457 953 406 967 431 962 l 472 1050 b 433 1063 462 1056 449 1060 b 389 1067 418 1065 403 1067 b 279 1047 345 1067 309 1060 b 208 990 250 1033 226 1014 b 169 905 190 966 177 938 b 158 796 162 872 158 836 l 158 650 l 17 650 l 17 558 z "},"g":{"ha":849,"x_min":0,"x_max":0,"o":"m 751 29 l 751 650 l 643 650 l 643 539 l 640 539 b 599 595 629 560 615 579 b 542 635 582 611 563 625 b 478 659 522 646 500 654 b 411 667 456 664 433 667 b 269 643 359 667 312 659 b 160 576 227 627 191 605 b 90 468 130 547 107 511 b 65 325 74 425 65 378 b 90 192 65 277 74 232 b 161 86 107 151 131 116 b 271 17 192 56 228 33 b 411 -8 313 0 360 -8 b 539 21 455 -8 497 1 b 640 113 581 40 614 71 l 643 113 l 643 29 b 632 -69 643 -5 639 -38 b 593 -153 625 -101 612 -129 b 517 -212 575 -178 549 -197 b 397 -233 485 -226 445 -233 b 265 -205 347 -233 303 -224 b 156 -121 226 -186 190 -158 l 78 -210 b 224 -306 124 -255 173 -287 b 397 -333 276 -324 333 -333 b 660 -241 512 -333 600 -303 b 751 29 721 -179 751 -89 z m 182 325 b 199 420 182 359 188 391 b 245 497 210 449 225 475 b 317 548 265 518 289 535 b 411 567 346 560 377 567 b 506 549 445 567 477 561 b 579 500 534 538 559 521 b 626 424 600 479 615 453 b 643 328 638 395 643 363 b 628 238 643 296 638 266 b 583 163 618 210 603 185 b 510 111 563 141 538 124 b 411 92 481 98 448 92 b 322 110 380 92 350 98 b 249 159 294 122 270 138 b 200 233 228 180 212 204 b 182 325 188 261 182 292 z "},"h":{"ha":772,"x_min":0,"x_max":0,"o":"m 103 1050 l 103 0 l 211 0 l 211 317 b 223 418 211 354 215 388 b 259 497 231 449 243 475 b 322 549 275 519 296 537 b 413 567 347 561 377 567 b 525 519 463 567 501 551 b 561 390 549 488 561 445 l 561 0 l 669 0 l 669 401 b 655 509 669 440 665 476 b 610 593 645 542 630 570 b 533 647 589 616 564 634 b 422 667 502 660 465 667 b 351 657 397 667 374 663 b 291 632 329 650 309 642 b 244 598 273 622 257 610 b 214 560 231 585 221 573 l 211 560 l 211 1050 z "},"i":{"ha":333,"x_min":0,"x_max":0,"o":"m 113 650 l 113 0 l 221 0 l 221 650 z m 88 904 b 110 847 88 881 95 862 b 167 825 125 832 144 825 b 224 847 190 825 209 832 b 246 904 238 862 246 881 b 223 960 246 925 238 944 b 167 983 208 975 189 983 b 110 960 144 983 126 975 b 88 904 95 944 88 925 z "},"j":{"ha":333,"x_min":0,"x_max":0,"o":"m 221 -146 l 221 650 l 113 650 l 113 -96 b 109 -149 113 -114 111 -132 b 96 -192 107 -165 102 -180 b 67 -222 89 -205 80 -215 b 18 -233 55 -230 38 -233 b -35 -225 0 -233 -17 -231 l -47 -319 b -10 -331 -35 -325 -23 -329 b 28 -333 2 -332 15 -333 b 126 -313 68 -333 100 -327 b 185 -265 151 -300 171 -284 b 213 -203 199 -246 208 -225 b 221 -146 218 -182 221 -162 z m 88 904 b 110 847 88 881 95 862 b 167 825 125 832 144 825 b 224 847 190 825 209 832 b 246 904 238 862 246 881 b 223 960 246 925 238 944 b 167 983 208 975 189 983 b 110 960 144 983 126 975 b 88 904 95 944 88 925 z "},"k":{"ha":694,"x_min":0,"x_max":0,"o":"m 103 1050 l 103 0 l 211 0 l 211 342 l 533 0 l 693 0 l 347 354 l 661 650 l 507 650 l 211 364 l 211 1050 z "},"l":{"ha":333,"x_min":0,"x_max":0,"o":"m 113 1050 l 113 0 l 221 0 l 221 1050 z "},"m":{"ha":1183,"x_min":0,"x_max":0,"o":"m 103 496 l 103 0 l 211 0 l 211 317 b 223 418 211 354 215 388 b 259 497 231 449 243 475 b 322 549 275 519 296 537 b 413 567 347 561 377 567 b 508 522 457 567 489 552 b 538 368 528 491 538 440 l 538 0 l 646 0 l 646 375 b 659 453 646 404 650 430 b 695 514 668 477 680 497 b 749 553 710 531 728 544 b 814 567 769 562 791 567 b 892 551 845 567 871 562 b 940 511 912 541 928 528 b 965 454 952 494 961 475 b 972 389 970 433 972 411 l 972 0 l 1081 0 l 1081 394 b 1068 508 1081 436 1076 474 b 1026 594 1060 541 1046 570 b 950 648 1007 617 981 635 b 833 667 919 660 880 667 b 711 634 783 667 743 656 b 628 543 680 612 652 582 b 606 581 622 554 615 567 b 569 622 597 596 585 609 b 510 653 554 634 534 645 b 422 667 487 662 457 667 b 347 656 395 667 370 663 b 285 628 324 649 303 640 b 237 589 266 617 250 604 b 206 543 223 574 213 559 l 203 543 b 201 597 203 562 202 580 b 200 650 200 615 200 632 l 97 650 b 100 579 97 629 98 605 b 103 496 102 553 103 525 z "},"n":{"ha":772,"x_min":0,"x_max":0,"o":"m 103 496 l 103 0 l 211 0 l 211 317 b 223 418 211 354 215 388 b 259 497 231 449 243 475 b 322 549 275 519 296 537 b 413 567 347 561 377 567 b 525 519 463 567 501 551 b 561 390 549 488 561 445 l 561 0 l 669 0 l 669 401 b 655 509 669 440 665 476 b 610 593 645 542 630 570 b 533 647 589 616 564 634 b 422 667 502 660 465 667 b 347 656 395 667 370 663 b 285 628 324 649 303 640 b 237 589 266 617 250 604 b 206 543 223 574 213 559 l 203 543 b 201 597 203 562 202 580 b 200 650 200 615 200 632 l 97 650 b 100 579 97 629 98 605 b 103 496 102 553 103 525 z "},"o":{"ha":825,"x_min":0,"x_max":0,"o":"m 65 325 b 92 186 65 274 74 228 b 164 78 109 144 133 109 b 274 8 194 48 231 25 b 413 -17 316 -8 363 -17 b 551 8 463 -17 509 -8 b 661 78 594 25 631 48 b 733 186 692 109 716 144 b 760 325 751 228 760 274 b 733 464 760 376 751 422 b 661 572 716 506 692 541 b 551 642 631 602 594 625 b 413 667 509 658 463 667 b 274 642 363 667 316 658 b 164 572 231 625 194 602 b 92 464 133 541 109 506 b 65 325 74 422 65 376 z m 182 325 b 198 420 182 359 187 391 b 244 497 209 449 224 475 b 317 548 265 518 289 535 b 413 567 346 560 377 567 b 508 548 448 567 479 560 b 581 497 536 535 560 518 b 627 420 601 475 616 449 b 643 325 638 391 643 359 b 627 230 643 291 638 259 b 581 153 616 201 601 175 b 508 102 560 132 536 115 b 413 83 479 90 448 83 b 317 102 377 83 346 90 b 244 153 289 115 265 132 b 198 230 224 175 209 201 b 182 325 187 259 182 291 z "},"p":{"ha":849,"x_min":0,"x_max":0,"o":"m 97 650 l 97 -317 l 206 -317 l 206 115 l 208 115 b 305 22 229 78 261 47 b 458 -17 349 -4 400 -17 b 586 9 504 -17 546 -8 b 690 81 626 26 660 50 b 758 189 719 111 742 147 b 783 325 775 231 783 276 b 758 461 783 374 775 419 b 689 569 742 503 719 539 b 581 641 659 600 623 624 b 442 667 539 658 493 667 b 312 638 394 667 351 657 b 208 556 272 618 238 591 l 206 556 l 206 650 z m 206 325 b 222 420 206 359 211 391 b 268 497 232 449 248 475 b 341 548 288 518 313 535 b 436 567 369 560 401 567 b 531 548 471 567 503 560 b 604 497 559 535 584 518 b 651 420 625 475 640 449 b 667 325 661 391 667 359 b 651 230 667 291 661 259 b 604 153 640 201 625 175 b 531 102 584 132 559 115 b 436 83 503 90 471 83 b 341 102 401 83 369 90 b 268 153 313 115 288 132 b 222 230 248 175 232 201 b 206 325 211 259 206 291 z "},"q":{"ha":849,"x_min":0,"x_max":0,"o":"m 751 -317 l 751 650 l 643 650 l 643 535 l 640 535 b 544 628 620 572 588 603 b 390 667 500 654 449 667 b 263 640 345 667 302 658 b 159 568 223 623 188 599 b 90 460 130 538 107 501 b 65 325 74 418 65 373 b 90 189 65 276 74 231 b 160 81 107 147 130 111 b 267 9 189 50 225 26 b 407 -17 309 -8 356 -17 b 537 13 454 -17 497 -7 b 640 94 576 32 611 59 l 643 94 l 643 -317 z m 643 325 b 627 230 643 291 638 259 b 581 153 616 201 601 175 b 508 102 560 132 536 115 b 413 83 479 90 448 83 b 317 102 377 83 346 90 b 244 153 289 115 265 132 b 198 230 224 175 209 201 b 182 325 187 259 182 291 b 198 420 182 359 187 391 b 244 497 209 449 224 475 b 317 548 265 518 289 535 b 413 567 346 560 377 567 b 508 548 448 567 479 560 b 581 497 536 535 560 518 b 627 420 601 475 616 449 b 643 325 638 391 643 359 z "},"r":{"ha":489,"x_min":0,"x_max":0,"o":"m 103 496 l 103 0 l 211 0 l 211 317 b 256 494 211 392 226 451 b 401 558 286 537 335 558 b 460 550 422 558 441 556 l 467 660 b 444 665 459 663 452 664 b 422 667 437 666 430 667 b 347 656 395 667 370 663 b 285 628 324 649 303 640 b 237 589 266 617 250 604 b 206 543 223 574 213 559 l 203 543 b 201 597 203 562 202 580 b 200 650 200 615 200 632 l 97 650 b 100 579 97 629 98 605 b 103 496 102 553 103 525 z "},"s":{"ha":592,"x_min":0,"x_max":0,"o":"m 117 171 l 31 104 b 140 9 63 58 99 26 b 283 -17 180 -8 228 -17 b 378 -6 316 -17 347 -13 b 462 30 409 2 437 14 b 521 93 486 46 506 67 b 543 188 536 119 543 150 b 526 269 543 220 538 247 b 481 325 515 292 500 310 b 413 360 461 340 438 352 b 331 382 387 369 359 376 b 269 396 309 386 289 390 b 216 415 249 401 231 408 b 180 441 201 423 189 431 b 167 476 171 451 167 463 b 178 516 167 491 171 504 b 208 544 186 528 196 537 b 249 561 220 552 234 557 b 294 567 265 565 280 567 b 377 545 327 567 354 559 b 432 489 400 531 418 512 l 522 549 b 430 639 500 590 469 620 b 301 667 391 657 348 667 b 213 654 271 667 241 663 b 135 618 184 646 158 634 b 79 558 112 602 93 582 b 58 475 65 534 58 506 b 77 393 58 442 65 414 b 127 341 90 372 106 354 b 200 308 148 328 172 317 b 288 286 228 300 257 293 b 339 274 305 282 322 278 b 383 255 356 269 370 263 b 415 226 396 247 407 238 b 426 183 422 215 426 201 b 414 138 426 166 422 151 b 381 107 406 126 394 115 b 334 89 367 99 351 93 b 283 83 317 85 300 83 b 187 107 244 83 212 91 b 117 171 161 123 138 144 z "},"t":{"ha":489,"x_min":0,"x_max":0,"o":"m 458 558 l 458 650 l 267 650 l 267 835 l 158 835 l 158 650 l 17 650 l 17 558 l 158 558 l 158 201 b 165 110 158 168 160 138 b 190 42 169 83 177 60 b 244 -1 203 23 221 9 b 338 -17 268 -12 299 -17 b 402 -11 358 -17 379 -15 b 464 7 425 -7 445 -1 l 460 106 b 413 89 445 98 429 93 b 364 83 396 85 380 83 b 308 95 340 83 321 87 b 279 127 295 103 286 114 b 268 174 273 141 269 156 b 267 233 267 192 267 212 l 267 558 z "},"u":{"ha":772,"x_min":0,"x_max":0,"o":"m 669 154 l 669 650 l 561 650 l 561 333 b 549 232 561 296 557 263 b 513 153 541 201 529 175 b 451 101 497 131 476 113 b 360 83 425 89 395 83 b 247 131 309 83 271 99 b 211 260 223 162 211 205 l 211 650 l 103 650 l 103 249 b 117 141 103 210 108 174 b 163 57 127 108 142 80 b 240 3 183 34 209 16 b 350 -17 271 -10 307 -17 b 425 -6 377 -17 402 -13 b 488 22 448 1 469 10 b 535 61 506 33 522 46 b 567 107 549 76 559 91 l 569 107 b 571 53 569 88 570 70 b 572 0 572 35 572 18 l 675 0 b 672 71 675 21 674 45 b 669 154 670 97 669 125 z "},"v":{"ha":669,"x_min":0,"x_max":0,"o":"m 399 0 l 656 650 l 539 650 l 346 140 l 343 140 l 140 650 l 14 650 l 279 0 z "},"w":{"ha":1029,"x_min":0,"x_max":0,"o":"m 800 0 l 1010 650 l 893 650 l 746 150 l 743 150 l 572 650 l 458 650 l 290 150 l 288 150 l 139 650 l 19 650 l 231 0 l 342 0 l 506 500 l 508 500 l 693 0 z "},"x":{"ha":694,"x_min":0,"x_max":0,"o":"m 271 350 l 4 0 l 139 0 l 342 281 l 547 0 l 690 0 l 422 350 l 646 650 l 514 650 l 351 417 l 179 650 l 38 650 z "},"y":{"ha":669,"x_min":0,"x_max":0,"o":"m 342 -149 l 656 650 l 538 650 l 344 140 l 342 140 l 140 650 l 14 650 l 283 -4 l 239 -126 b 196 -204 227 -159 213 -185 b 118 -233 179 -224 153 -233 b 76 -231 102 -233 88 -233 b 42 -222 64 -230 53 -227 l 28 -317 b 76 -331 43 -324 59 -329 b 125 -333 93 -332 109 -333 b 208 -320 157 -333 185 -329 b 266 -283 230 -311 250 -299 b 308 -224 282 -266 296 -247 b 342 -149 319 -202 331 -176 z "},"z":{"ha":617,"x_min":0,"x_max":0,"o":"m 42 85 l 42 0 l 575 0 l 575 92 l 183 92 l 565 567 l 565 650 l 58 650 l 58 558 l 424 558 z "},"{":{"ha":463,"x_min":0,"x_max":0,"o":"m 408 933 l 408 1017 l 311 1017 b 260 1006 294 1017 278 1013 b 214 972 243 998 228 987 b 179 917 200 957 188 939 b 165 843 170 896 165 871 l 165 599 b 155 533 165 575 162 553 b 128 484 148 514 139 497 b 90 453 117 471 104 460 b 46 442 75 445 61 442 l 46 358 b 90 348 61 358 75 355 b 128 317 104 341 117 331 b 155 267 139 303 148 286 b 165 200 162 247 165 225 l 165 -43 b 178 -117 165 -71 170 -96 b 213 -172 187 -139 199 -157 b 259 -206 226 -187 242 -198 b 311 -217 276 -213 294 -217 l 408 -217 l 408 -133 l 333 -133 b 298 -124 319 -133 307 -130 b 277 -99 289 -117 282 -109 b 267 -64 272 -88 269 -77 b 265 -24 266 -51 265 -37 l 265 219 b 251 305 265 254 261 282 b 218 359 242 328 231 346 b 178 388 205 372 192 382 b 146 399 165 394 154 398 l 146 401 b 178 415 154 403 165 408 b 218 446 192 422 205 432 b 251 499 231 460 242 478 b 265 579 261 521 265 548 l 265 824 b 267 864 265 838 266 851 b 277 899 269 877 272 889 b 298 924 282 910 289 918 b 333 933 307 930 319 933 z "},"|":{"ha":308,"x_min":0,"x_max":0,"o":"m 200 1042 l 108 1042 l 108 -347 l 200 -347 z "},"}":{"ha":463,"x_min":0,"x_max":0,"o":"m 54 1017 l 54 933 l 129 933 b 165 924 144 933 156 930 b 185 899 173 918 180 910 b 194 864 189 889 193 877 b 197 824 196 851 197 838 l 197 579 b 211 499 197 548 202 521 b 244 446 220 478 231 460 b 284 415 257 432 271 422 b 317 401 297 408 308 403 l 317 399 b 284 388 308 398 297 394 b 244 359 271 382 257 372 b 211 305 231 346 220 328 b 197 219 202 282 197 254 l 197 -24 b 194 -64 197 -37 196 -51 b 185 -99 193 -77 189 -88 b 165 -124 180 -109 173 -117 b 129 -133 156 -130 144 -133 l 54 -133 l 54 -217 l 151 -217 b 203 -206 169 -217 186 -213 b 250 -172 221 -198 236 -187 b 284 -117 264 -157 275 -139 b 297 -43 293 -96 297 -71 l 297 200 b 308 267 297 225 301 247 b 335 317 315 286 324 303 b 373 348 346 331 359 341 b 417 358 387 355 402 358 l 417 442 b 373 453 402 442 387 445 b 335 484 359 460 346 471 b 308 533 324 497 315 514 b 297 599 301 553 297 575 l 297 843 b 283 917 297 871 293 896 b 249 972 274 939 263 957 b 202 1006 235 987 219 998 b 151 1017 185 1013 168 1017 z "},"~":{"ha":925,"x_min":0,"x_max":0,"o":"m 782 450 l 736 517 b 691 450 724 493 709 470 b 618 419 673 430 649 419 b 536 437 588 419 561 425 b 458 472 511 448 485 460 b 389 501 435 482 412 492 b 317 514 366 509 342 514 b 259 503 295 514 276 510 b 213 474 242 495 227 486 b 176 435 200 463 187 450 b 143 392 164 421 153 406 l 189 325 b 233 392 200 349 215 371 b 306 422 251 412 275 422 b 388 405 335 422 363 416 b 465 369 413 393 438 381 b 535 341 488 359 512 350 b 607 328 558 332 582 328 b 665 339 628 328 647 331 b 711 367 682 346 697 356 b 749 406 725 379 738 392 b 782 450 760 421 771 435 z "}," ":{"ha":386,"x_min":0,"x_max":0,"o":""},"¡":{"ha":386,"x_min":0,"x_max":0,"o":"m 135 400 l 135 -308 l 251 -308 l 251 400 z m 193 517 b 252 541 216 517 236 525 b 276 600 268 557 276 577 b 251 659 276 623 268 643 b 193 683 234 675 214 683 b 135 659 172 683 153 675 b 110 600 118 643 110 623 b 134 541 110 577 118 557 b 193 517 150 525 170 517 z "},"¢":{"ha":772,"x_min":0,"x_max":0,"o":"m 385 564 l 385 85 b 257 170 331 98 288 126 b 210 325 225 214 210 266 b 253 481 210 384 224 436 b 385 564 283 525 326 553 z m 385 -17 l 385 -108 l 451 -108 l 451 -17 b 574 13 495 -14 536 -4 b 675 88 613 29 646 54 l 594 164 b 451 83 558 114 511 87 l 451 567 b 593 488 507 561 554 535 l 679 564 b 576 638 650 596 615 621 b 451 667 538 655 496 665 l 451 758 l 385 758 l 385 663 b 265 628 341 658 301 646 b 173 556 229 609 198 585 b 114 452 147 526 128 491 b 93 325 100 413 93 370 b 114 197 93 279 100 236 b 173 93 128 157 147 123 b 265 20 198 63 229 39 b 385 -17 300 1 340 -11 z "},"£":{"ha":772,"x_min":0,"x_max":0,"o":"m 79 108 l 79 0 l 688 0 l 688 108 l 346 108 l 346 458 l 571 458 l 571 550 l 346 550 l 346 658 b 354 757 346 694 349 727 b 383 833 360 787 369 812 b 438 883 397 855 416 871 b 524 900 461 894 489 900 b 606 882 554 900 581 894 b 674 832 630 870 652 853 l 750 914 b 647 979 720 944 686 965 b 526 1000 608 993 568 1000 b 409 981 485 1000 446 994 b 315 922 372 969 341 949 b 252 816 288 894 267 859 b 229 661 237 773 229 721 l 229 550 l 96 550 l 96 458 l 229 458 l 229 108 z "},"¤":{"ha":772,"x_min":0,"x_max":0,"o":"m 147 492 b 166 587 147 525 153 557 b 217 666 178 617 196 643 b 294 719 239 689 265 706 b 386 739 323 732 354 739 b 478 719 419 739 449 732 b 555 666 508 706 533 689 b 606 587 577 643 594 617 b 625 492 619 557 625 525 b 606 399 625 459 619 428 b 555 319 594 369 577 343 b 478 265 533 296 508 278 b 386 244 449 251 419 244 b 294 265 354 244 323 251 b 217 319 265 278 239 296 b 166 399 196 343 178 369 b 147 492 153 428 147 459 z m 114 282 l 39 206 l 100 144 l 175 221 b 274 165 206 197 239 178 b 386 144 310 151 347 144 b 498 165 425 144 462 151 b 597 221 534 178 567 197 l 672 144 l 733 206 l 658 282 b 733 492 708 345 733 415 b 658 703 733 572 708 643 l 733 778 l 672 839 l 597 765 b 498 820 567 789 534 808 b 386 839 462 833 425 839 b 274 820 347 839 310 833 b 175 765 239 808 206 789 l 100 839 l 39 778 l 114 703 b 39 492 64 643 39 572 b 114 282 39 415 64 345 z "},"¥":{"ha":772,"x_min":0,"x_max":0,"o":"m 328 242 l 328 0 l 444 0 l 444 242 l 665 242 l 665 325 l 444 325 l 444 424 l 457 446 l 665 446 l 665 529 l 507 529 l 772 983 l 633 983 l 386 529 l 139 983 l 0 983 l 265 529 l 107 529 l 107 446 l 315 446 l 328 424 l 328 325 l 107 325 l 107 242 z "},"¦":{"ha":308,"x_min":0,"x_max":0,"o":"m 200 938 l 108 938 l 108 451 l 200 451 z m 200 243 l 108 243 l 108 -243 l 200 -243 z "},"§":{"ha":772,"x_min":0,"x_max":0,"o":"m 539 821 l 643 878 b 600 938 632 901 618 921 b 541 978 582 954 563 968 b 472 1001 519 988 496 996 b 400 1008 448 1006 424 1008 b 302 994 367 1008 334 1003 b 217 951 270 984 242 970 b 156 881 192 933 172 909 b 133 783 141 853 133 820 b 163 687 133 745 143 713 b 240 619 182 660 208 638 b 140 544 200 600 166 575 b 100 425 113 514 100 474 b 126 325 100 388 109 355 b 201 256 144 295 169 272 l 371 167 b 417 144 386 159 401 152 b 463 116 434 136 449 127 b 497 78 476 105 488 93 b 510 28 505 64 510 47 b 497 -30 510 6 506 -14 b 464 -70 489 -46 478 -59 b 416 -93 450 -81 434 -88 b 360 -100 398 -98 379 -100 b 251 -72 318 -100 282 -91 b 185 21 220 -53 198 -22 l 78 -29 b 187 -159 101 -88 137 -132 b 351 -200 236 -186 291 -200 b 456 -185 387 -200 421 -195 b 547 -142 490 -176 520 -161 b 610 -68 573 -122 594 -98 b 635 36 627 -38 635 -4 b 609 136 635 75 626 108 b 539 207 592 164 569 188 b 625 282 574 226 603 251 b 658 392 647 313 658 349 b 639 474 658 423 652 450 b 589 535 626 497 609 517 b 521 583 569 553 546 569 b 447 621 496 597 471 610 l 311 689 b 250 789 270 710 250 744 b 263 842 250 809 254 827 b 296 880 271 858 282 870 b 343 901 310 890 325 897 b 396 908 361 906 378 908 b 481 888 425 908 454 901 b 539 821 509 874 528 851 z m 451 254 l 328 314 b 285 335 314 320 300 327 b 247 361 271 342 258 351 b 219 396 236 371 227 383 b 208 443 212 409 208 425 b 219 488 208 461 212 476 b 247 521 227 501 236 512 b 285 544 258 530 271 538 b 326 563 299 551 313 557 l 407 522 b 453 498 422 515 437 507 b 496 467 469 489 483 479 b 528 426 509 455 520 441 b 542 375 537 412 542 394 b 514 302 542 348 532 324 b 451 254 495 280 475 264 z "},"¨":{"ha":333,"x_min":0,"x_max":0,"o":"m 29 950 b -24 928 8 950 -10 943 b -46 875 -39 913 -46 895 b -24 822 -46 854 -39 836 b 29 800 -10 807 8 800 b 83 822 50 800 68 807 b 104 875 97 836 104 854 b 83 928 104 895 97 913 b 29 950 68 943 50 950 z m 304 950 b 251 928 283 950 265 943 b 229 875 236 913 229 895 b 251 822 229 854 236 836 b 304 800 265 807 283 800 b 358 822 325 800 343 807 b 379 875 372 836 379 854 b 358 928 379 895 372 913 b 304 950 343 943 325 950 z "},"©":{"ha":1111,"x_min":0,"x_max":0,"o":"m 833 392 l 747 392 b 692 290 741 351 722 317 b 576 250 661 263 623 250 b 487 269 543 250 513 256 b 419 322 460 282 438 300 b 375 399 400 344 385 370 b 360 492 365 428 360 459 b 374 587 360 526 364 558 b 415 663 383 616 397 641 b 482 713 433 684 455 701 b 574 732 509 726 539 732 b 690 694 620 732 659 719 b 747 597 721 668 740 636 l 832 597 b 801 688 826 631 816 662 b 743 754 785 715 766 737 b 665 794 720 772 694 785 b 572 807 635 803 605 807 b 444 783 525 807 482 799 b 349 718 406 768 375 746 b 289 618 323 690 303 657 b 268 492 275 579 268 537 b 290 366 268 446 275 404 b 351 266 304 328 325 294 b 449 199 378 238 411 216 b 576 175 487 183 529 175 b 742 233 640 175 695 194 b 833 392 788 272 819 325 z m 39 492 b 80 286 39 418 53 349 b 192 123 107 223 144 169 b 356 15 239 77 294 41 b 556 -25 419 -12 485 -25 b 755 15 626 -25 692 -12 b 919 123 817 41 872 77 b 1031 286 967 169 1004 223 b 1072 492 1059 349 1072 418 b 1031 697 1072 565 1059 633 b 919 860 1004 760 967 815 b 755 969 872 906 817 942 b 556 1008 692 995 626 1008 b 356 969 485 1008 419 995 b 192 860 294 942 239 906 b 80 697 144 815 107 760 b 39 492 53 633 39 565 z m 131 492 b 164 666 131 554 142 612 b 254 806 186 720 216 767 b 389 899 292 846 337 877 b 556 933 441 922 496 933 b 722 899 615 933 670 922 b 856 806 773 877 818 846 b 947 666 895 767 925 720 b 981 492 969 612 981 554 b 947 317 981 429 969 370 b 856 177 925 263 895 216 b 722 84 818 138 773 107 b 556 50 670 61 615 50 b 389 84 496 50 441 61 b 254 177 337 107 292 138 b 164 317 216 216 186 263 b 131 492 142 370 131 429 z "},"ª":{"ha":468,"x_min":0,"x_max":0,"o":"m 417 657 l 417 835 b 374 959 417 890 403 932 b 232 1000 346 986 299 1000 b 142 985 201 1000 171 995 b 65 940 112 976 87 961 l 108 882 b 158 911 119 892 135 902 b 232 925 180 920 205 925 b 308 903 266 925 292 918 b 333 863 325 889 333 875 l 333 843 l 301 843 b 222 840 278 843 252 842 b 139 825 193 838 165 833 b 73 786 113 817 91 804 b 46 711 55 769 46 744 b 87 619 46 669 59 639 b 192 589 114 599 149 589 b 276 605 225 589 253 594 b 331 660 300 616 318 634 l 333 660 b 338 597 333 640 335 619 l 422 597 b 418 627 420 607 419 617 b 417 657 417 637 417 647 z m 267 776 l 333 776 l 333 753 b 303 693 333 732 323 713 b 217 664 284 674 255 664 b 160 676 194 664 175 668 b 138 713 145 685 138 697 b 151 749 138 728 142 741 b 185 769 161 758 172 765 b 228 776 199 773 213 775 b 267 776 243 776 256 776 z "},"«":{"ha":694,"x_min":0,"x_max":0,"o":"m 193 333 l 356 581 l 279 631 l 81 333 l 279 36 l 356 86 z m 451 333 l 614 581 l 538 631 l 339 333 l 538 36 l 614 86 z "},"¬":{"ha":925,"x_min":0,"x_max":0,"o":"m 100 575 l 100 483 l 733 483 l 733 189 l 825 189 l 825 575 z "},"­":{"ha":463,"x_min":0,"x_max":0,"o":"m 61 383 l 61 283 l 401 283 l 401 383 z "},"®":{"ha":1111,"x_min":0,"x_max":0,"o":"m 358 794 l 358 190 l 450 190 l 450 450 l 549 450 l 713 190 l 811 190 l 638 457 b 751 502 683 462 721 477 b 797 622 782 528 797 568 b 586 794 797 737 727 794 z m 450 525 l 450 719 l 571 719 b 618 717 587 719 602 719 b 661 704 634 715 648 711 b 693 676 674 698 685 688 b 706 626 701 663 706 647 b 692 569 706 602 701 583 b 656 539 682 556 670 545 b 604 527 641 532 624 528 b 544 525 585 526 565 525 z m 39 492 b 80 286 39 418 53 349 b 192 123 107 223 144 169 b 356 15 239 77 294 41 b 556 -25 419 -12 485 -25 b 755 15 626 -25 692 -12 b 919 123 817 41 872 77 b 1031 286 967 169 1004 223 b 1072 492 1059 349 1072 418 b 1031 697 1072 565 1059 633 b 919 860 1004 760 967 815 b 755 969 872 906 817 942 b 556 1008 692 995 626 1008 b 356 969 485 1008 419 995 b 192 860 294 942 239 906 b 80 697 144 815 107 760 b 39 492 53 633 39 565 z m 131 492 b 164 666 131 554 142 612 b 254 806 186 720 216 767 b 389 899 292 846 337 877 b 556 933 441 922 496 933 b 722 899 615 933 670 922 b 856 806 773 877 818 846 b 947 666 895 767 925 720 b 981 492 969 612 981 554 b 947 317 981 429 969 370 b 856 177 925 263 895 216 b 722 84 818 138 773 107 b 556 50 670 61 615 50 b 389 84 496 50 441 61 b 254 177 337 107 292 138 b 164 317 216 216 186 263 b 131 492 142 370 131 429 z "},"¯":{"ha":333,"x_min":0,"x_max":0,"o":"m 358 833 l 358 917 l -25 917 l -25 833 z "},"°":{"ha":556,"x_min":0,"x_max":0,"o":"m 79 801 b 94 724 79 774 84 748 b 137 660 105 700 119 678 b 200 618 155 642 176 628 b 278 603 224 608 250 603 b 356 618 306 603 331 608 b 419 660 380 628 401 642 b 461 724 437 678 451 700 b 476 801 471 748 476 774 b 461 879 476 829 471 855 b 419 942 451 903 437 924 b 356 985 401 960 380 975 b 278 1000 331 995 306 1000 b 200 985 250 1000 224 995 b 137 942 176 975 155 960 b 94 879 119 924 105 903 b 79 801 84 855 79 829 z m 154 801 b 163 844 154 815 157 830 b 188 885 169 859 178 873 b 227 914 199 897 212 906 b 278 925 242 921 259 925 b 328 914 296 925 313 921 b 367 885 344 906 357 897 b 392 844 378 873 386 859 b 401 801 398 830 401 815 b 392 758 401 788 398 773 b 367 718 386 744 378 730 b 328 689 357 706 344 696 b 278 678 313 681 296 678 b 227 689 259 678 242 681 b 188 718 212 696 199 706 b 163 758 178 730 169 744 b 154 801 157 773 154 788 z "},"±":{"ha":925,"x_min":0,"x_max":0,"o":"m 100 550 l 100 458 l 417 458 l 417 225 l 508 225 l 508 458 l 825 458 l 825 550 l 508 550 l 508 783 l 417 783 l 417 550 z m 100 150 l 100 58 l 825 58 l 825 150 z "},"²":{"ha":501,"x_min":0,"x_max":0,"o":"m 44 482 l 44 401 l 457 401 l 457 476 l 161 476 l 161 479 l 328 624 b 374 665 344 638 359 651 b 413 710 388 679 402 694 b 441 763 425 727 434 744 b 451 826 448 781 451 802 b 436 903 451 856 446 882 b 394 958 426 925 412 943 b 331 990 376 972 355 983 b 257 1000 308 997 283 1000 b 124 961 205 1000 161 987 b 57 839 88 935 65 894 l 144 832 b 184 900 150 861 163 883 b 260 925 205 917 230 925 b 330 899 287 925 310 916 b 360 826 350 881 360 857 b 338 754 360 797 353 773 b 278 692 324 736 304 715 z "},"³":{"ha":501,"x_min":0,"x_max":0,"o":"m 194 747 l 194 672 l 217 672 b 268 668 233 672 250 671 b 317 652 286 665 302 660 b 353 619 331 644 344 633 b 367 565 362 606 367 588 b 330 492 367 533 354 509 b 247 468 305 476 278 468 b 197 476 228 468 211 471 b 159 496 182 481 170 488 b 133 524 148 504 140 513 b 118 553 127 534 122 544 l 43 521 b 121 422 59 474 85 441 b 247 393 157 403 199 393 b 328 404 276 393 303 397 b 396 436 354 412 376 422 b 442 488 415 450 431 467 b 458 561 453 509 458 533 b 424 658 458 598 447 631 b 328 708 402 686 369 703 l 328 711 b 407 763 360 720 387 738 b 438 846 427 788 438 815 b 422 913 438 871 432 893 b 381 961 412 932 398 948 b 319 990 363 974 343 984 b 247 1000 296 997 272 1000 b 135 977 206 1000 168 992 b 58 901 101 962 76 937 l 135 867 b 181 913 146 889 161 904 b 247 925 201 921 223 925 b 317 906 274 925 297 919 b 346 843 336 894 346 873 b 333 792 346 822 341 805 b 299 764 324 780 313 770 b 257 751 286 757 272 753 b 218 747 242 748 229 747 z "},"´":{"ha":333,"x_min":0,"x_max":0,"o":"m 215 983 l 71 783 l 169 783 l 368 983 z "},"µ":{"ha":772,"x_min":0,"x_max":0,"o":"m 669 154 l 669 650 l 561 650 l 561 333 b 549 232 561 296 557 263 b 513 153 541 201 529 175 b 451 101 497 131 476 113 b 360 83 425 89 395 83 b 247 131 309 83 271 99 b 211 260 223 162 211 205 l 211 650 l 103 650 l 103 -317 l 211 -317 l 211 18 b 274 -9 232 5 253 -4 b 350 -17 295 -14 320 -17 b 425 -6 377 -17 402 -13 b 488 22 448 1 469 10 b 535 61 506 33 522 46 b 567 107 549 76 559 91 l 569 107 b 571 53 569 88 570 70 b 572 0 572 35 572 18 l 675 0 b 672 71 675 21 674 45 b 669 154 670 97 669 125 z "},"¶":{"ha":833,"x_min":0,"x_max":0,"o":"m 406 439 l 406 -175 l 506 -175 l 506 892 l 669 892 l 669 -175 l 769 -175 l 769 983 l 432 983 b 200 908 334 983 256 958 b 115 697 144 858 115 788 b 137 596 115 661 122 627 b 197 514 151 564 171 537 b 288 459 222 491 253 472 b 406 439 324 446 363 439 z "},"·":{"ha":386,"x_min":0,"x_max":0,"o":"m 193 513 b 134 488 170 513 150 504 b 110 429 118 472 110 452 b 135 370 110 406 118 386 b 193 346 153 354 172 346 b 251 370 214 346 234 354 b 276 429 268 386 276 406 b 252 488 276 452 268 472 b 193 513 236 504 216 513 z "},"¸":{"ha":333,"x_min":0,"x_max":0,"o":"m 157 -89 l 219 0 l 157 0 l 71 -118 l 99 -144 b 125 -137 107 -142 116 -139 b 153 -133 134 -134 144 -133 b 201 -145 169 -133 184 -137 b 225 -186 217 -153 225 -167 b 217 -214 225 -197 222 -206 b 196 -231 211 -221 204 -227 b 169 -240 188 -235 178 -238 b 140 -243 159 -242 150 -243 b 40 -221 106 -243 73 -236 l 17 -272 b 83 -294 38 -282 60 -290 b 154 -301 106 -299 130 -301 b 211 -295 173 -301 192 -299 b 264 -274 231 -291 248 -284 b 302 -236 280 -265 292 -252 b 317 -179 312 -220 317 -201 b 306 -136 317 -162 313 -148 b 279 -106 299 -124 290 -114 b 243 -89 268 -98 256 -93 b 206 -83 230 -85 218 -83 b 178 -85 194 -83 185 -84 b 157 -89 170 -87 163 -88 z "},"¹":{"ha":501,"x_min":0,"x_max":0,"o":"m 240 890 l 240 401 l 332 401 l 332 992 l 251 992 l 79 863 l 125 799 l 238 890 z "},"º":{"ha":536,"x_min":0,"x_max":0,"o":"m 42 796 b 58 710 42 764 47 736 b 106 645 69 685 85 663 b 178 603 126 627 150 613 b 268 589 206 594 236 589 b 358 603 300 589 331 594 b 430 645 386 613 410 627 b 477 710 450 663 466 685 b 494 796 489 736 494 764 b 477 879 494 826 489 854 b 430 944 466 904 450 926 b 358 985 410 962 386 976 b 268 1000 331 995 300 1000 b 178 985 236 1000 206 995 b 106 944 150 976 126 962 b 58 879 85 926 69 904 b 42 796 47 854 42 826 z m 133 796 b 142 844 133 813 136 828 b 169 885 148 859 157 873 b 212 914 181 897 196 906 b 268 925 228 921 247 925 b 324 914 288 925 307 921 b 367 885 340 906 355 897 b 394 844 379 873 388 859 b 403 796 400 828 403 813 b 394 747 403 779 400 763 b 367 704 388 730 379 716 b 324 675 355 692 340 682 b 268 664 307 668 288 664 b 212 675 247 664 228 668 b 169 704 196 682 181 692 b 142 746 157 716 148 730 b 133 796 136 762 133 778 z "},"»":{"ha":694,"x_min":0,"x_max":0,"o":"m 243 333 l 81 86 l 157 36 l 356 333 l 157 631 l 81 581 z m 501 333 l 339 86 l 415 36 l 614 333 l 415 631 l 339 581 z "},"¼":{"ha":1158,"x_min":0,"x_max":0,"o":"m 824 1028 l 207 0 l 283 -44 l 900 983 z m 215 892 l 215 401 l 307 401 l 307 992 l 226 992 l 54 863 l 100 799 l 213 892 z m 1026 200 l 1026 590 l 918 590 l 664 213 l 664 125 l 935 125 l 935 0 l 1026 0 l 1026 125 l 1104 125 l 1104 200 z m 935 482 l 935 200 l 747 200 l 932 482 z "},"½":{"ha":1158,"x_min":0,"x_max":0,"o":"m 800 1028 l 183 0 l 260 -44 l 876 983 z m 207 892 l 207 401 l 299 401 l 299 992 l 218 992 l 46 863 l 92 799 l 204 892 z m 700 81 l 700 0 l 1113 0 l 1113 75 l 817 75 l 817 78 l 983 222 b 1029 264 999 236 1014 250 b 1069 309 1044 278 1057 293 b 1097 361 1080 325 1090 343 b 1107 425 1103 380 1107 401 b 1092 502 1107 455 1102 480 b 1049 556 1081 524 1067 542 b 987 588 1031 571 1010 581 b 913 599 963 595 938 599 b 780 560 861 599 816 586 b 713 438 743 534 721 493 l 800 431 b 840 499 806 459 819 482 b 915 524 860 515 886 524 b 985 497 942 524 966 515 b 1015 425 1005 480 1015 456 b 994 353 1015 395 1008 371 b 933 290 979 334 959 313 z "},"¾":{"ha":1158,"x_min":0,"x_max":0,"o":"m 878 1028 l 261 0 l 338 -44 l 954 983 z m 188 747 l 188 672 l 210 672 b 261 668 226 672 244 671 b 310 652 279 665 295 660 b 346 619 325 644 337 633 b 360 565 355 606 360 588 b 323 492 360 533 347 509 b 240 468 298 476 271 468 b 190 476 221 468 204 471 b 152 496 175 481 163 488 b 126 524 141 504 133 513 b 111 553 120 534 115 544 l 35 521 b 113 422 50 474 77 441 b 240 393 150 403 192 393 b 322 404 269 393 296 397 b 389 436 347 412 369 422 b 435 488 408 450 424 467 b 451 561 446 509 451 533 b 417 658 451 598 440 631 b 321 708 395 686 363 703 l 321 711 b 400 763 353 720 380 738 b 431 846 420 788 431 815 b 415 913 431 871 425 893 b 374 961 405 932 391 948 b 313 990 356 974 336 984 b 240 1000 289 997 265 1000 b 128 977 199 1000 161 992 b 51 901 94 962 69 937 l 128 867 b 174 913 139 889 154 904 b 240 925 194 921 216 925 b 310 906 267 925 290 919 b 339 843 329 894 339 873 b 325 792 339 822 334 805 b 292 764 316 780 305 770 b 250 751 279 757 265 753 b 210 747 235 748 222 747 z m 1046 200 l 1046 590 l 938 590 l 683 213 l 683 125 l 954 125 l 954 0 l 1046 0 l 1046 125 l 1124 125 l 1124 200 z m 954 482 l 954 200 l 767 200 l 767 203 l 951 482 z "},"¿":{"ha":669,"x_min":0,"x_max":0,"o":"m 632 -96 l 507 -82 b 452 -192 500 -127 481 -164 b 338 -233 423 -219 385 -233 b 229 -191 291 -233 255 -219 b 190 -82 203 -163 190 -126 b 201 -22 190 -60 194 -40 b 230 28 209 -5 218 12 b 269 73 241 44 254 59 b 311 117 283 87 297 102 b 356 163 329 134 344 150 b 386 203 369 177 379 190 b 402 249 394 217 399 232 b 407 313 405 265 407 287 l 407 400 l 290 400 l 290 336 b 288 287 290 317 290 300 b 279 250 287 273 284 261 b 259 218 275 239 268 228 b 224 182 250 208 238 196 b 163 124 202 163 182 143 b 113 65 144 105 128 85 b 78 -3 99 44 87 21 b 65 -86 70 -28 65 -56 b 86 -192 65 -126 72 -161 b 144 -270 100 -223 119 -249 b 230 -317 168 -291 197 -307 b 336 -333 263 -328 298 -333 b 443 -317 374 -333 410 -328 b 532 -272 476 -307 506 -291 b 597 -197 558 -252 579 -227 b 632 -96 614 -168 625 -134 z m 349 517 b 408 541 372 517 391 525 b 432 600 424 557 432 577 b 406 659 432 623 423 643 b 349 683 389 675 370 683 b 291 659 327 683 308 675 b 265 600 274 643 265 623 b 290 541 265 577 273 557 b 349 517 306 525 325 517 z "},"À":{"ha":978,"x_min":0,"x_max":0,"o":"m 442 983 l 8 0 l 140 0 l 242 242 l 733 242 l 833 0 l 969 0 l 551 983 z m 494 833 l 689 350 l 288 350 l 492 833 z m 585 1053 l 440 1253 l 288 1253 l 486 1053 z "},"Á":{"ha":978,"x_min":0,"x_max":0,"o":"m 442 983 l 8 0 l 140 0 l 242 242 l 733 242 l 833 0 l 969 0 l 551 983 z m 494 833 l 689 350 l 288 350 l 492 833 z m 538 1253 l 393 1053 l 492 1053 l 690 1253 z "},"Â":{"ha":978,"x_min":0,"x_max":0,"o":"m 442 983 l 8 0 l 140 0 l 242 242 l 733 242 l 833 0 l 969 0 l 551 983 z m 494 833 l 689 350 l 288 350 l 492 833 z m 425 1253 l 271 1053 l 376 1053 l 485 1194 l 594 1053 l 707 1053 l 551 1253 z "},"Ã":{"ha":978,"x_min":0,"x_max":0,"o":"m 442 983 l 8 0 l 140 0 l 242 242 l 733 242 l 833 0 l 969 0 l 551 983 z m 494 833 l 689 350 l 288 350 l 492 833 z m 257 1069 l 324 1069 b 346 1112 328 1085 336 1099 b 388 1131 356 1124 370 1131 b 435 1122 403 1131 419 1128 b 479 1104 450 1116 465 1110 b 534 1084 497 1097 515 1090 b 592 1075 553 1078 572 1075 b 644 1088 612 1075 630 1079 b 683 1121 659 1096 672 1107 b 708 1167 693 1135 702 1150 b 721 1219 714 1184 718 1202 l 654 1219 b 631 1176 650 1203 642 1188 b 588 1158 621 1164 606 1158 b 549 1166 573 1158 560 1161 b 513 1182 539 1171 526 1176 b 456 1203 494 1189 475 1197 b 396 1214 437 1210 417 1214 b 340 1201 375 1214 356 1210 b 299 1169 325 1193 311 1182 b 272 1122 288 1155 278 1140 b 257 1069 265 1105 260 1087 z "},"Ä":{"ha":978,"x_min":0,"x_max":0,"o":"m 442 983 l 8 0 l 140 0 l 242 242 l 733 242 l 833 0 l 969 0 l 551 983 z m 494 833 l 689 350 l 288 350 l 492 833 z m 351 1219 b 298 1197 330 1219 312 1212 b 276 1144 284 1182 276 1165 b 298 1091 276 1123 284 1105 b 351 1069 312 1077 330 1069 b 405 1091 373 1069 391 1077 b 426 1144 419 1105 426 1123 b 405 1197 426 1165 419 1182 b 351 1219 391 1212 373 1219 z m 626 1219 b 573 1197 605 1219 587 1212 b 551 1144 559 1182 551 1165 b 573 1091 551 1123 559 1105 b 626 1069 587 1077 605 1069 b 680 1091 648 1069 666 1077 b 701 1144 694 1105 701 1123 b 680 1197 701 1165 694 1182 b 626 1219 666 1212 648 1219 z "},"Å":{"ha":978,"x_min":0,"x_max":0,"o":"m 442 983 l 8 0 l 140 0 l 242 242 l 733 242 l 833 0 l 969 0 l 551 983 z m 494 833 l 689 350 l 288 350 l 492 833 z m 351 1151 b 390 1053 351 1113 364 1080 b 489 1014 416 1027 449 1014 b 588 1053 529 1014 562 1027 b 626 1151 613 1080 626 1113 b 589 1248 626 1188 614 1221 b 489 1289 564 1275 531 1289 b 434 1278 469 1289 451 1285 b 390 1248 417 1270 402 1260 b 362 1204 378 1235 369 1221 b 351 1151 355 1188 351 1170 z m 410 1151 b 434 1208 410 1174 418 1192 b 489 1231 450 1223 469 1231 b 544 1208 509 1231 528 1223 b 568 1151 560 1192 568 1174 b 544 1094 568 1128 560 1109 b 489 1072 528 1080 509 1072 b 434 1094 469 1072 450 1080 b 410 1151 418 1109 410 1128 z "},"Æ":{"ha":1311,"x_min":0,"x_max":0,"o":"m 625 983 l -14 0 l 126 0 l 297 267 l 704 267 l 704 0 l 1246 0 l 1246 108 l 821 108 l 821 458 l 1204 458 l 1204 567 l 821 567 l 821 875 l 1229 875 l 1229 983 z m 704 875 l 704 375 l 367 375 l 688 875 z "},"Ç":{"ha":978,"x_min":0,"x_max":0,"o":"m 811 781 l 913 854 b 758 972 871 909 819 948 b 565 1008 696 996 632 1008 b 364 968 492 1008 425 995 b 206 858 303 941 250 905 b 102 694 161 812 127 757 b 65 492 78 631 65 564 b 99 298 65 422 76 358 b 191 141 121 238 152 186 b 331 31 230 96 277 59 b 506 -21 384 3 443 -14 l 435 -118 l 463 -144 b 489 -137 471 -142 480 -139 b 517 -133 498 -134 507 -133 b 565 -145 532 -133 548 -137 b 589 -186 581 -153 589 -167 b 581 -214 589 -197 586 -206 b 560 -231 575 -221 568 -227 b 533 -240 551 -235 542 -238 b 504 -243 523 -242 513 -243 b 404 -221 470 -243 437 -236 l 381 -272 b 447 -294 402 -282 424 -290 b 518 -301 470 -299 494 -301 b 575 -295 537 -301 556 -299 b 628 -274 594 -291 612 -284 b 666 -236 644 -265 656 -252 b 681 -179 676 -220 681 -201 b 670 -136 681 -162 677 -148 b 643 -106 663 -124 654 -114 b 607 -89 632 -98 620 -93 b 569 -83 594 -85 581 -83 b 542 -85 558 -83 549 -84 b 521 -89 534 -87 527 -88 l 565 -25 b 777 17 644 -25 715 -11 b 938 147 840 44 893 88 l 850 221 b 726 119 815 176 774 142 b 565 83 679 95 625 83 b 413 115 510 83 459 94 b 295 202 367 137 328 166 b 218 331 262 239 237 282 b 190 492 200 381 190 434 b 218 647 190 545 200 597 b 296 777 237 696 263 740 b 415 867 329 815 369 844 b 565 900 460 889 511 900 b 701 870 613 900 658 890 b 811 781 745 850 781 820 z "},"È":{"ha":824,"x_min":0,"x_max":0,"o":"m 122 983 l 122 0 l 765 0 l 765 108 l 239 108 l 239 458 l 707 458 l 707 567 l 239 567 l 239 875 l 740 875 l 740 983 z m 508 1053 l 364 1253 l 211 1253 l 410 1053 z "},"É":{"ha":824,"x_min":0,"x_max":0,"o":"m 122 983 l 122 0 l 765 0 l 765 108 l 239 108 l 239 458 l 707 458 l 707 567 l 239 567 l 239 875 l 740 875 l 740 983 z m 461 1253 l 317 1053 l 415 1053 l 614 1253 z "},"Ê":{"ha":824,"x_min":0,"x_max":0,"o":"m 122 983 l 122 0 l 765 0 l 765 108 l 239 108 l 239 458 l 707 458 l 707 567 l 239 567 l 239 875 l 740 875 l 740 983 z m 349 1253 l 194 1053 l 300 1053 l 408 1194 l 518 1053 l 631 1053 l 475 1253 z "},"Ë":{"ha":824,"x_min":0,"x_max":0,"o":"m 122 983 l 122 0 l 765 0 l 765 108 l 239 108 l 239 458 l 707 458 l 707 567 l 239 567 l 239 875 l 740 875 l 740 983 z m 275 1219 b 222 1197 254 1219 236 1212 b 200 1144 207 1182 200 1165 b 222 1091 200 1123 207 1105 b 275 1069 236 1077 254 1069 b 328 1091 296 1069 314 1077 b 350 1144 343 1105 350 1123 b 328 1197 350 1165 343 1182 b 275 1219 314 1212 296 1219 z m 550 1219 b 497 1197 529 1219 511 1212 b 475 1144 482 1182 475 1165 b 497 1091 475 1123 482 1105 b 550 1069 511 1077 529 1069 b 603 1091 571 1069 589 1077 b 625 1144 618 1105 625 1123 b 603 1197 625 1165 618 1182 b 550 1219 589 1212 571 1219 z "},"Ì":{"ha":361,"x_min":0,"x_max":0,"o":"m 122 983 l 122 0 l 239 0 l 239 983 z m 276 1053 l 132 1253 l -21 1253 l 178 1053 z "},"Í":{"ha":361,"x_min":0,"x_max":0,"o":"m 122 983 l 122 0 l 239 0 l 239 983 z m 229 1253 l 85 1053 l 183 1053 l 382 1253 z "},"Î":{"ha":361,"x_min":0,"x_max":0,"o":"m 122 983 l 122 0 l 239 0 l 239 983 z m 117 1253 l -37 1053 l 68 1053 l 176 1194 l 286 1053 l 399 1053 l 243 1253 z "},"Ï":{"ha":361,"x_min":0,"x_max":0,"o":"m 122 983 l 122 0 l 239 0 l 239 983 z m 43 1219 b -10 1197 22 1219 4 1212 b -32 1144 -25 1182 -32 1165 b -10 1091 -32 1123 -25 1105 b 43 1069 4 1077 22 1069 b 97 1091 64 1069 82 1077 b 118 1144 111 1105 118 1123 b 97 1197 118 1165 111 1182 b 43 1219 82 1212 64 1219 z m 318 1219 b 265 1197 297 1219 279 1212 b 243 1144 250 1182 243 1165 b 265 1091 243 1123 250 1105 b 318 1069 279 1077 297 1069 b 372 1091 339 1069 357 1077 b 393 1144 386 1105 393 1123 b 372 1197 393 1165 386 1182 b 318 1219 357 1212 339 1219 z "},"Ð":{"ha":1029,"x_min":0,"x_max":0,"o":"m 104 983 l 104 558 l 4 558 l 4 467 l 104 467 l 104 0 l 482 0 b 585 11 514 0 549 4 b 692 47 621 19 657 30 b 795 110 728 63 762 84 b 882 203 828 136 857 167 b 942 330 907 240 927 282 b 964 492 956 378 964 431 b 942 653 964 552 956 606 b 882 780 927 701 907 743 b 795 874 857 816 828 848 b 692 937 762 900 728 921 b 585 972 657 953 621 965 b 482 983 549 980 514 983 z m 221 558 l 221 875 l 443 875 b 600 853 500 875 552 868 b 725 784 648 838 690 815 b 808 665 760 753 788 713 b 839 492 829 617 839 559 b 808 318 839 424 829 366 b 725 199 788 270 760 230 b 600 131 690 168 648 145 b 443 108 552 116 500 108 l 221 108 l 221 467 l 571 467 l 571 558 z "},"Ñ":{"ha":1081,"x_min":0,"x_max":0,"o":"m 122 983 l 122 0 l 239 0 l 239 817 l 242 817 l 811 0 l 958 0 l 958 983 l 842 983 l 842 167 l 839 167 l 269 983 z m 308 1069 l 375 1069 b 397 1112 380 1085 387 1099 b 439 1131 407 1124 421 1131 b 486 1122 455 1131 470 1128 b 531 1104 502 1116 517 1110 b 585 1084 548 1097 566 1090 b 643 1075 604 1078 624 1075 b 696 1088 663 1075 681 1079 b 734 1121 711 1096 723 1107 b 759 1167 745 1135 753 1150 b 772 1219 765 1184 769 1202 l 706 1219 b 683 1176 701 1203 693 1188 b 639 1158 672 1164 657 1158 b 601 1166 624 1158 611 1161 b 564 1182 590 1171 578 1176 b 508 1203 545 1189 527 1197 b 447 1214 489 1210 469 1214 b 392 1201 426 1214 407 1210 b 351 1169 376 1193 362 1182 b 323 1122 339 1155 330 1140 b 308 1069 316 1105 311 1087 z "},"Ò":{"ha":1158,"x_min":0,"x_max":0,"o":"m 579 -25 b 785 14 654 -25 723 -12 b 948 122 848 40 902 76 b 1055 285 994 167 1029 222 b 1093 492 1080 349 1093 418 b 1055 698 1093 566 1080 634 b 948 862 1029 761 994 816 b 785 969 902 908 848 944 b 579 1008 723 995 654 1008 b 373 969 504 1008 435 995 b 210 862 310 944 256 908 b 103 698 165 816 129 761 b 65 492 78 634 65 566 b 103 285 65 418 78 349 b 210 122 129 222 165 167 b 373 14 256 76 310 40 b 579 -25 435 -12 504 -25 z m 579 83 b 422 115 522 83 469 94 b 299 203 374 137 333 166 b 219 333 264 240 238 283 b 190 492 200 382 190 435 b 219 651 190 548 200 601 b 299 781 238 700 264 744 b 422 868 333 818 374 847 b 579 900 469 889 522 900 b 737 868 637 900 689 889 b 860 781 784 847 825 818 b 940 651 894 744 921 700 b 968 492 959 601 968 548 b 940 333 968 435 959 382 b 860 203 921 283 894 240 b 737 115 825 166 784 137 b 579 83 689 94 637 83 z m 675 1053 l 531 1253 l 378 1253 l 576 1053 z "},"Ó":{"ha":1158,"x_min":0,"x_max":0,"o":"m 579 -25 b 785 14 654 -25 723 -12 b 948 122 848 40 902 76 b 1055 285 994 167 1029 222 b 1093 492 1080 349 1093 418 b 1055 698 1093 566 1080 634 b 948 862 1029 761 994 816 b 785 969 902 908 848 944 b 579 1008 723 995 654 1008 b 373 969 504 1008 435 995 b 210 862 310 944 256 908 b 103 698 165 816 129 761 b 65 492 78 634 65 566 b 103 285 65 418 78 349 b 210 122 129 222 165 167 b 373 14 256 76 310 40 b 579 -25 435 -12 504 -25 z m 579 83 b 422 115 522 83 469 94 b 299 203 374 137 333 166 b 219 333 264 240 238 283 b 190 492 200 382 190 435 b 219 651 190 548 200 601 b 299 781 238 700 264 744 b 422 868 333 818 374 847 b 579 900 469 889 522 900 b 737 868 637 900 689 889 b 860 781 784 847 825 818 b 940 651 894 744 921 700 b 968 492 959 601 968 548 b 940 333 968 435 959 382 b 860 203 921 283 894 240 b 737 115 825 166 784 137 b 579 83 689 94 637 83 z m 628 1253 l 483 1053 l 582 1053 l 781 1253 z "},"Ô":{"ha":1158,"x_min":0,"x_max":0,"o":"m 579 -25 b 785 14 654 -25 723 -12 b 948 122 848 40 902 76 b 1055 285 994 167 1029 222 b 1093 492 1080 349 1093 418 b 1055 698 1093 566 1080 634 b 948 862 1029 761 994 816 b 785 969 902 908 848 944 b 579 1008 723 995 654 1008 b 373 969 504 1008 435 995 b 210 862 310 944 256 908 b 103 698 165 816 129 761 b 65 492 78 634 65 566 b 103 285 65 418 78 349 b 210 122 129 222 165 167 b 373 14 256 76 310 40 b 579 -25 435 -12 504 -25 z m 579 83 b 422 115 522 83 469 94 b 299 203 374 137 333 166 b 219 333 264 240 238 283 b 190 492 200 382 190 435 b 219 651 190 548 200 601 b 299 781 238 700 264 744 b 422 868 333 818 374 847 b 579 900 469 889 522 900 b 737 868 637 900 689 889 b 860 781 784 847 825 818 b 940 651 894 744 921 700 b 968 492 959 601 968 548 b 940 333 968 435 959 382 b 860 203 921 283 894 240 b 737 115 825 166 784 137 b 579 83 689 94 637 83 z m 515 1253 l 361 1053 l 467 1053 l 575 1194 l 685 1053 l 797 1053 l 642 1253 z "},"Õ":{"ha":1158,"x_min":0,"x_max":0,"o":"m 579 -25 b 785 14 654 -25 723 -12 b 948 122 848 40 902 76 b 1055 285 994 167 1029 222 b 1093 492 1080 349 1093 418 b 1055 698 1093 566 1080 634 b 948 862 1029 761 994 816 b 785 969 902 908 848 944 b 579 1008 723 995 654 1008 b 373 969 504 1008 435 995 b 210 862 310 944 256 908 b 103 698 165 816 129 761 b 65 492 78 634 65 566 b 103 285 65 418 78 349 b 210 122 129 222 165 167 b 373 14 256 76 310 40 b 579 -25 435 -12 504 -25 z m 579 83 b 422 115 522 83 469 94 b 299 203 374 137 333 166 b 219 333 264 240 238 283 b 190 492 200 382 190 435 b 219 651 190 548 200 601 b 299 781 238 700 264 744 b 422 868 333 818 374 847 b 579 900 469 889 522 900 b 737 868 637 900 689 889 b 860 781 784 847 825 818 b 940 651 894 744 921 700 b 968 492 959 601 968 548 b 940 333 968 435 959 382 b 860 203 921 283 894 240 b 737 115 825 166 784 137 b 579 83 689 94 637 83 z m 347 1069 l 414 1069 b 436 1112 419 1085 426 1099 b 478 1131 446 1124 460 1131 b 525 1122 494 1131 509 1128 b 569 1104 541 1116 556 1110 b 624 1084 587 1097 605 1090 b 682 1075 643 1078 663 1075 b 735 1088 702 1075 720 1079 b 773 1121 750 1096 762 1107 b 798 1167 784 1135 792 1150 b 811 1219 804 1184 808 1202 l 744 1219 b 722 1176 740 1203 732 1188 b 678 1158 711 1164 696 1158 b 640 1166 663 1158 650 1161 b 603 1182 629 1171 617 1176 b 547 1203 584 1189 566 1197 b 486 1214 528 1210 507 1214 b 431 1201 465 1214 446 1210 b 390 1169 415 1193 401 1182 b 362 1122 378 1155 369 1140 b 347 1069 355 1105 350 1087 z "},"Ö":{"ha":1158,"x_min":0,"x_max":0,"o":"m 579 -25 b 785 14 654 -25 723 -12 b 948 122 848 40 902 76 b 1055 285 994 167 1029 222 b 1093 492 1080 349 1093 418 b 1055 698 1093 566 1080 634 b 948 862 1029 761 994 816 b 785 969 902 908 848 944 b 579 1008 723 995 654 1008 b 373 969 504 1008 435 995 b 210 862 310 944 256 908 b 103 698 165 816 129 761 b 65 492 78 634 65 566 b 103 285 65 418 78 349 b 210 122 129 222 165 167 b 373 14 256 76 310 40 b 579 -25 435 -12 504 -25 z m 579 83 b 422 115 522 83 469 94 b 299 203 374 137 333 166 b 219 333 264 240 238 283 b 190 492 200 382 190 435 b 219 651 190 548 200 601 b 299 781 238 700 264 744 b 422 868 333 818 374 847 b 579 900 469 889 522 900 b 737 868 637 900 689 889 b 860 781 784 847 825 818 b 940 651 894 744 921 700 b 968 492 959 601 968 548 b 940 333 968 435 959 382 b 860 203 921 283 894 240 b 737 115 825 166 784 137 b 579 83 689 94 637 83 z m 442 1219 b 388 1197 420 1219 403 1212 b 367 1144 374 1182 367 1165 b 388 1091 367 1123 374 1105 b 442 1069 403 1077 420 1069 b 495 1091 463 1069 481 1077 b 517 1144 509 1105 517 1123 b 495 1197 517 1165 509 1182 b 442 1219 481 1212 463 1219 z m 717 1219 b 663 1197 695 1219 678 1212 b 642 1144 649 1182 642 1165 b 663 1091 642 1123 649 1105 b 717 1069 678 1077 695 1069 b 770 1091 738 1069 756 1077 b 792 1144 784 1105 792 1123 b 770 1197 792 1165 784 1182 b 717 1219 756 1212 738 1219 z "},"×":{"ha":925,"x_min":0,"x_max":0,"o":"m 463 488 l 196 756 l 128 688 l 396 421 l 128 151 l 194 86 l 463 356 l 731 86 l 797 154 l 528 421 l 797 690 l 731 756 z "},"Ø":{"ha":1158,"x_min":0,"x_max":0,"o":"m 332 172 l 875 764 b 944 640 905 728 928 687 b 968 492 960 594 968 544 b 940 333 968 435 959 382 b 860 203 921 283 894 240 b 737 115 825 166 784 137 b 579 83 689 94 637 83 b 443 107 530 83 485 91 b 332 172 401 123 364 144 z m 819 818 l 278 228 b 213 348 250 263 228 303 b 190 492 198 393 190 441 b 219 651 190 548 200 601 b 299 781 238 700 264 744 b 422 868 333 818 374 847 b 579 900 469 889 522 900 b 710 878 626 900 670 893 b 819 818 751 864 787 844 z m 196 138 l 83 15 l 139 -37 l 251 85 b 399 3 295 50 344 22 b 579 -25 454 -16 514 -25 b 785 14 654 -25 723 -12 b 948 122 848 40 902 76 b 1055 285 994 167 1029 222 b 1093 492 1080 349 1093 418 b 1057 692 1093 564 1081 631 b 957 853 1033 754 1000 807 l 1067 972 l 1008 1025 l 899 904 b 752 981 854 938 805 963 b 579 1008 699 999 641 1008 b 373 969 504 1008 435 995 b 210 862 310 944 256 908 b 103 698 165 816 129 761 b 65 492 78 634 65 566 b 99 297 65 421 77 356 b 196 138 122 237 154 184 z "},"Ù":{"ha":978,"x_min":0,"x_max":0,"o":"m 860 375 l 860 983 l 743 983 l 743 392 b 731 276 743 352 739 313 b 689 178 722 239 708 206 b 611 109 669 149 644 126 b 489 83 579 92 538 83 b 367 109 440 83 399 92 b 289 178 334 126 308 149 b 247 276 269 206 256 239 b 235 392 239 313 235 352 l 235 983 l 118 983 l 118 375 b 138 222 118 321 125 270 b 202 95 152 174 173 132 b 317 8 231 59 269 29 b 489 -25 364 -14 421 -25 b 661 8 556 -25 614 -14 b 776 95 708 29 747 59 b 840 222 805 132 826 174 b 860 375 853 270 860 321 z m 585 1053 l 440 1253 l 288 1253 l 486 1053 z "},"Ú":{"ha":978,"x_min":0,"x_max":0,"o":"m 860 375 l 860 983 l 743 983 l 743 392 b 731 276 743 352 739 313 b 689 178 722 239 708 206 b 611 109 669 149 644 126 b 489 83 579 92 538 83 b 367 109 440 83 399 92 b 289 178 334 126 308 149 b 247 276 269 206 256 239 b 235 392 239 313 235 352 l 235 983 l 118 983 l 118 375 b 138 222 118 321 125 270 b 202 95 152 174 173 132 b 317 8 231 59 269 29 b 489 -25 364 -14 421 -25 b 661 8 556 -25 614 -14 b 776 95 708 29 747 59 b 840 222 805 132 826 174 b 860 375 853 270 860 321 z m 538 1253 l 393 1053 l 492 1053 l 690 1253 z "},"Û":{"ha":978,"x_min":0,"x_max":0,"o":"m 860 375 l 860 983 l 743 983 l 743 392 b 731 276 743 352 739 313 b 689 178 722 239 708 206 b 611 109 669 149 644 126 b 489 83 579 92 538 83 b 367 109 440 83 399 92 b 289 178 334 126 308 149 b 247 276 269 206 256 239 b 235 392 239 313 235 352 l 235 983 l 118 983 l 118 375 b 138 222 118 321 125 270 b 202 95 152 174 173 132 b 317 8 231 59 269 29 b 489 -25 364 -14 421 -25 b 661 8 556 -25 614 -14 b 776 95 708 29 747 59 b 840 222 805 132 826 174 b 860 375 853 270 860 321 z m 425 1253 l 271 1053 l 376 1053 l 485 1194 l 594 1053 l 707 1053 l 551 1253 z "},"Ü":{"ha":978,"x_min":0,"x_max":0,"o":"m 860 375 l 860 983 l 743 983 l 743 392 b 731 276 743 352 739 313 b 689 178 722 239 708 206 b 611 109 669 149 644 126 b 489 83 579 92 538 83 b 367 109 440 83 399 92 b 289 178 334 126 308 149 b 247 276 269 206 256 239 b 235 392 239 313 235 352 l 235 983 l 118 983 l 118 375 b 138 222 118 321 125 270 b 202 95 152 174 173 132 b 317 8 231 59 269 29 b 489 -25 364 -14 421 -25 b 661 8 556 -25 614 -14 b 776 95 708 29 747 59 b 840 222 805 132 826 174 b 860 375 853 270 860 321 z m 351 1219 b 298 1197 330 1219 312 1212 b 276 1144 284 1182 276 1165 b 298 1091 276 1123 284 1105 b 351 1069 312 1077 330 1069 b 405 1091 373 1069 391 1077 b 426 1144 419 1105 426 1123 b 405 1197 426 1165 419 1182 b 351 1219 391 1212 373 1219 z m 626 1219 b 573 1197 605 1219 587 1212 b 551 1144 559 1182 551 1165 b 573 1091 551 1123 559 1105 b 626 1069 587 1077 605 1069 b 680 1091 648 1069 666 1077 b 701 1144 694 1105 701 1123 b 680 1197 701 1165 694 1182 b 626 1219 666 1212 648 1219 z "},"Ý":{"ha":825,"x_min":0,"x_max":0,"o":"m 354 424 l 354 0 l 471 0 l 471 424 l 838 983 l 697 983 l 413 539 l 136 983 l -12 983 z m 461 1253 l 317 1053 l 415 1053 l 614 1253 z "},"Þ":{"ha":824,"x_min":0,"x_max":0,"o":"m 122 983 l 122 0 l 239 0 l 239 268 l 436 268 b 544 281 470 268 506 272 b 649 324 582 289 617 303 b 728 407 681 344 707 372 b 758 540 748 442 758 487 b 730 669 758 591 749 634 b 653 752 711 703 685 731 b 544 797 622 773 585 788 b 414 810 503 805 459 810 l 239 810 l 239 983 z m 239 376 l 239 701 l 436 701 b 578 662 494 701 542 688 b 633 539 615 635 633 594 b 578 416 633 483 615 442 b 436 376 542 390 494 376 z "},"ß":{"ha":824,"x_min":0,"x_max":0,"o":"m 103 750 l 103 0 l 211 0 l 211 740 b 220 826 211 770 214 798 b 251 898 226 853 236 877 b 309 948 265 919 284 935 b 401 967 334 960 364 967 b 522 924 450 967 490 953 b 571 807 555 896 571 857 b 522 685 571 755 555 714 b 399 640 490 655 449 640 l 368 640 l 368 549 l 400 549 b 499 533 436 549 469 543 b 577 486 529 522 555 506 b 628 412 599 466 616 441 b 646 313 640 383 646 350 b 630 219 646 278 641 247 b 583 147 619 191 604 166 b 510 100 563 127 539 111 b 417 83 482 89 451 83 b 344 94 390 83 366 87 l 344 -4 b 387 -14 358 -9 372 -12 b 431 -17 401 -16 416 -17 b 563 6 478 -17 522 -9 b 668 69 603 20 638 42 b 738 170 698 97 721 131 b 763 303 754 209 763 254 b 747 409 763 340 757 375 b 702 500 737 443 722 473 b 628 566 682 527 658 549 b 526 597 599 583 565 594 l 526 600 b 640 683 576 618 614 645 b 679 819 666 721 679 767 b 658 925 679 859 672 894 b 599 1002 643 956 624 981 b 513 1050 575 1023 546 1039 b 407 1067 480 1061 445 1067 b 267 1041 352 1067 306 1058 b 173 972 229 1024 197 1001 b 119 871 148 942 131 909 b 103 750 108 833 103 793 z "},"à":{"ha":721,"x_min":0,"x_max":0,"o":"m 94 567 l 163 496 b 252 549 188 520 218 538 b 356 567 286 561 320 567 b 474 531 406 567 446 555 b 517 424 503 506 517 471 l 517 404 l 475 404 b 344 399 435 404 391 402 b 210 371 296 395 252 386 b 107 303 169 356 135 333 b 65 176 79 272 65 230 b 85 93 65 145 72 117 b 137 33 98 69 115 49 b 213 -4 159 16 184 4 b 307 -17 242 -12 274 -17 b 435 15 357 -17 400 -6 b 521 97 471 37 500 64 l 524 97 b 524 49 524 83 524 67 b 531 0 525 31 527 15 l 635 0 b 628 55 632 17 630 35 b 625 113 626 75 625 94 l 625 392 b 561 599 625 484 604 553 b 353 667 519 644 449 667 b 213 642 306 667 259 659 b 94 567 167 626 128 601 z m 408 313 l 517 313 l 517 271 b 503 195 516 244 511 219 b 467 133 494 172 482 151 b 408 91 451 116 431 102 b 325 75 384 80 356 75 b 223 101 284 75 250 84 b 182 188 196 118 182 147 b 243 283 182 232 202 264 b 408 313 284 303 339 313 z m 457 806 l 313 1006 l 160 1006 l 358 806 z "},"á":{"ha":721,"x_min":0,"x_max":0,"o":"m 94 567 l 163 496 b 252 549 188 520 218 538 b 356 567 286 561 320 567 b 474 531 406 567 446 555 b 517 424 503 506 517 471 l 517 404 l 475 404 b 344 399 435 404 391 402 b 210 371 296 395 252 386 b 107 303 169 356 135 333 b 65 176 79 272 65 230 b 85 93 65 145 72 117 b 137 33 98 69 115 49 b 213 -4 159 16 184 4 b 307 -17 242 -12 274 -17 b 435 15 357 -17 400 -6 b 521 97 471 37 500 64 l 524 97 b 524 49 524 83 524 67 b 531 0 525 31 527 15 l 635 0 b 628 55 632 17 630 35 b 625 113 626 75 625 94 l 625 392 b 561 599 625 484 604 553 b 353 667 519 644 449 667 b 213 642 306 667 259 659 b 94 567 167 626 128 601 z m 408 313 l 517 313 l 517 271 b 503 195 516 244 511 219 b 467 133 494 172 482 151 b 408 91 451 116 431 102 b 325 75 384 80 356 75 b 223 101 284 75 250 84 b 182 188 196 118 182 147 b 243 283 182 232 202 264 b 408 313 284 303 339 313 z m 410 1006 l 265 806 l 364 806 l 563 1006 z "},"â":{"ha":721,"x_min":0,"x_max":0,"o":"m 94 567 l 163 496 b 252 549 188 520 218 538 b 356 567 286 561 320 567 b 474 531 406 567 446 555 b 517 424 503 506 517 471 l 517 404 l 475 404 b 344 399 435 404 391 402 b 210 371 296 395 252 386 b 107 303 169 356 135 333 b 65 176 79 272 65 230 b 85 93 65 145 72 117 b 137 33 98 69 115 49 b 213 -4 159 16 184 4 b 307 -17 242 -12 274 -17 b 435 15 357 -17 400 -6 b 521 97 471 37 500 64 l 524 97 b 524 49 524 83 524 67 b 531 0 525 31 527 15 l 635 0 b 628 55 632 17 630 35 b 625 113 626 75 625 94 l 625 392 b 561 599 625 484 604 553 b 353 667 519 644 449 667 b 213 642 306 667 259 659 b 94 567 167 626 128 601 z m 408 313 l 517 313 l 517 271 b 503 195 516 244 511 219 b 467 133 494 172 482 151 b 408 91 451 116 431 102 b 325 75 384 80 356 75 b 223 101 284 75 250 84 b 182 188 196 118 182 147 b 243 283 182 232 202 264 b 408 313 284 303 339 313 z m 297 1006 l 143 806 l 249 806 l 357 947 l 467 806 l 579 806 l 424 1006 z "},"ã":{"ha":721,"x_min":0,"x_max":0,"o":"m 94 567 l 163 496 b 252 549 188 520 218 538 b 356 567 286 561 320 567 b 474 531 406 567 446 555 b 517 424 503 506 517 471 l 517 404 l 475 404 b 344 399 435 404 391 402 b 210 371 296 395 252 386 b 107 303 169 356 135 333 b 65 176 79 272 65 230 b 85 93 65 145 72 117 b 137 33 98 69 115 49 b 213 -4 159 16 184 4 b 307 -17 242 -12 274 -17 b 435 15 357 -17 400 -6 b 521 97 471 37 500 64 l 524 97 b 524 49 524 83 524 67 b 531 0 525 31 527 15 l 635 0 b 628 55 632 17 630 35 b 625 113 626 75 625 94 l 625 392 b 561 599 625 484 604 553 b 353 667 519 644 449 667 b 213 642 306 667 259 659 b 94 567 167 626 128 601 z m 408 313 l 517 313 l 517 271 b 503 195 516 244 511 219 b 467 133 494 172 482 151 b 408 91 451 116 431 102 b 325 75 384 80 356 75 b 223 101 284 75 250 84 b 182 188 196 118 182 147 b 243 283 182 232 202 264 b 408 313 284 303 339 313 z m 129 822 l 196 822 b 218 865 200 838 208 852 b 260 883 228 877 242 883 b 307 874 275 883 291 880 b 351 857 323 868 338 863 b 406 837 369 850 387 843 b 464 828 425 831 444 828 b 517 840 484 828 502 832 b 555 874 531 849 544 860 b 580 920 566 888 574 903 b 593 972 586 937 590 955 l 526 972 b 503 929 522 956 514 941 b 460 911 493 917 478 911 b 422 919 445 911 432 914 b 385 935 411 924 399 929 b 328 956 366 942 347 949 b 268 967 309 963 289 967 b 213 954 248 967 229 963 b 172 922 197 946 183 935 b 144 875 160 908 151 893 b 129 822 137 857 132 840 z "},"ä":{"ha":721,"x_min":0,"x_max":0,"o":"m 94 567 l 163 496 b 252 549 188 520 218 538 b 356 567 286 561 320 567 b 474 531 406 567 446 555 b 517 424 503 506 517 471 l 517 404 l 475 404 b 344 399 435 404 391 402 b 210 371 296 395 252 386 b 107 303 169 356 135 333 b 65 176 79 272 65 230 b 85 93 65 145 72 117 b 137 33 98 69 115 49 b 213 -4 159 16 184 4 b 307 -17 242 -12 274 -17 b 435 15 357 -17 400 -6 b 521 97 471 37 500 64 l 524 97 b 524 49 524 83 524 67 b 531 0 525 31 527 15 l 635 0 b 628 55 632 17 630 35 b 625 113 626 75 625 94 l 625 392 b 561 599 625 484 604 553 b 353 667 519 644 449 667 b 213 642 306 667 259 659 b 94 567 167 626 128 601 z m 408 313 l 517 313 l 517 271 b 503 195 516 244 511 219 b 467 133 494 172 482 151 b 408 91 451 116 431 102 b 325 75 384 80 356 75 b 223 101 284 75 250 84 b 182 188 196 118 182 147 b 243 283 182 232 202 264 b 408 313 284 303 339 313 z m 224 972 b 170 950 202 972 184 965 b 149 897 156 935 149 918 b 170 844 149 876 156 858 b 224 822 184 829 202 822 b 277 844 245 822 263 829 b 299 897 291 858 299 876 b 277 950 299 918 291 935 b 224 972 263 965 245 972 z m 499 972 b 445 950 477 972 459 965 b 424 897 431 935 424 918 b 445 844 424 876 431 858 b 499 822 459 829 477 822 b 552 844 520 822 538 829 b 574 897 566 858 574 876 b 552 950 574 918 566 935 b 499 972 538 965 520 972 z "},"å":{"ha":721,"x_min":0,"x_max":0,"o":"m 94 567 l 163 496 b 252 549 188 520 218 538 b 356 567 286 561 320 567 b 474 531 406 567 446 555 b 517 424 503 506 517 471 l 517 404 l 475 404 b 344 399 435 404 391 402 b 210 371 296 395 252 386 b 107 303 169 356 135 333 b 65 176 79 272 65 230 b 85 93 65 145 72 117 b 137 33 98 69 115 49 b 213 -4 159 16 184 4 b 307 -17 242 -12 274 -17 b 435 15 357 -17 400 -6 b 521 97 471 37 500 64 l 524 97 b 524 49 524 83 524 67 b 531 0 525 31 527 15 l 635 0 b 628 55 632 17 630 35 b 625 113 626 75 625 94 l 625 392 b 561 599 625 484 604 553 b 353 667 519 644 449 667 b 213 642 306 667 259 659 b 94 567 167 626 128 601 z m 408 313 l 517 313 l 517 271 b 503 195 516 244 511 219 b 467 133 494 172 482 151 b 408 91 451 116 431 102 b 325 75 384 80 356 75 b 223 101 284 75 250 84 b 182 188 196 118 182 147 b 243 283 182 232 202 264 b 408 313 284 303 339 313 z m 224 918 b 263 821 224 880 237 848 b 361 781 288 794 321 781 b 460 821 401 781 434 794 b 499 918 486 848 499 880 b 460 1015 499 955 486 987 b 361 1056 435 1042 402 1056 b 306 1044 342 1056 323 1052 b 263 1015 289 1037 275 1027 b 234 971 250 1002 241 988 b 224 918 227 954 224 937 z m 282 918 b 306 974 282 940 290 959 b 361 997 322 990 341 997 b 416 974 381 997 400 990 b 440 918 432 959 440 940 b 416 861 440 895 432 876 b 361 839 400 846 381 839 b 306 861 341 839 322 846 b 282 918 290 876 282 895 z "},"æ":{"ha":1183,"x_min":0,"x_max":0,"o":"m 1101 118 l 1019 182 b 932 108 994 150 964 125 b 813 83 900 92 860 83 b 738 100 786 83 761 89 b 678 145 714 111 694 126 b 638 211 661 164 648 186 b 624 292 628 236 624 263 l 1125 292 l 1125 326 b 1103 470 1125 380 1118 428 b 1040 577 1088 512 1067 548 b 942 644 1012 606 980 628 b 817 667 904 659 862 667 b 700 642 777 667 738 658 b 586 557 662 625 624 597 b 489 642 562 598 530 626 b 361 667 448 659 406 667 b 222 644 314 667 268 659 b 101 575 177 628 137 606 l 171 503 b 258 551 200 524 230 540 b 361 567 287 561 321 567 b 484 519 417 567 458 551 b 524 400 510 487 524 447 l 524 383 l 390 383 b 281 376 355 383 319 381 b 176 348 243 372 208 362 b 97 286 144 334 117 313 b 65 179 76 259 65 224 b 87 90 65 144 72 114 b 143 29 101 65 120 45 b 221 -6 166 13 192 2 b 306 -17 250 -13 278 -17 b 458 15 361 -17 412 -6 b 565 124 503 35 539 72 b 601 74 574 107 585 90 b 655 28 616 57 634 42 b 726 -4 676 15 699 4 b 813 -17 752 -12 781 -17 b 974 13 874 -17 927 -7 b 1101 118 1020 33 1063 68 z m 361 292 l 524 292 l 524 274 b 471 136 524 217 506 171 b 333 83 436 101 390 83 b 279 89 315 83 297 85 b 231 106 262 93 245 98 b 195 137 216 114 204 124 b 182 183 186 149 182 165 b 199 238 182 206 188 224 b 243 270 211 251 225 262 b 301 287 261 278 280 284 b 361 292 322 290 342 292 z m 1008 383 l 624 383 b 640 450 625 406 630 428 b 679 509 649 472 663 492 b 738 551 696 526 716 540 b 813 567 761 561 786 567 b 954 517 873 567 920 550 b 1008 383 988 483 1006 439 z "},"ç":{"ha":669,"x_min":0,"x_max":0,"o":"m 565 488 l 651 564 b 538 642 619 599 581 625 b 401 667 495 658 450 667 b 265 641 351 667 306 658 b 158 569 223 624 188 600 b 90 461 129 539 106 503 b 65 325 73 419 65 374 b 87 195 65 278 72 234 b 147 92 101 156 121 121 b 241 20 173 62 204 38 b 364 -12 278 2 319 -9 l 288 -118 l 315 -144 b 342 -137 324 -142 332 -139 b 369 -133 351 -134 360 -133 b 417 -145 385 -133 401 -137 b 442 -186 434 -153 442 -167 b 433 -214 442 -197 439 -206 b 413 -231 428 -221 421 -227 b 385 -240 404 -235 395 -238 b 357 -243 376 -242 366 -243 b 257 -221 323 -243 289 -236 l 233 -272 b 300 -294 255 -282 277 -290 b 371 -301 323 -299 347 -301 b 428 -295 389 -301 408 -299 b 481 -274 447 -291 465 -284 b 519 -236 496 -265 509 -252 b 533 -179 528 -220 533 -201 b 523 -136 533 -162 530 -148 b 496 -106 516 -124 507 -114 b 460 -89 485 -98 473 -93 b 422 -83 447 -85 434 -83 b 394 -85 411 -83 402 -84 b 374 -89 387 -87 380 -88 l 426 -14 b 547 14 469 -12 509 -3 b 647 88 585 31 619 55 l 567 164 b 401 83 528 110 473 83 b 311 102 368 83 338 90 b 242 154 284 115 261 132 b 198 231 223 176 209 202 b 182 325 187 260 182 292 b 196 419 182 358 187 390 b 237 496 205 448 219 474 b 306 548 255 518 278 535 b 401 567 333 560 365 567 b 490 548 434 567 463 560 b 565 488 517 535 542 515 z "},"è":{"ha":772,"x_min":0,"x_max":0,"o":"m 683 118 l 601 182 b 514 108 575 150 546 125 b 394 83 481 92 442 83 b 313 100 365 83 338 89 b 247 145 288 111 266 126 b 202 212 229 164 214 186 b 182 292 191 237 184 264 l 707 292 l 707 326 b 685 470 707 380 700 428 b 622 577 670 512 649 548 b 524 644 594 606 562 628 b 399 667 486 659 444 667 b 265 642 350 667 306 658 b 160 572 225 625 189 602 b 90 463 130 541 107 505 b 65 325 74 421 65 375 b 88 192 65 278 73 233 b 153 83 103 150 125 114 b 257 10 182 53 216 28 b 394 -17 298 -8 344 -17 b 556 13 456 -17 509 -7 b 683 118 602 33 644 68 z m 590 383 l 182 383 b 249 517 189 439 212 483 b 394 567 286 550 334 567 b 536 517 455 567 502 550 b 590 383 570 483 588 439 z m 482 806 l 338 1006 l 185 1006 l 383 806 z "},"é":{"ha":772,"x_min":0,"x_max":0,"o":"m 683 118 l 601 182 b 514 108 575 150 546 125 b 394 83 481 92 442 83 b 313 100 365 83 338 89 b 247 145 288 111 266 126 b 202 212 229 164 214 186 b 182 292 191 237 184 264 l 707 292 l 707 326 b 685 470 707 380 700 428 b 622 577 670 512 649 548 b 524 644 594 606 562 628 b 399 667 486 659 444 667 b 265 642 350 667 306 658 b 160 572 225 625 189 602 b 90 463 130 541 107 505 b 65 325 74 421 65 375 b 88 192 65 278 73 233 b 153 83 103 150 125 114 b 257 10 182 53 216 28 b 394 -17 298 -8 344 -17 b 556 13 456 -17 509 -7 b 683 118 602 33 644 68 z m 590 383 l 182 383 b 249 517 189 439 212 483 b 394 567 286 550 334 567 b 536 517 455 567 502 550 b 590 383 570 483 588 439 z m 435 1006 l 290 806 l 389 806 l 588 1006 z "},"ê":{"ha":772,"x_min":0,"x_max":0,"o":"m 683 118 l 601 182 b 514 108 575 150 546 125 b 394 83 481 92 442 83 b 313 100 365 83 338 89 b 247 145 288 111 266 126 b 202 212 229 164 214 186 b 182 292 191 237 184 264 l 707 292 l 707 326 b 685 470 707 380 700 428 b 622 577 670 512 649 548 b 524 644 594 606 562 628 b 399 667 486 659 444 667 b 265 642 350 667 306 658 b 160 572 225 625 189 602 b 90 463 130 541 107 505 b 65 325 74 421 65 375 b 88 192 65 278 73 233 b 153 83 103 150 125 114 b 257 10 182 53 216 28 b 394 -17 298 -8 344 -17 b 556 13 456 -17 509 -7 b 683 118 602 33 644 68 z m 590 383 l 182 383 b 249 517 189 439 212 483 b 394 567 286 550 334 567 b 536 517 455 567 502 550 b 590 383 570 483 588 439 z m 322 1006 l 168 806 l 274 806 l 382 947 l 492 806 l 604 806 l 449 1006 z "},"ë":{"ha":772,"x_min":0,"x_max":0,"o":"m 683 118 l 601 182 b 514 108 575 150 546 125 b 394 83 481 92 442 83 b 313 100 365 83 338 89 b 247 145 288 111 266 126 b 202 212 229 164 214 186 b 182 292 191 237 184 264 l 707 292 l 707 326 b 685 470 707 380 700 428 b 622 577 670 512 649 548 b 524 644 594 606 562 628 b 399 667 486 659 444 667 b 265 642 350 667 306 658 b 160 572 225 625 189 602 b 90 463 130 541 107 505 b 65 325 74 421 65 375 b 88 192 65 278 73 233 b 153 83 103 150 125 114 b 257 10 182 53 216 28 b 394 -17 298 -8 344 -17 b 556 13 456 -17 509 -7 b 683 118 602 33 644 68 z m 590 383 l 182 383 b 249 517 189 439 212 483 b 394 567 286 550 334 567 b 536 517 455 567 502 550 b 590 383 570 483 588 439 z m 249 972 b 195 950 227 972 209 965 b 174 897 181 935 174 918 b 195 844 174 876 181 858 b 249 822 209 829 227 822 b 302 844 270 822 288 829 b 324 897 316 858 324 876 b 302 950 324 918 316 935 b 249 972 288 965 270 972 z m 524 972 b 470 950 502 972 484 965 b 449 897 456 935 449 918 b 470 844 449 876 456 858 b 524 822 484 829 502 822 b 577 844 545 822 563 829 b 599 897 591 858 599 876 b 577 950 599 918 591 935 b 524 972 563 965 545 972 z "},"ì":{"ha":333,"x_min":0,"x_max":0,"o":"m 113 650 l 113 0 l 221 0 l 221 650 z m 263 806 l 118 1006 l -35 1006 l 164 806 z "},"í":{"ha":333,"x_min":0,"x_max":0,"o":"m 113 650 l 113 0 l 221 0 l 221 650 z m 215 1006 l 71 806 l 169 806 l 368 1006 z "},"î":{"ha":333,"x_min":0,"x_max":0,"o":"m 113 650 l 113 0 l 221 0 l 221 650 z m 103 1006 l -51 806 l 54 806 l 163 947 l 272 806 l 385 806 l 229 1006 z "},"ï":{"ha":333,"x_min":0,"x_max":0,"o":"m 113 650 l 113 0 l 221 0 l 221 650 z m 29 972 b -24 950 8 972 -10 965 b -46 897 -39 935 -46 918 b -24 844 -46 876 -39 858 b 29 822 -10 829 8 822 b 83 844 50 822 68 829 b 104 897 97 858 104 876 b 83 950 104 918 97 935 b 29 972 68 965 50 972 z m 304 972 b 251 950 283 972 265 965 b 229 897 236 935 229 918 b 251 844 229 876 236 858 b 304 822 265 829 283 822 b 358 844 325 822 343 829 b 379 897 372 858 379 876 b 358 950 379 918 372 935 b 304 972 343 965 325 972 z "},"ð":{"ha":825,"x_min":0,"x_max":0,"o":"m 325 921 l 178 847 l 236 790 l 385 865 b 501 739 425 825 464 782 b 594 601 537 695 569 650 l 593 599 b 512 650 570 622 543 639 b 413 667 481 661 448 667 b 274 642 363 667 316 658 b 164 572 231 625 194 602 b 92 464 133 541 109 506 b 65 325 74 422 65 376 b 92 186 65 274 74 228 b 164 78 109 144 133 109 b 274 8 194 48 231 25 b 413 -17 316 -8 363 -17 b 565 12 471 -17 522 -7 b 674 91 609 31 645 57 b 738 213 702 125 724 165 b 760 368 753 260 760 312 b 738 538 760 429 752 486 b 677 681 723 589 703 637 b 589 804 652 725 622 766 b 483 914 556 842 520 879 l 638 992 l 574 1046 l 425 971 b 363 1028 406 989 386 1008 b 299 1082 341 1047 319 1065 l 203 1026 b 265 976 223 1011 244 994 b 325 921 287 958 306 939 z m 182 325 b 198 420 182 359 187 391 b 244 497 209 449 224 475 b 317 548 265 518 289 535 b 413 567 346 560 377 567 b 508 548 448 567 479 560 b 581 497 536 535 560 518 b 627 420 601 475 616 449 b 643 325 638 391 643 359 b 627 230 643 291 638 259 b 581 153 616 201 601 175 b 508 102 560 132 536 115 b 413 83 479 90 448 83 b 317 102 377 83 346 90 b 244 153 289 115 265 132 b 198 230 224 175 209 201 b 182 325 187 259 182 291 z "},"ñ":{"ha":772,"x_min":0,"x_max":0,"o":"m 103 496 l 103 0 l 211 0 l 211 317 b 223 418 211 354 215 388 b 259 497 231 449 243 475 b 322 549 275 519 296 537 b 413 567 347 561 377 567 b 525 519 463 567 501 551 b 561 390 549 488 561 445 l 561 0 l 669 0 l 669 401 b 655 509 669 440 665 476 b 610 593 645 542 630 570 b 533 647 589 616 564 634 b 422 667 502 660 465 667 b 347 656 395 667 370 663 b 285 628 324 649 303 640 b 237 589 266 617 250 604 b 206 543 223 574 213 559 l 203 543 b 201 597 203 562 202 580 b 200 650 200 615 200 632 l 97 650 b 100 579 97 629 98 605 b 103 496 102 553 103 525 z m 154 822 l 221 822 b 243 865 225 838 233 852 b 285 883 253 877 267 883 b 332 874 300 883 316 880 b 376 857 348 868 363 863 b 431 837 394 850 412 843 b 489 828 450 831 469 828 b 542 840 509 828 527 832 b 580 874 556 849 569 860 b 605 920 591 888 599 903 b 618 972 611 937 615 955 l 551 972 b 528 929 547 956 539 941 b 485 911 518 917 503 911 b 447 919 470 911 457 914 b 410 935 436 924 424 929 b 353 956 391 942 372 949 b 293 967 334 963 314 967 b 238 954 273 967 254 963 b 197 922 222 946 208 935 b 169 875 185 908 176 893 b 154 822 162 857 157 840 z "},"ò":{"ha":825,"x_min":0,"x_max":0,"o":"m 65 325 b 92 186 65 274 74 228 b 164 78 109 144 133 109 b 274 8 194 48 231 25 b 413 -17 316 -8 363 -17 b 551 8 463 -17 509 -8 b 661 78 594 25 631 48 b 733 186 692 109 716 144 b 760 325 751 228 760 274 b 733 464 760 376 751 422 b 661 572 716 506 692 541 b 551 642 631 602 594 625 b 413 667 509 658 463 667 b 274 642 363 667 316 658 b 164 572 231 625 194 602 b 92 464 133 541 109 506 b 65 325 74 422 65 376 z m 182 325 b 198 420 182 359 187 391 b 244 497 209 449 224 475 b 317 548 265 518 289 535 b 413 567 346 560 377 567 b 508 548 448 567 479 560 b 581 497 536 535 560 518 b 627 420 601 475 616 449 b 643 325 638 391 643 359 b 627 230 643 291 638 259 b 581 153 616 201 601 175 b 508 102 560 132 536 115 b 413 83 479 90 448 83 b 317 102 377 83 346 90 b 244 153 289 115 265 132 b 198 230 224 175 209 201 b 182 325 187 259 182 291 z m 508 806 l 364 1006 l 211 1006 l 410 806 z "},"ó":{"ha":825,"x_min":0,"x_max":0,"o":"m 65 325 b 92 186 65 274 74 228 b 164 78 109 144 133 109 b 274 8 194 48 231 25 b 413 -17 316 -8 363 -17 b 551 8 463 -17 509 -8 b 661 78 594 25 631 48 b 733 186 692 109 716 144 b 760 325 751 228 760 274 b 733 464 760 376 751 422 b 661 572 716 506 692 541 b 551 642 631 602 594 625 b 413 667 509 658 463 667 b 274 642 363 667 316 658 b 164 572 231 625 194 602 b 92 464 133 541 109 506 b 65 325 74 422 65 376 z m 182 325 b 198 420 182 359 187 391 b 244 497 209 449 224 475 b 317 548 265 518 289 535 b 413 567 346 560 377 567 b 508 548 448 567 479 560 b 581 497 536 535 560 518 b 627 420 601 475 616 449 b 643 325 638 391 643 359 b 627 230 643 291 638 259 b 581 153 616 201 601 175 b 508 102 560 132 536 115 b 413 83 479 90 448 83 b 317 102 377 83 346 90 b 244 153 289 115 265 132 b 198 230 224 175 209 201 b 182 325 187 259 182 291 z m 461 1006 l 317 806 l 415 806 l 614 1006 z "},"ô":{"ha":825,"x_min":0,"x_max":0,"o":"m 65 325 b 92 186 65 274 74 228 b 164 78 109 144 133 109 b 274 8 194 48 231 25 b 413 -17 316 -8 363 -17 b 551 8 463 -17 509 -8 b 661 78 594 25 631 48 b 733 186 692 109 716 144 b 760 325 751 228 760 274 b 733 464 760 376 751 422 b 661 572 716 506 692 541 b 551 642 631 602 594 625 b 413 667 509 658 463 667 b 274 642 363 667 316 658 b 164 572 231 625 194 602 b 92 464 133 541 109 506 b 65 325 74 422 65 376 z m 182 325 b 198 420 182 359 187 391 b 244 497 209 449 224 475 b 317 548 265 518 289 535 b 413 567 346 560 377 567 b 508 548 448 567 479 560 b 581 497 536 535 560 518 b 627 420 601 475 616 449 b 643 325 638 391 643 359 b 627 230 643 291 638 259 b 581 153 616 201 601 175 b 508 102 560 132 536 115 b 413 83 479 90 448 83 b 317 102 377 83 346 90 b 244 153 289 115 265 132 b 198 230 224 175 209 201 b 182 325 187 259 182 291 z m 349 1006 l 194 806 l 300 806 l 408 947 l 518 806 l 631 806 l 475 1006 z "},"õ":{"ha":825,"x_min":0,"x_max":0,"o":"m 65 325 b 92 186 65 274 74 228 b 164 78 109 144 133 109 b 274 8 194 48 231 25 b 413 -17 316 -8 363 -17 b 551 8 463 -17 509 -8 b 661 78 594 25 631 48 b 733 186 692 109 716 144 b 760 325 751 228 760 274 b 733 464 760 376 751 422 b 661 572 716 506 692 541 b 551 642 631 602 594 625 b 413 667 509 658 463 667 b 274 642 363 667 316 658 b 164 572 231 625 194 602 b 92 464 133 541 109 506 b 65 325 74 422 65 376 z m 182 325 b 198 420 182 359 187 391 b 244 497 209 449 224 475 b 317 548 265 518 289 535 b 413 567 346 560 377 567 b 508 548 448 567 479 560 b 581 497 536 535 560 518 b 627 420 601 475 616 449 b 643 325 638 391 643 359 b 627 230 643 291 638 259 b 581 153 616 201 601 175 b 508 102 560 132 536 115 b 413 83 479 90 448 83 b 317 102 377 83 346 90 b 244 153 289 115 265 132 b 198 230 224 175 209 201 b 182 325 187 259 182 291 z m 181 822 l 247 822 b 269 865 252 838 259 852 b 311 883 280 877 294 883 b 358 874 327 883 343 880 b 403 857 374 868 389 863 b 458 837 420 850 439 843 b 515 828 477 831 496 828 b 568 840 536 828 553 832 b 606 874 583 849 596 860 b 631 920 617 888 625 903 b 644 972 637 937 642 955 l 578 972 b 555 929 573 956 566 941 b 511 911 544 917 530 911 b 473 919 496 911 484 914 b 436 935 462 924 450 929 b 380 956 418 942 399 949 b 319 967 361 963 341 967 b 265 954 299 967 281 963 b 223 922 248 946 234 935 b 195 875 211 908 202 893 b 181 822 188 857 183 840 z "},"ö":{"ha":825,"x_min":0,"x_max":0,"o":"m 65 325 b 92 186 65 274 74 228 b 164 78 109 144 133 109 b 274 8 194 48 231 25 b 413 -17 316 -8 363 -17 b 551 8 463 -17 509 -8 b 661 78 594 25 631 48 b 733 186 692 109 716 144 b 760 325 751 228 760 274 b 733 464 760 376 751 422 b 661 572 716 506 692 541 b 551 642 631 602 594 625 b 413 667 509 658 463 667 b 274 642 363 667 316 658 b 164 572 231 625 194 602 b 92 464 133 541 109 506 b 65 325 74 422 65 376 z m 182 325 b 198 420 182 359 187 391 b 244 497 209 449 224 475 b 317 548 265 518 289 535 b 413 567 346 560 377 567 b 508 548 448 567 479 560 b 581 497 536 535 560 518 b 627 420 601 475 616 449 b 643 325 638 391 643 359 b 627 230 643 291 638 259 b 581 153 616 201 601 175 b 508 102 560 132 536 115 b 413 83 479 90 448 83 b 317 102 377 83 346 90 b 244 153 289 115 265 132 b 198 230 224 175 209 201 b 182 325 187 259 182 291 z m 275 972 b 222 950 254 972 236 965 b 200 897 207 935 200 918 b 222 844 200 876 207 858 b 275 822 236 829 254 822 b 328 844 296 822 314 829 b 350 897 343 858 350 876 b 328 950 350 918 343 935 b 275 972 314 965 296 972 z m 550 972 b 497 950 529 972 511 965 b 475 897 482 935 475 918 b 497 844 475 876 482 858 b 550 822 511 829 529 822 b 603 844 571 822 589 829 b 625 897 618 858 625 876 b 603 950 625 918 618 935 b 550 972 589 965 571 972 z "},"÷":{"ha":925,"x_min":0,"x_max":0,"o":"m 100 467 l 100 375 l 825 375 l 825 467 z m 383 650 b 407 594 383 629 391 610 b 463 571 423 579 441 571 b 518 594 484 571 502 578 b 542 650 534 609 542 628 b 518 706 542 671 534 690 b 463 729 502 721 484 729 b 407 706 441 729 423 722 b 383 650 391 691 383 672 z m 383 192 b 407 136 383 170 391 152 b 463 113 423 120 441 113 b 518 135 484 113 502 120 b 542 192 534 151 542 169 b 518 247 542 213 534 231 b 463 271 502 263 484 271 b 407 248 441 271 423 263 b 383 192 391 233 383 214 z "},"ø":{"ha":825,"x_min":0,"x_max":0,"o":"m 557 518 l 225 181 b 182 325 196 220 182 269 b 198 420 182 359 187 391 b 244 497 209 449 224 475 b 317 548 265 518 289 535 b 413 567 346 560 377 567 b 492 554 441 567 468 563 b 557 518 517 546 538 534 z m 268 132 l 600 469 b 643 325 629 430 643 381 b 627 230 643 291 638 259 b 581 153 616 201 601 175 b 508 102 560 132 536 115 b 413 83 479 90 448 83 b 268 132 354 83 306 100 z m 146 100 l 51 3 l 99 -42 l 193 56 b 292 2 222 32 255 15 b 413 -17 329 -10 369 -17 b 551 8 463 -17 509 -8 b 661 78 594 25 631 48 b 733 186 692 109 716 144 b 760 325 751 228 760 274 b 739 450 760 370 753 412 b 681 551 725 488 706 522 l 774 647 l 726 692 l 633 596 b 533 648 604 618 570 635 b 413 667 496 660 456 667 b 274 642 363 667 316 658 b 164 572 231 625 194 602 b 92 464 133 541 109 506 b 65 325 74 422 65 376 b 86 200 65 280 72 238 b 146 100 100 162 120 129 z "},"ù":{"ha":772,"x_min":0,"x_max":0,"o":"m 669 154 l 669 650 l 561 650 l 561 333 b 549 232 561 296 557 263 b 513 153 541 201 529 175 b 451 101 497 131 476 113 b 360 83 425 89 395 83 b 247 131 309 83 271 99 b 211 260 223 162 211 205 l 211 650 l 103 650 l 103 249 b 117 141 103 210 108 174 b 163 57 127 108 142 80 b 240 3 183 34 209 16 b 350 -17 271 -10 307 -17 b 425 -6 377 -17 402 -13 b 488 22 448 1 469 10 b 535 61 506 33 522 46 b 567 107 549 76 559 91 l 569 107 b 571 53 569 88 570 70 b 572 0 572 35 572 18 l 675 0 b 672 71 675 21 674 45 b 669 154 670 97 669 125 z m 482 806 l 338 1006 l 185 1006 l 383 806 z "},"ú":{"ha":772,"x_min":0,"x_max":0,"o":"m 669 154 l 669 650 l 561 650 l 561 333 b 549 232 561 296 557 263 b 513 153 541 201 529 175 b 451 101 497 131 476 113 b 360 83 425 89 395 83 b 247 131 309 83 271 99 b 211 260 223 162 211 205 l 211 650 l 103 650 l 103 249 b 117 141 103 210 108 174 b 163 57 127 108 142 80 b 240 3 183 34 209 16 b 350 -17 271 -10 307 -17 b 425 -6 377 -17 402 -13 b 488 22 448 1 469 10 b 535 61 506 33 522 46 b 567 107 549 76 559 91 l 569 107 b 571 53 569 88 570 70 b 572 0 572 35 572 18 l 675 0 b 672 71 675 21 674 45 b 669 154 670 97 669 125 z m 435 1006 l 290 806 l 389 806 l 588 1006 z "},"û":{"ha":772,"x_min":0,"x_max":0,"o":"m 669 154 l 669 650 l 561 650 l 561 333 b 549 232 561 296 557 263 b 513 153 541 201 529 175 b 451 101 497 131 476 113 b 360 83 425 89 395 83 b 247 131 309 83 271 99 b 211 260 223 162 211 205 l 211 650 l 103 650 l 103 249 b 117 141 103 210 108 174 b 163 57 127 108 142 80 b 240 3 183 34 209 16 b 350 -17 271 -10 307 -17 b 425 -6 377 -17 402 -13 b 488 22 448 1 469 10 b 535 61 506 33 522 46 b 567 107 549 76 559 91 l 569 107 b 571 53 569 88 570 70 b 572 0 572 35 572 18 l 675 0 b 672 71 675 21 674 45 b 669 154 670 97 669 125 z m 322 1006 l 168 806 l 274 806 l 382 947 l 492 806 l 604 806 l 449 1006 z "},"ü":{"ha":772,"x_min":0,"x_max":0,"o":"m 669 154 l 669 650 l 561 650 l 561 333 b 549 232 561 296 557 263 b 513 153 541 201 529 175 b 451 101 497 131 476 113 b 360 83 425 89 395 83 b 247 131 309 83 271 99 b 211 260 223 162 211 205 l 211 650 l 103 650 l 103 249 b 117 141 103 210 108 174 b 163 57 127 108 142 80 b 240 3 183 34 209 16 b 350 -17 271 -10 307 -17 b 425 -6 377 -17 402 -13 b 488 22 448 1 469 10 b 535 61 506 33 522 46 b 567 107 549 76 559 91 l 569 107 b 571 53 569 88 570 70 b 572 0 572 35 572 18 l 675 0 b 672 71 675 21 674 45 b 669 154 670 97 669 125 z m 249 972 b 195 950 227 972 209 965 b 174 897 181 935 174 918 b 195 844 174 876 181 858 b 249 822 209 829 227 822 b 302 844 270 822 288 829 b 324 897 316 858 324 876 b 302 950 324 918 316 935 b 249 972 288 965 270 972 z m 524 972 b 470 950 502 972 484 965 b 449 897 456 935 449 918 b 470 844 449 876 456 858 b 524 822 484 829 502 822 b 577 844 545 822 563 829 b 599 897 591 858 599 876 b 577 950 599 918 591 935 b 524 972 563 965 545 972 z "},"ý":{"ha":669,"x_min":0,"x_max":0,"o":"m 342 -149 l 656 650 l 538 650 l 344 140 l 342 140 l 140 650 l 14 650 l 283 -4 l 239 -126 b 196 -204 227 -159 213 -185 b 118 -233 179 -224 153 -233 b 76 -231 102 -233 88 -233 b 42 -222 64 -230 53 -227 l 28 -317 b 76 -331 43 -324 59 -329 b 125 -333 93 -332 109 -333 b 208 -320 157 -333 185 -329 b 266 -283 230 -311 250 -299 b 308 -224 282 -266 296 -247 b 342 -149 319 -202 331 -176 z m 383 1006 l 239 806 l 338 806 l 536 1006 z "},"þ":{"ha":849,"x_min":0,"x_max":0,"o":"m 97 1050 l 97 -317 l 206 -317 l 206 115 l 208 115 b 305 22 229 78 261 47 b 458 -17 349 -4 400 -17 b 586 9 504 -17 546 -8 b 690 81 626 26 660 50 b 758 189 719 111 742 147 b 783 325 775 231 783 276 b 758 461 783 374 775 419 b 689 569 742 503 719 539 b 581 641 659 600 623 624 b 442 667 539 658 493 667 b 312 638 394 667 351 657 b 208 556 272 618 238 591 l 206 556 l 206 1050 z m 206 325 b 222 420 206 359 211 391 b 268 497 232 449 248 475 b 341 548 288 518 313 535 b 436 567 369 560 401 567 b 531 548 471 567 503 560 b 604 497 559 535 584 518 b 651 420 625 475 640 449 b 667 325 661 391 667 359 b 651 230 667 291 661 259 b 604 153 640 201 625 175 b 531 102 584 132 559 115 b 436 83 503 90 471 83 b 341 102 401 83 369 90 b 268 153 313 115 288 132 b 222 230 248 175 232 201 b 206 325 211 259 206 291 z "},"ÿ":{"ha":669,"x_min":0,"x_max":0,"o":"m 342 -149 l 656 650 l 538 650 l 344 140 l 342 140 l 140 650 l 14 650 l 283 -4 l 239 -126 b 196 -204 227 -159 213 -185 b 118 -233 179 -224 153 -233 b 76 -231 102 -233 88 -233 b 42 -222 64 -230 53 -227 l 28 -317 b 76 -331 43 -324 59 -329 b 125 -333 93 -332 109 -333 b 208 -320 157 -333 185 -329 b 266 -283 230 -311 250 -299 b 308 -224 282 -266 296 -247 b 342 -149 319 -202 331 -176 z m 197 972 b 144 950 176 972 158 965 b 122 897 129 935 122 918 b 144 844 122 876 129 858 b 197 822 158 829 176 822 b 251 844 219 822 236 829 b 272 897 265 858 272 876 b 251 950 272 918 265 935 b 197 972 236 965 219 972 z m 472 972 b 419 950 451 972 433 965 b 397 897 404 935 397 918 b 419 844 397 876 404 858 b 472 822 433 829 451 822 b 526 844 494 822 511 829 b 547 897 540 858 547 876 b 526 950 547 918 540 935 b 472 972 511 965 494 972 z "},"Ā":{"ha":978,"x_min":0,"x_max":0,"o":"m 442 983 l 8 0 l 140 0 l 242 242 l 733 242 l 833 0 l 969 0 l 551 983 z m 494 833 l 689 350 l 288 350 l 492 833 z m 685 1103 l 685 1186 l 301 1186 l 301 1103 z "},"ā":{"ha":721,"x_min":0,"x_max":0,"o":"m 94 567 l 163 496 b 252 549 188 520 218 538 b 356 567 286 561 320 567 b 474 531 406 567 446 555 b 517 424 503 506 517 471 l 517 404 l 475 404 b 344 399 435 404 391 402 b 210 371 296 395 252 386 b 107 303 169 356 135 333 b 65 176 79 272 65 230 b 85 93 65 145 72 117 b 137 33 98 69 115 49 b 213 -4 159 16 184 4 b 307 -17 242 -12 274 -17 b 435 15 357 -17 400 -6 b 521 97 471 37 500 64 l 524 97 b 524 49 524 83 524 67 b 531 0 525 31 527 15 l 635 0 b 628 55 632 17 630 35 b 625 113 626 75 625 94 l 625 392 b 561 599 625 484 604 553 b 353 667 519 644 449 667 b 213 642 306 667 259 659 b 94 567 167 626 128 601 z m 408 313 l 517 313 l 517 271 b 503 195 516 244 511 219 b 467 133 494 172 482 151 b 408 91 451 116 431 102 b 325 75 384 80 356 75 b 223 101 284 75 250 84 b 182 188 196 118 182 147 b 243 283 182 232 202 264 b 408 313 284 303 339 313 z m 554 833 l 554 917 l 171 917 l 171 833 z "},"Ă":{"ha":978,"x_min":0,"x_max":0,"o":"m 442 983 l 8 0 l 140 0 l 242 242 l 733 242 l 833 0 l 969 0 l 551 983 z m 494 833 l 689 350 l 288 350 l 492 833 z m 350 1244 l 282 1244 b 347 1107 286 1183 307 1138 b 493 1061 386 1076 435 1061 b 640 1107 552 1061 601 1076 b 707 1244 678 1138 700 1183 l 640 1244 b 590 1159 630 1203 613 1174 b 493 1136 567 1144 535 1136 b 401 1163 458 1136 427 1145 b 350 1244 374 1181 357 1208 z "},"ă":{"ha":721,"x_min":0,"x_max":0,"o":"m 94 567 l 163 496 b 252 549 188 520 218 538 b 356 567 286 561 320 567 b 474 531 406 567 446 555 b 517 424 503 506 517 471 l 517 404 l 475 404 b 344 399 435 404 391 402 b 210 371 296 395 252 386 b 107 303 169 356 135 333 b 65 176 79 272 65 230 b 85 93 65 145 72 117 b 137 33 98 69 115 49 b 213 -4 159 16 184 4 b 307 -17 242 -12 274 -17 b 435 15 357 -17 400 -6 b 521 97 471 37 500 64 l 524 97 b 524 49 524 83 524 67 b 531 0 525 31 527 15 l 635 0 b 628 55 632 17 630 35 b 625 113 626 75 625 94 l 625 392 b 561 599 625 484 604 553 b 353 667 519 644 449 667 b 213 642 306 667 259 659 b 94 567 167 626 128 601 z m 408 313 l 517 313 l 517 271 b 503 195 516 244 511 219 b 467 133 494 172 482 151 b 408 91 451 116 431 102 b 325 75 384 80 356 75 b 223 101 284 75 250 84 b 182 188 196 118 182 147 b 243 283 182 232 202 264 b 408 313 284 303 339 313 z m 203 975 l 135 975 b 199 838 138 914 160 868 b 346 792 239 807 288 792 b 492 838 405 792 454 807 b 560 975 531 868 553 914 l 493 975 b 442 890 483 934 466 906 b 346 867 419 875 387 867 b 253 894 311 867 280 876 b 203 975 227 912 210 939 z "},"Ą":{"ha":978,"x_min":0,"x_max":0,"o":"m 964 -253 l 935 -196 b 903 -216 926 -204 916 -211 b 865 -224 890 -221 877 -224 b 815 -206 843 -225 826 -219 b 799 -160 804 -194 799 -178 b 809 -110 799 -143 802 -127 b 835 -65 816 -94 825 -79 b 870 -28 846 -51 858 -39 b 904 0 883 -17 894 -7 l 969 0 l 551 983 l 442 983 l 8 0 l 140 0 l 242 242 l 733 242 l 833 0 b 789 -34 819 -9 804 -21 b 749 -79 774 -47 761 -62 b 719 -132 737 -96 727 -113 b 707 -189 711 -150 707 -169 b 717 -237 707 -206 710 -222 b 746 -274 724 -251 734 -264 b 788 -299 758 -285 772 -293 b 836 -307 803 -304 819 -307 b 905 -292 860 -307 883 -302 b 964 -253 927 -283 946 -269 z m 494 833 l 689 350 l 288 350 l 492 833 z "},"ą":{"ha":721,"x_min":0,"x_max":0,"o":"m 663 -253 l 633 -196 b 601 -216 625 -204 614 -211 b 564 -224 588 -221 576 -224 b 514 -206 542 -225 525 -219 b 497 -160 503 -194 497 -178 b 508 -110 497 -143 501 -127 b 534 -65 515 -94 523 -79 b 569 -28 545 -51 556 -39 b 603 0 581 -17 593 -7 l 635 0 b 628 55 632 17 630 35 b 625 113 626 75 625 94 l 625 392 b 562 599 625 484 604 553 b 353 667 520 644 450 667 b 213 642 306 667 259 659 b 94 567 167 626 128 601 l 163 496 b 252 549 188 520 218 538 b 356 567 286 561 320 567 b 474 531 406 567 446 555 b 517 424 503 506 517 471 l 517 404 l 475 404 b 344 399 435 404 391 402 b 210 371 296 395 252 386 b 107 303 169 356 135 333 b 65 176 79 272 65 230 b 85 93 65 145 72 117 b 137 33 98 69 115 49 b 213 -4 159 16 184 4 b 307 -17 242 -12 274 -17 b 435 15 357 -17 400 -6 b 521 97 471 37 500 64 l 524 97 b 524 49 524 83 524 67 b 531 0 525 31 527 15 l 532 0 b 488 -34 517 -9 502 -21 b 447 -79 473 -47 459 -62 b 417 -132 435 -96 425 -113 b 406 -189 409 -150 406 -169 b 416 -237 406 -206 409 -222 b 444 -274 423 -251 432 -264 b 486 -299 456 -285 470 -293 b 535 -307 502 -304 518 -307 b 603 -292 559 -307 582 -302 b 663 -253 625 -283 645 -269 z m 408 313 l 517 313 l 517 271 b 503 195 516 244 511 219 b 467 133 494 172 482 151 b 408 91 451 116 431 102 b 325 75 384 80 356 75 b 223 101 284 75 250 84 b 182 188 196 118 182 147 b 243 283 182 232 202 264 b 408 313 284 303 339 313 z "},"Ć":{"ha":978,"x_min":0,"x_max":0,"o":"m 811 781 l 913 854 b 758 972 871 909 819 948 b 565 1008 696 996 632 1008 b 364 968 492 1008 425 995 b 206 858 303 941 250 905 b 102 694 161 812 127 757 b 65 492 78 631 65 564 b 103 285 65 417 78 348 b 209 122 129 222 164 167 b 368 14 254 76 307 40 b 565 -25 429 -12 495 -25 b 777 17 644 -25 715 -11 b 938 147 840 44 893 88 l 850 221 b 726 119 815 176 774 142 b 565 83 679 95 625 83 b 413 115 510 83 459 94 b 295 202 367 137 328 166 b 218 331 262 239 237 282 b 190 492 200 381 190 434 b 218 647 190 545 200 597 b 296 777 237 696 263 740 b 415 867 329 815 369 844 b 565 900 460 889 511 900 b 701 870 613 900 658 890 b 811 781 745 850 781 820 z m 589 1253 l 444 1053 l 543 1053 l 742 1253 z "},"ć":{"ha":669,"x_min":0,"x_max":0,"o":"m 565 488 l 651 564 b 538 642 619 599 581 625 b 401 667 495 658 450 667 b 265 641 351 667 306 658 b 158 569 223 624 188 600 b 90 461 129 539 106 503 b 65 325 73 419 65 374 b 90 188 65 275 73 229 b 158 79 106 146 128 110 b 264 8 187 49 222 25 b 401 -17 306 -8 351 -17 b 536 8 449 -17 494 -8 b 647 88 579 25 616 51 l 567 164 b 401 83 528 110 473 83 b 311 102 368 83 338 90 b 242 154 284 115 261 132 b 198 231 223 176 209 202 b 182 325 187 260 182 292 b 196 419 182 358 187 390 b 237 496 205 448 219 474 b 306 548 255 518 278 535 b 401 567 333 560 365 567 b 490 548 434 567 463 560 b 565 488 517 535 542 515 z m 458 983 l 314 783 l 413 783 l 611 983 z "},"Ĉ":{"ha":978,"x_min":0,"x_max":0,"o":"m 811 781 l 913 854 b 758 972 871 909 819 948 b 565 1008 696 996 632 1008 b 364 968 492 1008 425 995 b 206 858 303 941 250 905 b 102 694 161 812 127 757 b 65 492 78 631 65 564 b 103 285 65 417 78 348 b 209 122 129 222 164 167 b 368 14 254 76 307 40 b 565 -25 429 -12 495 -25 b 777 17 644 -25 715 -11 b 938 147 840 44 893 88 l 850 221 b 726 119 815 176 774 142 b 565 83 679 95 625 83 b 413 115 510 83 459 94 b 295 202 367 137 328 166 b 218 331 262 239 237 282 b 190 492 200 381 190 434 b 218 647 190 545 200 597 b 296 777 237 696 263 740 b 415 867 329 815 369 844 b 565 900 460 889 511 900 b 701 870 613 900 658 890 b 811 781 745 850 781 820 z m 515 1253 l 361 1053 l 467 1053 l 575 1194 l 685 1053 l 797 1053 l 642 1253 z "},"ĉ":{"ha":669,"x_min":0,"x_max":0,"o":"m 565 488 l 651 564 b 538 642 619 599 581 625 b 401 667 495 658 450 667 b 265 641 351 667 306 658 b 158 569 223 624 188 600 b 90 461 129 539 106 503 b 65 325 73 419 65 374 b 90 188 65 275 73 229 b 158 79 106 146 128 110 b 264 8 187 49 222 25 b 401 -17 306 -8 351 -17 b 536 8 449 -17 494 -8 b 647 88 579 25 616 51 l 567 164 b 401 83 528 110 473 83 b 311 102 368 83 338 90 b 242 154 284 115 261 132 b 198 231 223 176 209 202 b 182 325 187 260 182 292 b 196 419 182 358 187 390 b 237 496 205 448 219 474 b 306 548 255 518 278 535 b 401 567 333 560 365 567 b 490 548 434 567 463 560 b 565 488 517 535 542 515 z m 331 983 l 176 783 l 282 783 l 390 925 l 500 783 l 613 783 l 457 983 z "},"Ċ":{"ha":978,"x_min":0,"x_max":0,"o":"m 811 781 l 913 854 b 758 972 871 909 819 948 b 565 1008 696 996 632 1008 b 364 968 492 1008 425 995 b 206 858 303 941 250 905 b 102 694 161 812 127 757 b 65 492 78 631 65 564 b 103 285 65 417 78 348 b 209 122 129 222 164 167 b 368 14 254 76 307 40 b 565 -25 429 -12 495 -25 b 777 17 644 -25 715 -11 b 938 147 840 44 893 88 l 850 221 b 726 119 815 176 774 142 b 565 83 679 95 625 83 b 413 115 510 83 459 94 b 295 202 367 137 328 166 b 218 331 262 239 237 282 b 190 492 200 381 190 434 b 218 647 190 545 200 597 b 296 777 237 696 263 740 b 415 867 329 815 369 844 b 565 900 460 889 511 900 b 701 870 613 900 658 890 b 811 781 745 850 781 820 z m 551 1219 b 498 1197 530 1219 512 1212 b 476 1144 484 1182 476 1165 b 498 1091 476 1123 484 1105 b 551 1069 512 1077 530 1069 b 605 1091 573 1069 591 1077 b 626 1144 619 1105 626 1123 b 605 1197 626 1165 619 1182 b 551 1219 591 1212 573 1219 z "},"ċ":{"ha":669,"x_min":0,"x_max":0,"o":"m 565 488 l 651 564 b 538 642 619 599 581 625 b 401 667 495 658 450 667 b 265 641 351 667 306 658 b 158 569 223 624 188 600 b 90 461 129 539 106 503 b 65 325 73 419 65 374 b 90 188 65 275 73 229 b 158 79 106 146 128 110 b 264 8 187 49 222 25 b 401 -17 306 -8 351 -17 b 536 8 449 -17 494 -8 b 647 88 579 25 616 51 l 567 164 b 401 83 528 110 473 83 b 311 102 368 83 338 90 b 242 154 284 115 261 132 b 198 231 223 176 209 202 b 182 325 187 260 182 292 b 196 419 182 358 187 390 b 237 496 205 448 219 474 b 306 548 255 518 278 535 b 401 567 333 560 365 567 b 490 548 434 567 463 560 b 565 488 517 535 542 515 z m 399 950 b 345 928 377 950 359 943 b 324 875 331 913 324 895 b 345 822 324 854 331 836 b 399 800 359 807 377 800 b 452 822 420 800 438 807 b 474 875 466 836 474 854 b 452 928 474 895 466 913 b 399 950 438 943 420 950 z "},"Č":{"ha":978,"x_min":0,"x_max":0,"o":"m 811 781 l 913 854 b 758 972 871 909 819 948 b 565 1008 696 996 632 1008 b 364 968 492 1008 425 995 b 206 858 303 941 250 905 b 102 694 161 812 127 757 b 65 492 78 631 65 564 b 103 285 65 417 78 348 b 209 122 129 222 164 167 b 368 14 254 76 307 40 b 565 -25 429 -12 495 -25 b 777 17 644 -25 715 -11 b 938 147 840 44 893 88 l 850 221 b 726 119 815 176 774 142 b 565 83 679 95 625 83 b 413 115 510 83 459 94 b 295 202 367 137 328 166 b 218 331 262 239 237 282 b 190 492 200 381 190 434 b 218 647 190 545 200 597 b 296 777 237 696 263 740 b 415 867 329 815 369 844 b 565 900 460 889 511 900 b 701 870 613 900 658 890 b 811 781 745 850 781 820 z m 643 1053 l 796 1253 l 690 1253 l 583 1111 l 475 1253 l 363 1253 l 517 1053 z "},"č":{"ha":669,"x_min":0,"x_max":0,"o":"m 565 488 l 651 564 b 538 642 619 599 581 625 b 401 667 495 658 450 667 b 265 641 351 667 306 658 b 158 569 223 624 188 600 b 90 461 129 539 106 503 b 65 325 73 419 65 374 b 90 188 65 275 73 229 b 158 79 106 146 128 110 b 264 8 187 49 222 25 b 401 -17 306 -8 351 -17 b 536 8 449 -17 494 -8 b 647 88 579 25 616 51 l 567 164 b 401 83 528 110 473 83 b 311 102 368 83 338 90 b 242 154 284 115 261 132 b 198 231 223 176 209 202 b 182 325 187 260 182 292 b 196 419 182 358 187 390 b 237 496 205 448 219 474 b 306 548 255 518 278 535 b 401 567 333 560 365 567 b 490 548 434 567 463 560 b 565 488 517 535 542 515 z m 468 783 l 621 983 l 515 983 l 408 842 l 300 983 l 188 983 l 342 783 z "},"Ď":{"ha":1029,"x_min":0,"x_max":0,"o":"m 104 983 l 104 0 l 482 0 b 585 11 514 0 549 4 b 692 47 621 19 657 30 b 795 110 728 63 762 84 b 882 203 828 136 857 167 b 942 330 907 240 927 282 b 964 492 956 378 964 431 b 942 653 964 552 956 606 b 882 780 927 701 907 743 b 795 874 857 816 828 848 b 692 937 762 900 728 921 b 585 972 657 953 621 965 b 482 983 549 980 514 983 z m 221 108 l 221 875 l 443 875 b 600 853 500 875 552 868 b 725 784 648 838 690 815 b 808 665 760 753 788 713 b 839 492 829 617 839 559 b 808 318 839 424 829 366 b 725 199 788 270 760 230 b 600 131 690 168 648 145 b 443 108 552 116 500 108 z m 490 1053 l 643 1253 l 538 1253 l 431 1111 l 322 1253 l 210 1253 l 364 1053 z "},"ď":{"ha":849,"x_min":0,"x_max":0,"o":"m 643 115 l 643 0 l 751 0 l 751 1050 l 643 1050 l 643 556 l 640 556 b 537 638 611 591 576 618 b 407 667 497 657 454 667 b 267 641 356 667 309 658 b 160 569 225 624 189 600 b 90 461 130 539 107 503 b 65 325 74 419 65 374 b 90 189 65 276 74 231 b 159 81 107 147 130 111 b 263 9 188 50 223 26 b 390 -17 302 -8 345 -17 b 544 22 449 -17 500 -4 b 640 115 588 47 620 78 z m 643 325 b 627 230 643 291 638 259 b 581 153 616 201 601 175 b 508 102 560 132 536 115 b 413 83 479 90 448 83 b 317 102 377 83 346 90 b 244 153 289 115 265 132 b 198 230 224 175 209 201 b 182 325 187 259 182 291 b 198 420 182 359 187 391 b 244 497 209 449 224 475 b 317 548 265 518 289 535 b 413 567 346 560 377 567 b 508 548 448 567 479 560 b 581 497 536 535 560 518 b 627 420 601 475 616 449 b 643 325 638 391 643 359 z m 953 738 l 1053 983 l 933 983 l 861 738 z "},"Đ":{"ha":1029,"x_min":0,"x_max":0,"o":"m 104 983 l 104 558 l 4 558 l 4 467 l 104 467 l 104 0 l 482 0 b 585 11 514 0 549 4 b 692 47 621 19 657 30 b 795 110 728 63 762 84 b 882 203 828 136 857 167 b 942 330 907 240 927 282 b 964 492 956 378 964 431 b 942 653 964 552 956 606 b 882 780 927 701 907 743 b 795 874 857 816 828 848 b 692 937 762 900 728 921 b 585 972 657 953 621 965 b 482 983 549 980 514 983 z m 221 558 l 221 875 l 443 875 b 600 853 500 875 552 868 b 725 784 648 838 690 815 b 808 665 760 753 788 713 b 839 492 829 617 839 559 b 808 318 839 424 829 366 b 725 199 788 270 760 230 b 600 131 690 168 648 145 b 443 108 552 116 500 108 l 221 108 l 221 467 l 571 467 l 571 558 z "},"đ":{"ha":849,"x_min":0,"x_max":0,"o":"m 851 792 l 851 875 l 751 875 l 751 1050 l 643 1050 l 643 875 l 468 875 l 468 792 l 643 792 l 643 556 l 640 556 b 537 638 611 591 576 618 b 407 667 497 657 454 667 b 267 641 356 667 309 658 b 160 569 225 624 189 600 b 90 461 130 539 107 503 b 65 325 74 419 65 374 b 90 189 65 276 74 231 b 159 81 107 147 130 111 b 262 9 188 50 222 26 b 390 -17 301 -8 344 -17 b 544 22 449 -17 500 -4 b 640 115 588 47 620 78 l 643 115 l 643 0 l 751 0 l 751 792 z m 643 325 b 627 230 643 291 638 259 b 581 153 616 201 601 175 b 508 102 560 132 536 115 b 413 83 479 90 448 83 b 317 102 377 83 346 90 b 244 153 289 115 265 132 b 198 230 224 175 209 201 b 182 325 187 259 182 291 b 198 420 182 359 187 391 b 244 497 209 449 224 475 b 317 548 265 518 289 535 b 413 567 346 560 377 567 b 508 548 448 567 479 560 b 581 497 536 535 560 518 b 627 420 601 475 616 449 b 643 325 638 391 643 359 z "},"Ē":{"ha":824,"x_min":0,"x_max":0,"o":"m 122 983 l 122 0 l 765 0 l 765 108 l 239 108 l 239 458 l 707 458 l 707 567 l 239 567 l 239 875 l 740 875 l 740 983 z m 633 1103 l 633 1186 l 250 1186 l 250 1103 z "},"ē":{"ha":772,"x_min":0,"x_max":0,"o":"m 683 118 l 601 182 b 514 108 575 150 546 125 b 394 83 481 92 442 83 b 313 100 365 83 338 89 b 247 145 288 111 266 126 b 202 212 229 164 214 186 b 182 292 191 237 184 264 l 707 292 l 707 326 b 685 470 707 380 700 428 b 622 577 670 512 649 548 b 524 644 594 606 562 628 b 399 667 486 659 444 667 b 265 642 350 667 306 658 b 160 572 225 625 189 602 b 90 463 130 541 107 505 b 65 325 74 421 65 375 b 88 192 65 278 73 233 b 153 83 103 150 125 114 b 257 10 182 53 216 28 b 394 -17 298 -8 344 -17 b 556 13 456 -17 509 -7 b 683 118 602 33 644 68 z m 590 383 l 182 383 b 249 517 189 439 212 483 b 394 567 286 550 334 567 b 536 517 455 567 502 550 b 590 383 570 483 588 439 z m 583 833 l 583 917 l 200 917 l 200 833 z "},"Ĕ":{"ha":824,"x_min":0,"x_max":0,"o":"m 122 983 l 122 0 l 765 0 l 765 108 l 239 108 l 239 458 l 707 458 l 707 567 l 239 567 l 239 875 l 740 875 l 740 983 z m 300 1244 l 232 1244 b 297 1107 236 1183 257 1138 b 443 1061 336 1076 385 1061 b 590 1107 502 1061 551 1076 b 657 1244 628 1138 650 1183 l 590 1244 b 540 1159 580 1203 563 1174 b 443 1136 517 1144 485 1136 b 351 1163 408 1136 377 1145 b 300 1244 324 1181 307 1208 z "},"ĕ":{"ha":772,"x_min":0,"x_max":0,"o":"m 683 118 l 601 182 b 514 108 575 150 546 125 b 394 83 481 92 442 83 b 313 100 365 83 338 89 b 247 145 288 111 266 126 b 202 212 229 164 214 186 b 182 292 191 237 184 264 l 707 292 l 707 326 b 685 470 707 380 700 428 b 622 577 670 512 649 548 b 524 644 594 606 562 628 b 399 667 486 659 444 667 b 265 642 350 667 306 658 b 160 572 225 625 189 602 b 90 463 130 541 107 505 b 65 325 74 421 65 375 b 88 192 65 278 73 233 b 153 83 103 150 125 114 b 257 10 182 53 216 28 b 394 -17 298 -8 344 -17 b 556 13 456 -17 509 -7 b 683 118 602 33 644 68 z m 590 383 l 182 383 b 249 517 189 439 212 483 b 394 567 286 550 334 567 b 536 517 455 567 502 550 b 590 383 570 483 588 439 z m 247 975 l 179 975 b 244 838 183 914 204 868 b 390 792 283 807 332 792 b 537 838 450 792 498 807 b 604 975 575 868 598 914 l 538 975 b 487 890 527 934 510 906 b 390 867 463 875 431 867 b 298 894 355 867 324 876 b 247 975 272 912 255 939 z "},"Ė":{"ha":824,"x_min":0,"x_max":0,"o":"m 122 983 l 122 0 l 765 0 l 765 108 l 239 108 l 239 458 l 707 458 l 707 567 l 239 567 l 239 875 l 740 875 l 740 983 z m 443 1219 b 390 1197 422 1219 404 1212 b 368 1144 375 1182 368 1165 b 390 1091 368 1123 375 1105 b 443 1069 404 1077 422 1069 b 497 1091 464 1069 482 1077 b 518 1144 511 1105 518 1123 b 497 1197 518 1165 511 1182 b 443 1219 482 1212 464 1219 z "},"ė":{"ha":772,"x_min":0,"x_max":0,"o":"m 683 118 l 601 182 b 514 108 575 150 546 125 b 394 83 481 92 442 83 b 313 100 365 83 338 89 b 247 145 288 111 266 126 b 202 212 229 164 214 186 b 182 292 191 237 184 264 l 707 292 l 707 326 b 685 470 707 380 700 428 b 622 577 670 512 649 548 b 524 644 594 606 562 628 b 399 667 486 659 444 667 b 265 642 350 667 306 658 b 160 572 225 625 189 602 b 90 463 130 541 107 505 b 65 325 74 421 65 375 b 88 192 65 278 73 233 b 153 83 103 150 125 114 b 257 10 182 53 216 28 b 394 -17 298 -8 344 -17 b 556 13 456 -17 509 -7 b 683 118 602 33 644 68 z m 590 383 l 182 383 b 249 517 189 439 212 483 b 394 567 286 550 334 567 b 536 517 455 567 502 550 b 590 383 570 483 588 439 z m 392 950 b 338 928 370 950 353 943 b 317 875 324 913 317 895 b 338 822 317 854 324 836 b 392 800 353 807 370 800 b 445 822 413 800 431 807 b 467 875 459 836 467 854 b 445 928 467 895 459 913 b 392 950 431 943 413 950 z "},"Ę":{"ha":824,"x_min":0,"x_max":0,"o":"m 122 983 l 122 0 l 622 0 b 578 -34 607 -9 593 -21 b 538 -79 563 -47 550 -62 b 508 -132 525 -96 516 -113 b 496 -189 500 -150 496 -169 b 506 -237 496 -206 499 -222 b 535 -274 513 -251 523 -264 b 576 -299 547 -285 561 -293 b 625 -307 592 -304 608 -307 b 694 -292 649 -307 672 -302 b 753 -253 716 -283 735 -269 l 724 -196 b 692 -216 715 -204 705 -211 b 654 -224 679 -221 666 -224 b 604 -206 632 -225 615 -219 b 588 -160 593 -194 588 -178 b 598 -110 588 -143 591 -127 b 624 -65 605 -94 614 -79 b 659 -28 635 -51 647 -39 b 693 0 672 -17 683 -7 l 765 0 l 765 108 l 239 108 l 239 458 l 707 458 l 707 567 l 239 567 l 239 875 l 740 875 l 740 983 z "},"ę":{"ha":772,"x_min":0,"x_max":0,"o":"m 546 -253 l 517 -196 b 485 -216 508 -204 498 -211 b 447 -224 472 -221 459 -224 b 397 -206 425 -225 408 -219 b 381 -160 386 -194 381 -178 b 389 -116 381 -145 383 -130 b 410 -76 394 -102 402 -88 b 440 -40 419 -63 429 -51 b 471 -11 450 -29 461 -19 b 586 29 513 -5 551 9 b 683 118 621 50 654 79 l 601 182 b 514 108 575 150 546 125 b 394 83 481 92 442 83 b 313 100 365 83 338 89 b 247 145 288 111 266 126 b 202 212 229 164 214 186 b 182 292 191 237 184 264 l 707 292 l 707 326 b 685 470 707 380 700 428 b 622 577 670 512 649 548 b 524 644 594 606 562 628 b 399 667 486 659 444 667 b 265 642 350 667 306 658 b 160 572 225 625 189 602 b 90 463 130 541 107 505 b 65 325 74 421 65 375 b 88 192 65 278 73 234 b 152 84 102 151 124 115 b 255 10 180 53 215 28 b 392 -17 295 -8 341 -17 b 320 -92 365 -37 341 -62 b 289 -189 299 -122 289 -155 b 299 -237 289 -206 292 -222 b 328 -274 306 -251 316 -264 b 369 -299 340 -285 354 -293 b 418 -307 385 -304 401 -307 b 487 -292 442 -307 465 -302 b 546 -253 509 -283 528 -269 z m 590 383 l 182 383 b 248 517 189 439 211 483 b 394 567 284 550 333 567 b 537 517 456 567 503 550 b 590 383 571 483 588 439 z "},"Ě":{"ha":824,"x_min":0,"x_max":0,"o":"m 122 983 l 122 0 l 765 0 l 765 108 l 239 108 l 239 458 l 707 458 l 707 567 l 239 567 l 239 875 l 740 875 l 740 983 z m 510 1053 l 663 1253 l 557 1253 l 450 1111 l 342 1253 l 229 1253 l 383 1053 z "},"ě":{"ha":772,"x_min":0,"x_max":0,"o":"m 683 118 l 601 182 b 514 108 575 150 546 125 b 394 83 481 92 442 83 b 313 100 365 83 338 89 b 247 145 288 111 266 126 b 202 212 229 164 214 186 b 182 292 191 237 184 264 l 707 292 l 707 326 b 685 470 707 380 700 428 b 622 577 670 512 649 548 b 524 644 594 606 562 628 b 399 667 486 659 444 667 b 265 642 350 667 306 658 b 160 572 225 625 189 602 b 90 463 130 541 107 505 b 65 325 74 421 65 375 b 88 192 65 278 73 233 b 153 83 103 150 125 114 b 257 10 182 53 216 28 b 394 -17 298 -8 344 -17 b 556 13 456 -17 509 -7 b 683 118 602 33 644 68 z m 590 383 l 182 383 b 249 517 189 439 212 483 b 394 567 286 550 334 567 b 536 517 455 567 502 550 b 590 383 570 483 588 439 z m 456 783 l 608 983 l 503 983 l 396 842 l 288 983 l 175 983 l 329 783 z "},"Ĝ":{"ha":1081,"x_min":0,"x_max":0,"o":"m 958 67 l 958 550 l 615 550 l 615 442 l 842 442 l 842 140 b 722 98 806 122 766 108 b 597 83 679 88 637 83 b 432 114 537 83 482 94 b 303 199 382 134 339 163 b 220 329 268 236 240 279 b 190 492 200 379 190 433 b 220 656 190 551 200 606 b 303 785 240 706 268 749 b 429 869 339 821 381 849 b 586 900 477 890 530 900 b 733 871 636 900 685 890 b 854 788 780 851 821 824 l 942 879 b 781 979 894 926 841 960 b 594 1008 722 999 659 1008 b 388 971 520 1008 451 996 b 219 866 324 946 268 911 b 106 703 171 821 134 767 b 65 492 79 640 65 569 b 104 281 65 415 78 345 b 213 118 130 218 166 163 b 379 13 260 73 315 38 b 590 -25 443 -12 513 -25 b 780 -3 654 -25 717 -18 b 958 67 842 12 902 35 z m 513 1253 l 358 1053 l 464 1053 l 572 1194 l 682 1053 l 794 1053 l 639 1253 z "},"ĝ":{"ha":849,"x_min":0,"x_max":0,"o":"m 751 29 l 751 650 l 643 650 l 643 539 l 640 539 b 599 595 629 560 615 579 b 542 635 582 611 563 625 b 478 659 522 646 500 654 b 411 667 456 664 433 667 b 269 643 359 667 312 659 b 160 576 227 627 191 605 b 90 468 130 547 107 511 b 65 325 74 425 65 378 b 90 192 65 277 74 232 b 161 86 107 151 131 116 b 271 17 192 56 228 33 b 411 -8 313 0 360 -8 b 539 21 455 -8 497 1 b 640 113 581 40 614 71 l 643 113 l 643 29 b 632 -69 643 -5 639 -38 b 593 -153 625 -101 612 -129 b 517 -212 575 -178 549 -197 b 397 -233 485 -226 445 -233 b 265 -205 347 -233 303 -224 b 156 -121 226 -186 190 -158 l 78 -210 b 224 -306 124 -255 173 -287 b 397 -333 276 -324 333 -333 b 660 -241 512 -333 600 -303 b 751 29 721 -179 751 -89 z m 182 325 b 199 420 182 359 188 391 b 245 497 210 449 225 475 b 317 548 265 518 289 535 b 411 567 346 560 377 567 b 506 549 445 567 477 561 b 579 500 534 538 559 521 b 626 424 600 479 615 453 b 643 328 638 395 643 363 b 628 238 643 296 638 266 b 583 163 618 210 603 185 b 510 111 563 141 538 124 b 411 92 481 98 448 92 b 322 110 380 92 350 98 b 249 159 294 122 270 138 b 200 233 228 180 212 204 b 182 325 188 261 182 292 z m 353 983 l 199 783 l 304 783 l 413 925 l 522 783 l 635 783 l 479 983 z "},"Ğ":{"ha":1081,"x_min":0,"x_max":0,"o":"m 958 67 l 958 550 l 615 550 l 615 442 l 842 442 l 842 140 b 722 98 806 122 766 108 b 597 83 679 88 637 83 b 432 114 537 83 482 94 b 303 199 382 134 339 163 b 220 329 268 236 240 279 b 190 492 200 379 190 433 b 220 656 190 551 200 606 b 303 785 240 706 268 749 b 429 869 339 821 381 849 b 586 900 477 890 530 900 b 733 871 636 900 685 890 b 854 788 780 851 821 824 l 942 879 b 781 979 894 926 841 960 b 594 1008 722 999 659 1008 b 388 971 520 1008 451 996 b 219 866 324 946 268 911 b 106 703 171 821 134 767 b 65 492 79 640 65 569 b 104 281 65 415 78 345 b 213 118 130 218 166 163 b 379 13 260 73 315 38 b 590 -25 443 -12 513 -25 b 780 -3 654 -25 717 -18 b 958 67 842 12 902 35 z m 432 1244 l 364 1244 b 428 1107 368 1183 389 1138 b 575 1061 468 1076 517 1061 b 722 1107 634 1061 683 1076 b 789 1244 760 1138 782 1183 l 722 1244 b 672 1159 712 1203 695 1174 b 575 1136 649 1144 617 1136 b 483 1163 540 1136 509 1145 b 432 1244 456 1181 439 1208 z "},"ğ":{"ha":849,"x_min":0,"x_max":0,"o":"m 751 29 l 751 650 l 643 650 l 643 539 l 640 539 b 599 595 629 560 615 579 b 542 635 582 611 563 625 b 478 659 522 646 500 654 b 411 667 456 664 433 667 b 269 643 359 667 312 659 b 160 576 227 627 191 605 b 90 468 130 547 107 511 b 65 325 74 425 65 378 b 90 192 65 277 74 232 b 161 86 107 151 131 116 b 271 17 192 56 228 33 b 411 -8 313 0 360 -8 b 539 21 455 -8 497 1 b 640 113 581 40 614 71 l 643 113 l 643 29 b 632 -69 643 -5 639 -38 b 593 -153 625 -101 612 -129 b 517 -212 575 -178 549 -197 b 397 -233 485 -226 445 -233 b 265 -205 347 -233 303 -224 b 156 -121 226 -186 190 -158 l 78 -210 b 224 -306 124 -255 173 -287 b 397 -333 276 -324 333 -333 b 660 -241 512 -333 600 -303 b 751 29 721 -179 751 -89 z m 182 325 b 199 420 182 359 188 391 b 245 497 210 449 225 475 b 317 548 265 518 289 535 b 411 567 346 560 377 567 b 506 549 445 567 477 561 b 579 500 534 538 559 521 b 626 424 600 479 615 453 b 643 328 638 395 643 363 b 628 238 643 296 638 266 b 583 163 618 210 603 185 b 510 111 563 141 538 124 b 411 92 481 98 448 92 b 322 110 380 92 350 98 b 249 159 294 122 270 138 b 200 233 228 180 212 204 b 182 325 188 261 182 292 z m 272 975 l 204 975 b 269 838 208 914 229 868 b 415 792 308 807 357 792 b 562 838 475 792 523 807 b 629 975 600 868 623 914 l 563 975 b 512 890 552 934 535 906 b 415 867 488 875 456 867 b 323 894 380 867 349 876 b 272 975 297 912 280 939 z "},"Ġ":{"ha":1081,"x_min":0,"x_max":0,"o":"m 958 67 l 958 550 l 615 550 l 615 442 l 842 442 l 842 140 b 722 98 806 122 766 108 b 597 83 679 88 637 83 b 432 114 537 83 482 94 b 303 199 382 134 339 163 b 220 329 268 236 240 279 b 190 492 200 379 190 433 b 220 656 190 551 200 606 b 303 785 240 706 268 749 b 429 869 339 821 381 849 b 586 900 477 890 530 900 b 733 871 636 900 685 890 b 854 788 780 851 821 824 l 942 879 b 781 979 894 926 841 960 b 594 1008 722 999 659 1008 b 388 971 520 1008 451 996 b 219 866 324 946 268 911 b 106 703 171 821 134 767 b 65 492 79 640 65 569 b 104 281 65 415 78 345 b 213 118 130 218 166 163 b 379 13 260 73 315 38 b 590 -25 443 -12 513 -25 b 780 -3 654 -25 717 -18 b 958 67 842 12 902 35 z m 576 1219 b 523 1197 555 1219 537 1212 b 501 1144 509 1182 501 1165 b 523 1091 501 1123 509 1105 b 576 1069 537 1077 555 1069 b 630 1091 598 1069 616 1077 b 651 1144 644 1105 651 1123 b 630 1197 651 1165 644 1182 b 576 1219 616 1212 598 1219 z "},"ġ":{"ha":849,"x_min":0,"x_max":0,"o":"m 751 29 l 751 650 l 643 650 l 643 539 l 640 539 b 599 595 629 560 615 579 b 542 635 582 611 563 625 b 478 659 522 646 500 654 b 411 667 456 664 433 667 b 269 643 359 667 312 659 b 160 576 227 627 191 605 b 90 468 130 547 107 511 b 65 325 74 425 65 378 b 90 192 65 277 74 232 b 161 86 107 151 131 116 b 271 17 192 56 228 33 b 411 -8 313 0 360 -8 b 539 21 455 -8 497 1 b 640 113 581 40 614 71 l 643 113 l 643 29 b 632 -69 643 -5 639 -38 b 593 -153 625 -101 612 -129 b 517 -212 575 -178 549 -197 b 397 -233 485 -226 445 -233 b 265 -205 347 -233 303 -224 b 156 -121 226 -186 190 -158 l 78 -210 b 224 -306 124 -255 173 -287 b 397 -333 276 -324 333 -333 b 660 -241 512 -333 600 -303 b 751 29 721 -179 751 -89 z m 182 325 b 199 420 182 359 188 391 b 245 497 210 449 225 475 b 317 548 265 518 289 535 b 411 567 346 560 377 567 b 506 549 445 567 477 561 b 579 500 534 538 559 521 b 626 424 600 479 615 453 b 643 328 638 395 643 363 b 628 238 643 296 638 266 b 583 163 618 210 603 185 b 510 111 563 141 538 124 b 411 92 481 98 448 92 b 322 110 380 92 350 98 b 249 159 294 122 270 138 b 200 233 228 180 212 204 b 182 325 188 261 182 292 z m 417 950 b 363 928 395 950 378 943 b 342 875 349 913 342 895 b 363 822 342 854 349 836 b 417 800 378 807 395 800 b 470 822 438 800 456 807 b 492 875 484 836 492 854 b 470 928 492 895 484 913 b 417 950 456 943 438 950 z "},"Ģ":{"ha":1081,"x_min":0,"x_max":0,"o":"m 958 67 l 958 550 l 615 550 l 615 442 l 842 442 l 842 140 b 722 98 806 122 766 108 b 597 83 679 88 637 83 b 432 114 537 83 482 94 b 303 199 382 134 339 163 b 220 329 268 236 240 279 b 190 492 200 379 190 433 b 220 656 190 551 200 606 b 303 785 240 706 268 749 b 429 869 339 821 381 849 b 586 900 477 890 530 900 b 733 871 636 900 685 890 b 854 788 780 851 821 824 l 942 879 b 781 979 894 926 841 960 b 594 1008 722 999 659 1008 b 388 971 520 1008 451 996 b 219 866 324 946 268 911 b 106 703 171 821 134 767 b 65 492 79 640 65 569 b 104 281 65 415 78 345 b 213 118 130 218 166 163 b 379 13 260 73 315 38 b 590 -25 443 -12 513 -25 b 780 -3 654 -25 717 -18 b 958 67 842 12 902 35 z m 551 -317 l 651 -85 l 532 -85 l 460 -317 z "},"ģ":{"ha":849,"x_min":0,"x_max":0,"o":"m 751 29 l 751 650 l 643 650 l 643 539 l 640 539 b 599 595 629 560 615 579 b 542 635 582 611 563 625 b 478 659 522 646 500 654 b 411 667 456 664 433 667 b 269 643 359 667 312 659 b 160 576 227 627 191 605 b 90 468 130 547 107 511 b 65 325 74 425 65 378 b 90 192 65 277 74 232 b 161 86 107 151 131 116 b 271 17 192 56 228 33 b 411 -8 313 0 360 -8 b 539 21 455 -8 497 1 b 640 113 581 40 614 71 l 643 113 l 643 29 b 632 -69 643 -5 639 -38 b 593 -153 625 -101 612 -129 b 517 -212 575 -178 549 -197 b 397 -233 485 -226 445 -233 b 265 -205 347 -233 303 -224 b 156 -121 226 -186 190 -158 l 78 -210 b 224 -306 124 -255 173 -287 b 397 -333 276 -324 333 -333 b 660 -241 512 -333 600 -303 b 751 29 721 -179 751 -89 z m 182 325 b 199 420 182 359 188 391 b 245 497 210 449 225 475 b 317 548 265 518 289 535 b 411 567 346 560 377 567 b 506 549 445 567 477 561 b 579 500 534 538 559 521 b 626 424 600 479 615 453 b 643 328 638 395 643 363 b 628 238 643 296 638 266 b 583 163 618 210 603 185 b 510 111 563 141 538 124 b 411 92 481 98 448 92 b 322 110 380 92 350 98 b 249 159 294 122 270 138 b 200 233 228 180 212 204 b 182 325 188 261 182 292 z m 463 1043 l 363 811 l 482 811 l 554 1043 z "},"Ĥ":{"ha":1003,"x_min":0,"x_max":0,"o":"m 122 983 l 122 0 l 239 0 l 239 458 l 764 458 l 764 0 l 881 0 l 881 983 l 764 983 l 764 567 l 239 567 l 239 983 z m 439 1253 l 285 1053 l 390 1053 l 499 1194 l 608 1053 l 721 1053 l 565 1253 z "},"ĥ":{"ha":772,"x_min":0,"x_max":0,"o":"m 103 1050 l 103 0 l 211 0 l 211 317 b 223 418 211 354 215 388 b 259 497 231 449 243 475 b 322 549 275 519 296 537 b 413 567 347 561 377 567 b 525 519 463 567 501 551 b 561 390 549 488 561 445 l 561 0 l 669 0 l 669 401 b 655 509 669 440 665 476 b 610 593 645 542 630 570 b 533 647 589 616 564 634 b 422 667 502 660 465 667 b 351 657 397 667 374 663 b 291 632 329 650 309 642 b 244 598 273 622 257 610 b 214 560 231 585 221 573 l 211 560 l 211 1050 z m 313 1332 l 158 1132 l 264 1132 l 372 1274 l 482 1132 l 594 1132 l 439 1332 z "},"Ħ":{"ha":1003,"x_min":0,"x_max":0,"o":"m 122 983 l 122 0 l 239 0 l 239 458 l 764 458 l 764 0 l 881 0 l 881 983 l 764 983 l 764 861 l 239 861 l 239 983 z m 764 567 l 239 567 l 239 778 l 764 778 z "},"ħ":{"ha":772,"x_min":0,"x_max":0,"o":"m 386 792 l 386 875 l 211 875 l 211 1050 l 103 1050 l 103 875 l 3 875 l 3 792 l 103 792 l 103 0 l 211 0 l 211 317 b 223 418 211 354 215 388 b 259 497 231 449 243 475 b 322 549 275 519 296 537 b 413 567 347 561 377 567 b 525 520 463 567 501 551 b 561 390 549 489 561 446 l 561 0 l 669 0 l 669 401 b 655 509 669 440 665 476 b 610 593 645 542 630 570 b 533 647 589 616 564 634 b 422 667 502 660 465 667 b 351 657 397 667 374 663 b 291 632 329 650 309 642 b 244 597 273 622 257 610 b 214 560 231 584 221 572 l 211 560 l 211 792 z "},"Ĩ":{"ha":361,"x_min":0,"x_max":0,"o":"m 122 983 l 122 0 l 239 0 l 239 983 z m -50 1069 l 17 1069 b 39 1112 21 1085 29 1099 b 81 1131 49 1124 63 1131 b 128 1122 96 1131 112 1128 b 172 1104 144 1116 158 1110 b 227 1084 190 1097 208 1090 b 285 1075 246 1078 265 1075 b 338 1088 305 1075 323 1079 b 376 1121 352 1096 365 1107 b 401 1167 386 1135 395 1150 b 414 1219 407 1184 411 1202 l 347 1219 b 324 1176 343 1203 335 1188 b 281 1158 314 1164 299 1158 b 242 1166 266 1158 253 1161 b 206 1182 232 1171 219 1176 b 149 1203 187 1189 168 1197 b 89 1214 130 1210 110 1214 b 33 1201 68 1214 49 1210 b -8 1169 18 1193 4 1182 b -35 1122 -19 1155 -28 1140 b -50 1069 -42 1105 -47 1087 z "},"ĩ":{"ha":333,"x_min":0,"x_max":0,"o":"m 113 650 l 113 0 l 221 0 l 221 650 z m -62 800 l 4 800 b 26 842 9 816 16 830 b 68 861 37 855 50 861 b 115 852 84 861 100 858 b 160 835 131 846 146 840 b 215 815 177 827 196 821 b 272 806 234 809 253 806 b 325 818 293 806 310 810 b 363 851 340 826 353 838 b 388 898 374 865 382 881 b 401 950 394 915 399 932 l 335 950 b 312 907 330 933 322 919 b 268 889 301 895 287 889 b 230 897 253 889 241 891 b 193 913 219 902 207 907 b 137 934 175 920 156 927 b 76 944 118 941 98 944 b 22 932 56 944 38 940 b -20 899 5 924 -9 913 b -48 853 -32 886 -41 870 b -62 800 -55 835 -60 818 z "},"Ī":{"ha":361,"x_min":0,"x_max":0,"o":"m 122 983 l 122 0 l 239 0 l 239 983 z m 371 1103 l 371 1186 l -12 1186 l -12 1103 z "},"ī":{"ha":333,"x_min":0,"x_max":0,"o":"m 113 650 l 113 0 l 221 0 l 221 650 z m 360 833 l 360 917 l -24 917 l -24 833 z "},"Ĭ":{"ha":361,"x_min":0,"x_max":0,"o":"m 122 983 l 122 0 l 239 0 l 239 983 z m 36 1236 l -32 1236 b 33 1099 -28 1175 -7 1129 b 179 1053 72 1068 121 1053 b 326 1099 238 1053 287 1068 b 393 1236 364 1129 387 1175 l 326 1236 b 276 1151 316 1195 299 1167 b 179 1128 252 1136 220 1128 b 87 1155 144 1128 113 1137 b 36 1236 60 1173 44 1200 z "},"ĭ":{"ha":333,"x_min":0,"x_max":0,"o":"m 113 650 l 113 0 l 221 0 l 221 650 z m 22 903 l -46 903 b 19 765 -42 842 -21 796 b 165 719 58 735 107 719 b 312 765 225 719 273 735 b 379 903 350 796 373 842 l 313 903 b 262 818 302 862 285 834 b 165 794 238 802 206 794 b 73 822 130 794 99 803 b 22 903 47 840 30 867 z "},"Į":{"ha":361,"x_min":0,"x_max":0,"o":"m 253 -253 l 224 -196 b 192 -216 215 -204 205 -211 b 154 -224 179 -221 166 -224 b 104 -206 132 -225 115 -219 b 88 -160 93 -194 88 -178 b 98 -110 88 -143 91 -127 b 124 -65 105 -94 113 -79 b 158 -28 134 -51 145 -39 b 192 0 170 -17 181 -7 l 239 0 l 239 983 l 122 983 l 122 0 b 78 -34 107 -9 93 -21 b 38 -79 63 -47 50 -62 b 8 -132 25 -96 16 -113 b -4 -189 0 -150 -4 -169 b 6 -237 -4 -206 -1 -222 b 35 -274 13 -251 23 -264 b 76 -299 47 -285 61 -293 b 125 -307 92 -304 108 -307 b 194 -292 149 -307 172 -302 b 253 -253 216 -283 235 -269 z "},"į":{"ha":333,"x_min":0,"x_max":0,"o":"m 113 650 l 113 0 l 129 0 b 85 -34 114 -9 100 -21 b 44 -79 70 -47 56 -62 b 15 -132 32 -96 22 -113 b 3 -189 7 -150 3 -169 b 13 -237 3 -206 6 -222 b 42 -274 20 -251 30 -264 b 83 -299 54 -285 68 -293 b 132 -307 99 -304 115 -307 b 201 -292 156 -307 179 -302 b 260 -253 222 -283 242 -269 l 231 -196 b 199 -216 222 -204 212 -211 b 161 -224 186 -221 173 -224 b 111 -206 139 -225 122 -219 b 94 -160 100 -194 94 -178 b 105 -110 94 -143 98 -127 b 131 -65 112 -94 121 -79 b 166 -28 142 -51 153 -39 b 200 0 178 -17 190 -7 l 221 0 l 221 650 z m 88 904 b 110 847 88 881 95 862 b 167 825 125 832 144 825 b 224 847 190 825 209 832 b 246 904 238 862 246 881 b 223 960 246 925 238 944 b 167 983 208 975 189 983 b 110 960 144 983 126 975 b 88 904 95 944 88 925 z "},"İ":{"ha":361,"x_min":0,"x_max":0,"o":"m 122 983 l 122 0 l 239 0 l 239 983 z m 183 1219 b 130 1197 162 1219 144 1212 b 108 1144 116 1182 108 1165 b 130 1091 108 1123 116 1105 b 183 1069 144 1077 162 1069 b 237 1091 205 1069 222 1077 b 258 1144 251 1105 258 1123 b 237 1197 258 1165 251 1182 b 183 1219 222 1212 205 1219 z "},"ı":{"ha":333,"x_min":0,"x_max":0,"o":"m 113 650 l 113 0 l 221 0 l 221 650 z "},"Ĳ":{"ha":1015,"x_min":0,"x_max":0,"o":"m 122 983 l 122 0 l 239 0 l 239 983 z m 893 254 l 893 983 l 776 983 l 776 294 b 769 216 776 268 774 241 b 745 149 765 191 757 168 b 696 101 734 129 717 113 b 614 83 675 89 647 83 b 515 117 572 83 539 95 b 467 210 490 140 474 171 l 350 186 b 439 28 363 116 393 63 b 613 -25 485 -7 543 -25 b 745 0 665 -25 709 -17 b 831 65 781 17 809 38 b 878 155 853 92 869 122 b 893 254 888 188 893 221 z "},"ĳ":{"ha":626,"x_min":0,"x_max":0,"o":"m 113 650 l 113 0 l 221 0 l 221 650 z m 88 904 b 110 847 88 881 95 862 b 167 825 125 832 144 825 b 224 847 190 825 209 832 b 246 904 238 862 246 881 b 223 960 246 925 238 944 b 167 983 208 975 189 983 b 110 960 144 983 126 975 b 88 904 95 944 88 925 z m 514 -146 l 514 650 l 406 650 l 406 -96 b 402 -149 406 -114 404 -132 b 389 -192 400 -165 395 -180 b 360 -222 382 -205 373 -215 b 311 -233 348 -230 331 -233 b 258 -225 294 -233 276 -231 l 246 -319 b 283 -331 258 -325 270 -329 b 321 -333 295 -332 308 -333 b 419 -313 361 -333 393 -327 b 478 -265 444 -300 464 -284 b 506 -203 492 -246 501 -225 b 514 -146 511 -182 514 -162 z m 381 904 b 403 847 381 881 388 862 b 460 825 418 832 437 825 b 517 847 483 825 502 832 b 539 904 531 862 539 881 b 516 960 539 925 531 944 b 460 983 501 975 482 983 b 403 960 438 983 419 975 b 381 904 388 944 381 925 z "},"Ĵ":{"ha":669,"x_min":0,"x_max":0,"o":"m 547 254 l 547 983 l 431 983 l 431 294 b 424 216 431 268 428 241 b 399 149 419 191 411 168 b 350 101 388 129 371 113 b 268 83 329 89 301 83 b 169 117 226 83 193 95 b 121 210 144 140 128 171 l 4 186 b 93 28 17 116 47 63 b 267 -25 139 -7 197 -25 b 399 0 319 -25 364 -17 b 485 65 435 17 464 38 b 533 155 507 92 523 122 b 547 254 542 188 547 221 z m 421 1253 l 267 1053 l 372 1053 l 481 1194 l 590 1053 l 703 1053 l 547 1253 z "},"ĵ":{"ha":333,"x_min":0,"x_max":0,"o":"m 221 -146 l 221 650 l 113 650 l 113 -96 b 109 -149 113 -114 111 -132 b 96 -192 107 -165 102 -180 b 67 -222 89 -205 80 -215 b 18 -233 55 -230 38 -233 b -35 -225 0 -233 -17 -231 l -47 -319 b -10 -331 -35 -325 -23 -329 b 28 -333 2 -332 15 -333 b 126 -313 68 -333 100 -327 b 185 -265 151 -300 171 -284 b 213 -203 199 -246 208 -225 b 221 -146 218 -182 221 -162 z m 104 983 l -50 783 l 56 783 l 164 925 l 274 783 l 386 783 l 231 983 z "},"Ķ":{"ha":875,"x_min":0,"x_max":0,"o":"m 122 983 l 122 0 l 239 0 l 239 500 l 256 500 l 724 0 l 894 0 l 385 535 l 871 983 l 703 983 l 256 558 l 239 558 l 239 983 z m 419 -317 l 519 -85 l 400 -85 l 328 -317 z "},"ķ":{"ha":694,"x_min":0,"x_max":0,"o":"m 103 1050 l 103 0 l 211 0 l 211 342 l 533 0 l 693 0 l 347 354 l 661 650 l 507 650 l 211 364 l 211 1050 z m 322 -317 l 422 -85 l 303 -85 l 231 -317 z "},"Ĺ":{"ha":694,"x_min":0,"x_max":0,"o":"m 122 983 l 122 0 l 689 0 l 689 108 l 239 108 l 239 983 z m 229 1253 l 85 1053 l 183 1053 l 382 1253 z "},"ĺ":{"ha":333,"x_min":0,"x_max":0,"o":"m 113 1050 l 113 0 l 221 0 l 221 1050 z m 233 1332 l 89 1132 l 188 1132 l 386 1332 z "},"Ļ":{"ha":694,"x_min":0,"x_max":0,"o":"m 122 983 l 122 0 l 689 0 l 689 108 l 239 108 l 239 983 z m 361 -317 l 461 -85 l 342 -85 l 269 -317 z "},"ļ":{"ha":333,"x_min":0,"x_max":0,"o":"m 113 1050 l 113 0 l 221 0 l 221 1050 z m 157 -317 l 257 -85 l 138 -85 l 65 -317 z "},"Ľ":{"ha":694,"x_min":0,"x_max":0,"o":"m 122 983 l 122 0 l 689 0 l 689 108 l 239 108 l 239 983 z m 400 738 l 500 983 l 381 983 l 308 738 z "},"ľ":{"ha":333,"x_min":0,"x_max":0,"o":"m 113 1050 l 113 0 l 221 0 l 221 1050 z m 435 738 l 535 983 l 415 983 l 343 738 z "},"Ŀ":{"ha":694,"x_min":0,"x_max":0,"o":"m 122 983 l 122 0 l 689 0 l 689 108 l 239 108 l 239 983 z m 525 606 b 472 583 504 606 486 598 b 450 531 457 569 450 551 b 472 477 450 509 457 491 b 525 456 486 463 504 456 b 578 477 546 456 564 463 b 600 531 593 491 600 509 b 578 583 600 551 593 569 b 525 606 564 598 546 606 z "},"ŀ":{"ha":467,"x_min":0,"x_max":0,"o":"m 113 1050 l 113 0 l 221 0 l 221 1050 z m 392 607 b 338 585 370 607 353 600 b 317 532 324 570 317 552 b 338 478 317 511 324 493 b 392 457 353 464 370 457 b 445 478 413 457 431 464 b 467 532 459 493 467 511 b 445 585 467 552 459 570 b 392 607 431 600 413 607 z "},"Ł":{"ha":694,"x_min":0,"x_max":0,"o":"m 122 307 l 122 0 l 689 0 l 689 108 l 239 108 l 239 407 l 539 665 l 539 775 l 239 517 l 239 983 l 122 983 l 122 417 l 14 324 l 14 214 z "},"ł":{"ha":333,"x_min":0,"x_max":0,"o":"m 113 428 l 113 0 l 221 0 l 221 538 l 333 650 l 333 763 l 221 650 l 221 1050 l 113 1050 l 113 542 l 0 429 l 0 315 z "},"Ń":{"ha":1081,"x_min":0,"x_max":0,"o":"m 122 983 l 122 0 l 239 0 l 239 817 l 242 817 l 811 0 l 958 0 l 958 983 l 842 983 l 842 167 l 839 167 l 269 983 z m 586 1253 l 442 1053 l 540 1053 l 739 1253 z "},"ń":{"ha":772,"x_min":0,"x_max":0,"o":"m 103 496 l 103 0 l 211 0 l 211 317 b 223 418 211 354 215 388 b 259 497 231 449 243 475 b 322 549 275 519 296 537 b 413 567 347 561 377 567 b 525 519 463 567 501 551 b 561 390 549 488 561 445 l 561 0 l 669 0 l 669 401 b 655 509 669 440 665 476 b 610 593 645 542 630 570 b 533 647 589 616 564 634 b 422 667 502 660 465 667 b 347 656 395 667 370 663 b 285 628 324 649 303 640 b 237 589 266 617 250 604 b 206 543 223 574 213 559 l 203 543 b 201 597 203 562 202 580 b 200 650 200 615 200 632 l 97 650 b 100 579 97 629 98 605 b 103 496 102 553 103 525 z m 418 983 l 274 783 l 372 783 l 571 983 z "},"Ņ":{"ha":1081,"x_min":0,"x_max":0,"o":"m 122 983 l 122 0 l 239 0 l 239 817 l 242 817 l 811 0 l 958 0 l 958 983 l 842 983 l 842 167 l 839 167 l 269 983 z m 494 -317 l 594 -85 l 475 -85 l 403 -317 z "},"ņ":{"ha":772,"x_min":0,"x_max":0,"o":"m 103 496 l 103 0 l 211 0 l 211 317 b 223 418 211 354 215 388 b 259 497 231 449 243 475 b 322 549 275 519 296 537 b 413 567 347 561 377 567 b 525 519 463 567 501 551 b 561 390 549 488 561 445 l 561 0 l 669 0 l 669 401 b 655 509 669 440 665 476 b 610 593 645 542 630 570 b 533 647 589 616 564 634 b 422 667 502 660 465 667 b 347 656 395 667 370 663 b 285 628 324 649 303 640 b 237 589 266 617 250 604 b 206 543 223 574 213 559 l 203 543 b 201 597 203 562 202 580 b 200 650 200 615 200 632 l 97 650 b 100 579 97 629 98 605 b 103 496 102 553 103 525 z m 349 -317 l 449 -85 l 329 -85 l 257 -317 z "},"Ň":{"ha":1081,"x_min":0,"x_max":0,"o":"m 122 983 l 122 0 l 239 0 l 239 817 l 242 817 l 811 0 l 958 0 l 958 983 l 842 983 l 842 167 l 839 167 l 269 983 z m 603 1053 l 756 1253 l 650 1253 l 543 1111 l 435 1253 l 322 1253 l 476 1053 z "},"ň":{"ha":772,"x_min":0,"x_max":0,"o":"m 103 496 l 103 0 l 211 0 l 211 317 b 223 418 211 354 215 388 b 259 497 231 449 243 475 b 322 549 275 519 296 537 b 413 567 347 561 377 567 b 525 519 463 567 501 551 b 561 390 549 488 561 445 l 561 0 l 669 0 l 669 401 b 655 509 669 440 665 476 b 610 593 645 542 630 570 b 533 647 589 616 564 634 b 422 667 502 660 465 667 b 347 656 395 667 370 663 b 285 628 324 649 303 640 b 237 589 266 617 250 604 b 206 543 223 574 213 559 l 203 543 b 201 597 203 562 202 580 b 200 650 200 615 200 632 l 97 650 b 100 579 97 629 98 605 b 103 496 102 553 103 525 z m 460 783 l 613 983 l 507 983 l 400 842 l 292 983 l 179 983 l 333 783 z "},"ŉ":{"ha":772,"x_min":0,"x_max":0,"o":"m 103 496 l 103 0 l 211 0 l 211 317 b 223 418 211 354 215 388 b 259 497 231 449 243 475 b 322 549 275 519 296 537 b 413 567 347 561 377 567 b 525 519 463 567 501 551 b 561 390 549 488 561 445 l 561 0 l 669 0 l 669 401 b 655 509 669 440 665 476 b 610 593 645 542 630 570 b 533 647 589 616 564 634 b 422 667 502 660 465 667 b 347 656 395 667 370 663 b 285 628 324 649 303 640 b 237 589 266 617 250 604 b 206 543 223 574 213 559 l 203 543 b 201 597 203 562 202 580 b 200 650 200 615 200 632 l 97 650 b 100 579 97 629 98 605 b 103 496 102 553 103 525 z m 117 738 l 217 983 l 97 983 l 25 738 z "},"Ō":{"ha":1158,"x_min":0,"x_max":0,"o":"m 579 -25 b 785 14 654 -25 723 -12 b 948 122 848 40 902 76 b 1055 285 994 167 1029 222 b 1093 492 1080 349 1093 418 b 1055 698 1093 566 1080 634 b 948 862 1029 761 994 816 b 785 969 902 908 848 944 b 579 1008 723 995 654 1008 b 373 969 504 1008 435 995 b 210 862 310 944 256 908 b 103 698 165 816 129 761 b 65 492 78 634 65 566 b 103 285 65 418 78 349 b 210 122 129 222 165 167 b 373 14 256 76 310 40 b 579 -25 435 -12 504 -25 z m 579 83 b 422 115 522 83 469 94 b 299 203 374 137 333 166 b 219 333 264 240 238 283 b 190 492 200 382 190 435 b 219 651 190 548 200 601 b 299 781 238 700 264 744 b 422 868 333 818 374 847 b 579 900 469 889 522 900 b 737 868 637 900 689 889 b 860 781 784 847 825 818 b 940 651 894 744 921 700 b 968 492 959 601 968 548 b 940 333 968 435 959 382 b 860 203 921 283 894 240 b 737 115 825 166 784 137 b 579 83 689 94 637 83 z m 772 1103 l 772 1186 l 389 1186 l 389 1103 z "},"ō":{"ha":825,"x_min":0,"x_max":0,"o":"m 65 325 b 92 186 65 274 74 228 b 164 78 109 144 133 109 b 274 8 194 48 231 25 b 413 -17 316 -8 363 -17 b 551 8 463 -17 509 -8 b 661 78 594 25 631 48 b 733 186 692 109 716 144 b 760 325 751 228 760 274 b 733 464 760 376 751 422 b 661 572 716 506 692 541 b 551 642 631 602 594 625 b 413 667 509 658 463 667 b 274 642 363 667 316 658 b 164 572 231 625 194 602 b 92 464 133 541 109 506 b 65 325 74 422 65 376 z m 182 325 b 198 420 182 359 187 391 b 244 497 209 449 224 475 b 317 548 265 518 289 535 b 413 567 346 560 377 567 b 508 548 448 567 479 560 b 581 497 536 535 560 518 b 627 420 601 475 616 449 b 643 325 638 391 643 359 b 627 230 643 291 638 259 b 581 153 616 201 601 175 b 508 102 560 132 536 115 b 413 83 479 90 448 83 b 317 102 377 83 346 90 b 244 153 289 115 265 132 b 198 230 224 175 209 201 b 182 325 187 259 182 291 z m 604 833 l 604 917 l 221 917 l 221 833 z "},"Ŏ":{"ha":1158,"x_min":0,"x_max":0,"o":"m 579 -25 b 785 14 654 -25 723 -12 b 948 122 848 40 902 76 b 1055 285 994 167 1029 222 b 1093 492 1080 349 1093 418 b 1055 698 1093 566 1080 634 b 948 862 1029 761 994 816 b 785 969 902 908 848 944 b 579 1008 723 995 654 1008 b 373 969 504 1008 435 995 b 210 862 310 944 256 908 b 103 698 165 816 129 761 b 65 492 78 634 65 566 b 103 285 65 418 78 349 b 210 122 129 222 165 167 b 373 14 256 76 310 40 b 579 -25 435 -12 504 -25 z m 579 83 b 422 115 522 83 469 94 b 299 203 374 137 333 166 b 219 333 264 240 238 283 b 190 492 200 382 190 435 b 219 651 190 548 200 601 b 299 781 238 700 264 744 b 422 868 333 818 374 847 b 579 900 469 889 522 900 b 737 868 637 900 689 889 b 860 781 784 847 825 818 b 940 651 894 744 921 700 b 968 492 959 601 968 548 b 940 333 968 435 959 382 b 860 203 921 283 894 240 b 737 115 825 166 784 137 b 579 83 689 94 637 83 z m 433 1244 l 365 1244 b 430 1107 369 1183 391 1138 b 576 1061 469 1076 518 1061 b 723 1107 636 1061 684 1076 b 790 1244 761 1138 784 1183 l 724 1244 b 674 1159 713 1203 697 1174 b 576 1136 650 1144 618 1136 b 484 1163 541 1136 510 1145 b 433 1244 458 1181 441 1208 z "},"ŏ":{"ha":825,"x_min":0,"x_max":0,"o":"m 65 325 b 92 186 65 274 74 228 b 164 78 109 144 133 109 b 274 8 194 48 231 25 b 413 -17 316 -8 363 -17 b 551 8 463 -17 509 -8 b 661 78 594 25 631 48 b 733 186 692 109 716 144 b 760 325 751 228 760 274 b 733 464 760 376 751 422 b 661 572 716 506 692 541 b 551 642 631 602 594 625 b 413 667 509 658 463 667 b 274 642 363 667 316 658 b 164 572 231 625 194 602 b 92 464 133 541 109 506 b 65 325 74 422 65 376 z m 182 325 b 198 420 182 359 187 391 b 244 497 209 449 224 475 b 317 548 265 518 289 535 b 413 567 346 560 377 567 b 508 548 448 567 479 560 b 581 497 536 535 560 518 b 627 420 601 475 616 449 b 643 325 638 391 643 359 b 627 230 643 291 638 259 b 581 153 616 201 601 175 b 508 102 560 132 536 115 b 413 83 479 90 448 83 b 317 102 377 83 346 90 b 244 153 289 115 265 132 b 198 230 224 175 209 201 b 182 325 187 259 182 291 z m 268 975 l 200 975 b 265 838 204 914 225 868 b 411 792 304 807 353 792 b 558 838 470 792 519 807 b 625 975 596 868 619 914 l 558 975 b 508 890 548 934 531 906 b 411 867 484 875 452 867 b 319 894 376 867 345 876 b 268 975 292 912 275 939 z "},"Ő":{"ha":1158,"x_min":0,"x_max":0,"o":"m 579 -25 b 785 14 654 -25 723 -12 b 948 122 848 40 902 76 b 1055 285 994 167 1029 222 b 1093 492 1080 349 1093 418 b 1055 698 1093 566 1080 634 b 948 862 1029 761 994 816 b 785 969 902 908 848 944 b 579 1008 723 995 654 1008 b 373 969 504 1008 435 995 b 210 862 310 944 256 908 b 103 698 165 816 129 761 b 65 492 78 634 65 566 b 103 285 65 418 78 349 b 210 122 129 222 165 167 b 373 14 256 76 310 40 b 579 -25 435 -12 504 -25 z m 579 83 b 422 115 522 83 469 94 b 299 203 374 137 333 166 b 219 333 264 240 238 283 b 190 492 200 382 190 435 b 219 651 190 548 200 601 b 299 781 238 700 264 744 b 422 868 333 818 374 847 b 579 900 469 889 522 900 b 737 868 637 900 689 889 b 860 781 784 847 825 818 b 940 651 894 744 921 700 b 968 492 959 601 968 548 b 940 333 968 435 959 382 b 860 203 921 283 894 240 b 737 115 825 166 784 137 b 579 83 689 94 637 83 z m 519 1053 l 699 1253 l 565 1253 l 426 1053 z m 738 1053 l 936 1253 l 794 1253 l 643 1053 z "},"ő":{"ha":825,"x_min":0,"x_max":0,"o":"m 65 325 b 92 186 65 274 74 228 b 164 78 109 144 133 109 b 274 8 194 48 231 25 b 413 -17 316 -8 363 -17 b 551 8 463 -17 509 -8 b 661 78 594 25 631 48 b 733 186 692 109 716 144 b 760 325 751 228 760 274 b 733 464 760 376 751 422 b 661 572 716 506 692 541 b 551 642 631 602 594 625 b 413 667 509 658 463 667 b 274 642 363 667 316 658 b 164 572 231 625 194 602 b 92 464 133 541 109 506 b 65 325 74 422 65 376 z m 182 325 b 198 420 182 359 187 391 b 244 497 209 449 224 475 b 317 548 265 518 289 535 b 413 567 346 560 377 567 b 508 548 448 567 479 560 b 581 497 536 535 560 518 b 627 420 601 475 616 449 b 643 325 638 391 643 359 b 627 230 643 291 638 259 b 581 153 616 201 601 175 b 508 102 560 132 536 115 b 413 83 479 90 448 83 b 317 102 377 83 346 90 b 244 153 289 115 265 132 b 198 230 224 175 209 201 b 182 325 187 259 182 291 z m 350 783 l 529 983 l 396 983 l 257 783 z m 568 783 l 767 983 l 625 983 l 474 783 z "},"Œ":{"ha":1338,"x_min":0,"x_max":0,"o":"m 836 567 l 836 875 l 1253 875 l 1253 983 l 622 983 b 384 942 531 983 452 970 b 214 833 316 915 259 879 b 111 676 169 788 134 736 b 76 492 88 617 76 556 b 111 307 76 428 88 366 b 214 150 134 248 169 195 b 384 41 259 105 316 68 b 622 0 452 14 531 0 l 1261 0 l 1261 108 l 836 108 l 836 458 l 1228 458 l 1228 567 z m 719 875 l 719 108 l 628 108 b 437 142 554 108 490 119 b 304 229 384 164 339 193 b 226 352 269 265 243 306 b 201 492 210 398 201 444 b 226 631 201 539 210 585 b 304 754 243 677 269 718 b 437 842 339 790 384 819 b 628 875 490 864 554 875 z "},"œ":{"ha":1260,"x_min":0,"x_max":0,"o":"m 708 292 l 1210 292 l 1210 326 b 1188 470 1210 380 1202 428 b 1124 577 1173 512 1152 548 b 1026 644 1097 606 1064 628 b 901 667 988 659 947 667 b 656 536 805 667 723 623 b 538 636 620 582 581 616 b 385 667 494 656 443 667 b 249 641 336 667 291 658 b 143 569 208 624 173 600 b 74 461 113 539 91 503 b 50 325 58 419 50 374 b 74 185 50 273 58 226 b 142 77 91 143 113 107 b 249 8 172 47 207 24 b 389 -17 290 -9 337 -17 b 541 17 447 -17 498 -6 b 656 117 584 39 622 72 b 763 15 684 69 720 35 b 897 -17 805 -6 850 -17 b 1058 13 958 -17 1012 -7 b 1186 118 1105 33 1147 68 l 1104 182 b 1017 108 1078 150 1049 125 b 897 83 984 92 944 83 b 822 100 870 83 845 89 b 763 145 799 111 779 126 b 723 211 746 164 733 186 b 708 292 713 236 708 263 z m 167 325 b 181 419 167 358 171 390 b 223 495 190 448 204 473 b 293 547 242 517 265 534 b 389 567 321 560 353 567 b 485 547 425 567 457 560 b 553 493 513 533 535 515 b 594 416 572 471 585 445 b 608 325 604 387 608 356 b 594 231 608 292 603 260 b 551 154 584 202 570 176 b 481 102 532 132 508 115 b 383 83 453 90 420 83 b 288 103 347 83 316 90 b 220 157 261 117 238 135 b 180 234 202 179 189 205 b 167 325 171 263 167 294 z m 1093 383 l 708 383 b 724 450 709 406 715 428 b 764 509 734 472 747 492 b 823 551 781 526 800 540 b 897 567 846 561 870 567 b 1039 517 957 567 1005 550 b 1093 383 1073 483 1091 439 z "},"Ŕ":{"ha":849,"x_min":0,"x_max":0,"o":"m 122 983 l 122 0 l 239 0 l 239 442 l 389 442 l 656 0 l 799 0 l 519 453 b 700 538 596 465 656 493 b 765 713 744 582 765 640 b 731 858 765 774 754 822 b 640 939 707 893 677 920 b 515 975 603 957 561 969 b 374 983 468 981 421 983 z m 239 550 l 239 875 l 403 875 b 488 869 431 875 460 873 b 565 847 516 866 542 858 b 619 797 587 835 606 819 b 640 713 633 776 640 748 b 612 619 640 672 631 641 b 540 571 593 597 569 581 b 444 553 510 561 478 555 b 343 550 409 551 375 550 z m 446 1253 l 301 1053 l 400 1053 l 599 1253 z "},"ŕ":{"ha":489,"x_min":0,"x_max":0,"o":"m 103 496 l 103 0 l 211 0 l 211 317 b 256 494 211 392 226 451 b 401 558 286 537 335 558 b 460 550 422 558 441 556 l 467 660 b 444 665 459 663 452 664 b 422 667 437 666 430 667 b 347 656 395 667 370 663 b 285 628 324 649 303 640 b 237 589 266 617 250 604 b 206 543 223 574 213 559 l 203 543 b 201 597 203 562 202 580 b 200 650 200 615 200 632 l 97 650 b 100 579 97 629 98 605 b 103 496 102 553 103 525 z m 329 983 l 185 783 l 283 783 l 482 983 z "},"Ŗ":{"ha":849,"x_min":0,"x_max":0,"o":"m 122 983 l 122 0 l 239 0 l 239 442 l 389 442 l 656 0 l 799 0 l 519 453 b 700 538 596 465 656 493 b 765 713 744 582 765 640 b 731 858 765 774 754 822 b 640 939 707 893 677 920 b 515 975 603 957 561 969 b 374 983 468 981 421 983 z m 239 550 l 239 875 l 403 875 b 488 869 431 875 460 873 b 565 847 516 866 542 858 b 619 797 587 835 606 819 b 640 713 633 776 640 748 b 612 619 640 672 631 641 b 540 571 593 597 569 581 b 444 553 510 561 478 555 b 343 550 409 551 375 550 z m 371 -317 l 471 -85 l 351 -85 l 279 -317 z "},"ŗ":{"ha":489,"x_min":0,"x_max":0,"o":"m 103 496 l 103 0 l 211 0 l 211 317 b 256 494 211 392 226 451 b 401 558 286 537 335 558 b 460 550 422 558 441 556 l 467 660 b 444 665 459 663 452 664 b 422 667 437 666 430 667 b 347 656 395 667 370 663 b 285 628 324 649 303 640 b 237 589 266 617 250 604 b 206 543 223 574 213 559 l 203 543 b 201 597 203 562 202 580 b 200 650 200 615 200 632 l 97 650 b 100 579 97 629 98 605 b 103 496 102 553 103 525 z m 203 -317 l 303 -85 l 183 -85 l 111 -317 z "},"Ř":{"ha":849,"x_min":0,"x_max":0,"o":"m 122 983 l 122 0 l 239 0 l 239 442 l 389 442 l 656 0 l 799 0 l 519 453 b 700 538 596 465 656 493 b 765 713 744 582 765 640 b 731 858 765 774 754 822 b 640 939 707 893 677 920 b 515 975 603 957 561 969 b 374 983 468 981 421 983 z m 239 550 l 239 875 l 403 875 b 488 869 431 875 460 873 b 565 847 516 866 542 858 b 619 797 587 835 606 819 b 640 713 633 776 640 748 b 612 619 640 672 631 641 b 540 571 593 597 569 581 b 444 553 510 561 478 555 b 343 550 409 551 375 550 z m 478 1053 l 631 1253 l 525 1253 l 418 1111 l 310 1253 l 197 1253 l 351 1053 z "},"ř":{"ha":489,"x_min":0,"x_max":0,"o":"m 103 496 l 103 0 l 211 0 l 211 317 b 256 494 211 392 226 451 b 401 558 286 537 335 558 b 460 550 422 558 441 556 l 467 660 b 444 665 459 663 452 664 b 422 667 437 666 430 667 b 347 656 395 667 370 663 b 285 628 324 649 303 640 b 237 589 266 617 250 604 b 206 543 223 574 213 559 l 203 543 b 201 597 203 562 202 580 b 200 650 200 615 200 632 l 97 650 b 100 579 97 629 98 605 b 103 496 102 553 103 525 z m 322 783 l 475 983 l 369 983 l 263 842 l 154 983 l 42 983 l 196 783 z "},"Ś":{"ha":772,"x_min":0,"x_max":0,"o":"m 589 810 l 685 893 b 562 983 649 936 608 966 b 410 1008 516 1000 465 1008 b 285 990 366 1008 325 1002 b 178 937 245 978 209 960 b 103 849 146 913 121 884 b 75 725 84 813 75 772 b 94 620 75 684 81 649 b 145 545 106 591 123 566 b 222 492 167 524 193 507 b 319 454 252 478 284 465 b 433 415 363 439 401 426 b 514 378 466 404 493 392 b 561 328 535 364 551 347 b 576 254 571 309 576 285 b 557 181 576 226 570 202 b 507 127 544 159 527 141 b 438 94 487 113 464 102 b 363 83 413 87 388 83 b 242 111 320 83 280 93 b 153 193 204 130 174 157 l 53 111 b 113 48 69 86 89 65 b 187 6 136 31 160 17 b 269 -17 213 -4 241 -12 b 356 -25 298 -22 327 -25 b 485 -8 400 -25 443 -19 b 595 45 526 4 563 22 b 672 135 627 69 653 99 b 701 263 692 171 701 213 b 677 383 701 311 693 351 b 612 463 661 415 639 441 b 517 515 584 484 553 501 b 407 554 482 529 445 542 b 308 590 368 566 335 578 b 244 629 281 602 260 615 b 210 676 229 643 217 659 b 200 735 203 693 200 713 b 218 810 200 763 206 788 b 266 861 230 831 246 848 b 333 890 286 874 308 884 b 410 900 358 897 384 900 b 511 878 445 900 479 893 b 589 810 544 864 569 841 z m 453 1253 l 308 1053 l 407 1053 l 606 1253 z "},"ś":{"ha":592,"x_min":0,"x_max":0,"o":"m 117 171 l 31 104 b 140 9 63 58 99 26 b 283 -17 180 -8 228 -17 b 378 -6 316 -17 347 -13 b 462 30 409 2 437 14 b 521 93 486 46 506 67 b 543 188 536 119 543 150 b 526 269 543 220 538 247 b 481 325 515 292 500 310 b 413 360 461 340 438 352 b 331 382 387 369 359 376 b 269 396 309 386 289 390 b 216 415 249 401 231 408 b 180 441 201 423 189 431 b 167 476 171 451 167 463 b 178 516 167 491 171 504 b 208 544 186 528 196 537 b 249 561 220 552 234 557 b 294 567 265 565 280 567 b 377 545 327 567 354 559 b 432 489 400 531 418 512 l 522 549 b 430 639 500 590 469 620 b 301 667 391 657 348 667 b 213 654 271 667 241 663 b 135 618 184 646 158 634 b 79 558 112 602 93 582 b 58 475 65 534 58 506 b 77 393 58 442 65 414 b 127 341 90 372 106 354 b 200 308 148 328 172 317 b 288 286 228 300 257 293 b 339 274 305 282 322 278 b 383 255 356 269 370 263 b 415 226 396 247 407 238 b 426 183 422 215 426 201 b 414 138 426 166 422 151 b 381 107 406 126 394 115 b 334 89 367 99 351 93 b 283 83 317 85 300 83 b 187 107 244 83 212 91 b 117 171 161 123 138 144 z m 354 983 l 210 783 l 308 783 l 507 983 z "},"Ŝ":{"ha":772,"x_min":0,"x_max":0,"o":"m 589 810 l 685 893 b 562 983 649 936 608 966 b 410 1008 516 1000 465 1008 b 285 990 366 1008 325 1002 b 178 937 245 978 209 960 b 103 849 146 913 121 884 b 75 725 84 813 75 772 b 94 620 75 684 81 649 b 145 545 106 591 123 566 b 222 492 167 524 193 507 b 319 454 252 478 284 465 b 433 415 363 439 401 426 b 514 378 466 404 493 392 b 561 328 535 364 551 347 b 576 254 571 309 576 285 b 557 181 576 226 570 202 b 507 127 544 159 527 141 b 438 94 487 113 464 102 b 363 83 413 87 388 83 b 242 111 320 83 280 93 b 153 193 204 130 174 157 l 53 111 b 113 48 69 86 89 65 b 187 6 136 31 160 17 b 269 -17 213 -4 241 -12 b 356 -25 298 -22 327 -25 b 485 -8 400 -25 443 -19 b 595 45 526 4 563 22 b 672 135 627 69 653 99 b 701 263 692 171 701 213 b 677 383 701 311 693 351 b 612 463 661 415 639 441 b 517 515 584 484 553 501 b 407 554 482 529 445 542 b 308 590 368 566 335 578 b 244 629 281 602 260 615 b 210 676 229 643 217 659 b 200 735 203 693 200 713 b 218 810 200 763 206 788 b 266 861 230 831 246 848 b 333 890 286 874 308 884 b 410 900 358 897 384 900 b 511 878 445 900 479 893 b 589 810 544 864 569 841 z m 343 1253 l 189 1053 l 294 1053 l 403 1194 l 513 1053 l 625 1053 l 469 1253 z "},"ŝ":{"ha":592,"x_min":0,"x_max":0,"o":"m 117 171 l 31 104 b 140 9 63 58 99 26 b 283 -17 180 -8 228 -17 b 378 -6 316 -17 347 -13 b 462 30 409 2 437 14 b 521 93 486 46 506 67 b 543 188 536 119 543 150 b 526 269 543 220 538 247 b 481 325 515 292 500 310 b 413 360 461 340 438 352 b 331 382 387 369 359 376 b 269 396 309 386 289 390 b 216 415 249 401 231 408 b 180 441 201 423 189 431 b 167 476 171 451 167 463 b 178 516 167 491 171 504 b 208 544 186 528 196 537 b 249 561 220 552 234 557 b 294 567 265 565 280 567 b 377 545 327 567 354 559 b 432 489 400 531 418 512 l 522 549 b 430 639 500 590 469 620 b 301 667 391 657 348 667 b 213 654 271 667 241 663 b 135 618 184 646 158 634 b 79 558 112 602 93 582 b 58 475 65 534 58 506 b 77 393 58 442 65 414 b 127 341 90 372 106 354 b 200 308 148 328 172 317 b 288 286 228 300 257 293 b 339 274 305 282 322 278 b 383 255 356 269 370 263 b 415 226 396 247 407 238 b 426 183 422 215 426 201 b 414 138 426 166 422 151 b 381 107 406 126 394 115 b 334 89 367 99 351 93 b 283 83 317 85 300 83 b 187 107 244 83 212 91 b 117 171 161 123 138 144 z m 246 983 l 92 783 l 197 783 l 306 925 l 415 783 l 528 783 l 372 983 z "},"Ş":{"ha":772,"x_min":0,"x_max":0,"o":"m 589 810 l 685 893 b 562 983 649 936 608 966 b 410 1008 516 1000 465 1008 b 285 990 366 1008 325 1002 b 178 937 245 978 209 960 b 103 849 146 913 121 884 b 75 725 84 813 75 772 b 94 620 75 684 81 649 b 145 545 106 591 123 566 b 222 492 167 524 193 507 b 319 454 252 478 284 465 b 433 415 363 439 401 426 b 514 378 466 404 493 392 b 561 328 535 364 551 347 b 576 254 571 309 576 285 b 557 181 576 226 570 202 b 507 127 544 159 527 141 b 438 94 487 113 464 102 b 363 83 413 87 388 83 b 242 111 320 83 280 93 b 153 193 204 130 174 157 l 53 111 b 110 50 69 87 88 67 b 181 9 132 33 156 20 b 262 -15 207 -2 234 -10 b 346 -25 290 -21 318 -24 l 278 -118 l 306 -144 b 332 -137 314 -142 323 -139 b 360 -133 341 -134 350 -133 b 408 -145 375 -133 391 -137 b 432 -186 424 -153 432 -167 b 424 -214 432 -197 429 -206 b 403 -231 418 -221 411 -227 b 376 -240 394 -235 385 -238 b 347 -243 366 -242 356 -243 b 247 -221 311 -243 278 -236 l 224 -272 b 290 -294 245 -282 267 -290 b 361 -301 313 -299 337 -301 b 418 -295 380 -301 399 -299 b 471 -274 438 -291 455 -284 b 509 -236 487 -265 499 -252 b 524 -179 519 -220 524 -201 b 513 -136 524 -162 520 -148 b 486 -106 506 -124 497 -114 b 450 -89 475 -98 463 -93 b 413 -83 437 -85 425 -83 b 385 -85 401 -83 392 -84 b 364 -89 377 -87 370 -88 l 411 -22 b 522 6 450 -18 487 -8 b 615 62 557 19 588 38 b 678 147 641 85 662 114 b 701 263 694 181 701 219 b 677 383 701 311 693 351 b 612 463 661 415 639 441 b 517 515 584 484 553 501 b 407 554 482 529 445 542 b 308 590 368 566 335 578 b 244 629 281 602 260 615 b 210 676 229 643 217 659 b 200 735 203 693 200 713 b 218 810 200 763 206 788 b 266 861 230 831 246 848 b 333 890 286 874 308 884 b 410 900 358 897 384 900 b 511 878 445 900 479 893 b 589 810 544 864 569 841 z "},"ş":{"ha":592,"x_min":0,"x_max":0,"o":"m 117 171 l 31 104 b 133 12 60 60 94 29 b 265 -17 171 -5 215 -15 l 192 -118 l 219 -144 b 246 -137 228 -142 237 -139 b 274 -133 255 -134 264 -133 b 322 -145 289 -133 305 -137 b 346 -186 338 -153 346 -167 b 338 -214 346 -197 343 -206 b 317 -231 332 -221 325 -227 b 290 -240 308 -235 299 -238 b 261 -243 280 -242 270 -243 b 161 -221 225 -243 192 -236 l 138 -272 b 204 -294 159 -282 181 -290 b 275 -301 227 -299 251 -301 b 332 -295 294 -301 313 -299 b 385 -274 351 -291 369 -284 b 423 -236 400 -265 413 -252 b 438 -179 433 -220 438 -201 b 427 -136 438 -162 434 -148 b 400 -106 420 -124 411 -114 b 364 -89 389 -98 377 -93 b 326 -83 351 -85 338 -83 b 299 -85 315 -83 306 -84 b 278 -89 291 -87 284 -88 l 331 -14 b 410 4 358 -11 385 -5 b 478 43 436 13 459 26 b 526 103 498 60 514 80 b 543 188 537 127 543 155 b 526 269 543 220 538 247 b 481 325 515 292 500 310 b 413 360 461 340 438 352 b 331 382 387 369 359 376 b 269 396 309 386 289 390 b 216 415 249 401 231 408 b 180 442 201 423 189 431 b 167 476 171 452 167 463 b 178 516 167 491 171 504 b 208 544 186 528 196 537 b 249 561 220 552 234 557 b 294 567 265 565 280 567 b 377 545 327 567 354 559 b 432 489 400 531 418 512 l 522 549 b 431 639 500 590 469 620 b 301 667 392 657 349 667 b 213 654 271 667 241 663 b 135 618 184 646 158 634 b 79 558 112 602 93 582 b 58 475 65 534 58 506 b 77 393 58 442 65 414 b 127 341 90 372 106 354 b 200 308 148 328 172 317 b 288 286 228 300 257 293 b 339 274 305 282 322 278 b 383 255 356 269 370 263 b 415 226 396 247 407 238 b 426 183 422 215 426 201 b 414 138 426 166 422 151 b 381 107 406 126 394 115 b 334 89 367 99 351 93 b 283 83 317 85 300 83 b 187 107 244 83 212 91 b 117 171 161 123 138 144 z "},"Š":{"ha":772,"x_min":0,"x_max":0,"o":"m 589 810 l 685 893 b 562 983 649 936 608 966 b 410 1008 516 1000 465 1008 b 285 990 366 1008 325 1002 b 178 937 245 978 209 960 b 103 849 146 913 121 884 b 75 725 84 813 75 772 b 94 620 75 684 81 649 b 145 545 106 591 123 566 b 222 492 167 524 193 507 b 319 454 252 478 284 465 b 433 415 363 439 401 426 b 514 378 466 404 493 392 b 561 328 535 364 551 347 b 576 254 571 309 576 285 b 557 181 576 226 570 202 b 507 127 544 159 527 141 b 438 94 487 113 464 102 b 363 83 413 87 388 83 b 242 111 320 83 280 93 b 153 193 204 130 174 157 l 53 111 b 113 48 69 86 89 65 b 187 6 136 31 160 17 b 269 -17 213 -4 241 -12 b 356 -25 298 -22 327 -25 b 485 -8 400 -25 443 -19 b 595 45 526 4 563 22 b 672 135 627 69 653 99 b 701 263 692 171 701 213 b 677 383 701 311 693 351 b 612 463 661 415 639 441 b 517 515 584 484 553 501 b 407 554 482 529 445 542 b 308 590 368 566 335 578 b 244 629 281 602 260 615 b 210 676 229 643 217 659 b 200 735 203 693 200 713 b 218 810 200 763 206 788 b 266 861 230 831 246 848 b 333 890 286 874 308 884 b 410 900 358 897 384 900 b 511 878 445 900 479 893 b 589 810 544 864 569 841 z m 450 1053 l 603 1253 l 497 1253 l 390 1111 l 282 1253 l 169 1253 l 324 1053 z "},"š":{"ha":592,"x_min":0,"x_max":0,"o":"m 117 171 l 31 104 b 140 9 63 58 99 26 b 283 -17 180 -8 228 -17 b 378 -6 316 -17 347 -13 b 462 30 409 2 437 14 b 521 93 486 46 506 67 b 543 188 536 119 543 150 b 526 269 543 220 538 247 b 481 325 515 292 500 310 b 413 360 461 340 438 352 b 331 382 387 369 359 376 b 269 396 309 386 289 390 b 216 415 249 401 231 408 b 180 441 201 423 189 431 b 167 476 171 451 167 463 b 178 516 167 491 171 504 b 208 544 186 528 196 537 b 249 561 220 552 234 557 b 294 567 265 565 280 567 b 377 545 327 567 354 559 b 432 489 400 531 418 512 l 522 549 b 430 639 500 590 469 620 b 301 667 391 657 348 667 b 213 654 271 667 241 663 b 135 618 184 646 158 634 b 79 558 112 602 93 582 b 58 475 65 534 58 506 b 77 393 58 442 65 414 b 127 341 90 372 106 354 b 200 308 148 328 172 317 b 288 286 228 300 257 293 b 339 274 305 282 322 278 b 383 255 356 269 370 263 b 415 226 396 247 407 238 b 426 183 422 215 426 201 b 414 138 426 166 422 151 b 381 107 406 126 394 115 b 334 89 367 99 351 93 b 283 83 317 85 300 83 b 187 107 244 83 212 91 b 117 171 161 123 138 144 z m 360 806 l 513 1006 l 407 1006 l 300 864 l 192 1006 l 79 1006 l 233 806 z "},"Ţ":{"ha":797,"x_min":0,"x_max":0,"o":"m 782 875 l 782 983 l 15 983 l 15 875 l 340 875 l 340 0 l 457 0 l 457 875 z m 376 -89 l 439 0 l 376 0 l 290 -118 l 318 -144 b 344 -137 326 -142 335 -139 b 372 -133 354 -134 363 -133 b 420 -145 388 -133 404 -137 b 444 -186 436 -153 444 -167 b 436 -214 444 -197 442 -206 b 415 -231 431 -221 424 -227 b 388 -240 407 -235 398 -238 b 360 -243 378 -242 369 -243 b 260 -221 325 -243 292 -236 l 236 -272 b 303 -294 257 -282 280 -290 b 374 -301 326 -299 350 -301 b 431 -295 392 -301 411 -299 b 483 -274 450 -291 468 -284 b 522 -236 499 -265 512 -252 b 536 -179 531 -220 536 -201 b 526 -136 536 -162 533 -148 b 499 -106 519 -124 510 -114 b 463 -89 488 -98 475 -93 b 425 -83 450 -85 437 -83 b 397 -85 414 -83 405 -84 b 376 -89 390 -87 383 -88 z "},"ţ":{"ha":489,"x_min":0,"x_max":0,"o":"m 458 558 l 458 650 l 267 650 l 267 835 l 158 835 l 158 650 l 17 650 l 17 558 l 158 558 l 158 201 b 165 110 158 168 160 138 b 190 42 169 83 177 60 b 244 -1 203 23 221 9 b 338 -17 268 -12 299 -17 b 402 -11 358 -17 379 -15 b 464 7 425 -7 445 -1 l 460 106 b 413 89 445 98 429 93 b 364 83 396 85 380 83 b 308 95 340 83 321 87 b 279 127 295 103 286 114 b 268 174 273 141 269 156 b 267 233 267 192 267 212 l 267 558 z m 293 -89 l 356 0 l 293 0 l 207 -118 l 235 -144 b 261 -137 243 -142 252 -139 b 289 -133 270 -134 280 -133 b 337 -145 305 -133 321 -137 b 361 -186 353 -153 361 -167 b 353 -214 361 -197 358 -206 b 332 -231 347 -221 340 -227 b 305 -240 324 -235 315 -238 b 276 -243 295 -242 286 -243 b 176 -221 242 -243 209 -236 l 153 -272 b 219 -294 174 -282 196 -290 b 290 -301 243 -299 266 -301 b 347 -295 309 -301 328 -299 b 400 -274 367 -291 384 -284 b 438 -236 416 -265 428 -252 b 453 -179 448 -220 453 -201 b 442 -136 453 -162 449 -148 b 415 -106 435 -124 426 -114 b 379 -89 404 -98 392 -93 b 342 -83 366 -85 354 -83 b 314 -85 331 -83 321 -84 b 293 -89 306 -87 300 -88 z "},"Ť":{"ha":797,"x_min":0,"x_max":0,"o":"m 782 875 l 782 983 l 15 983 l 15 875 l 340 875 l 340 0 l 457 0 l 457 875 z m 463 1053 l 615 1253 l 510 1253 l 403 1111 l 294 1253 l 182 1253 l 336 1053 z "},"ť":{"ha":489,"x_min":0,"x_max":0,"o":"m 458 558 l 458 650 l 267 650 l 267 835 l 158 835 l 158 650 l 17 650 l 17 558 l 158 558 l 158 201 b 165 110 158 168 160 138 b 190 42 169 83 177 60 b 244 -1 203 23 221 9 b 338 -17 268 -12 299 -17 b 402 -11 358 -17 379 -15 b 464 7 425 -7 445 -1 l 460 106 b 413 89 445 98 429 93 b 364 83 396 85 380 83 b 308 95 340 83 321 87 b 279 127 295 103 286 114 b 268 174 273 141 269 156 b 267 233 267 192 267 212 l 267 558 z m 449 738 l 549 983 l 429 983 l 357 738 z "},"Ŧ":{"ha":797,"x_min":0,"x_max":0,"o":"m 664 568 l 664 651 l 457 651 l 457 875 l 782 875 l 782 983 l 15 983 l 15 875 l 340 875 l 340 651 l 142 651 l 142 568 l 340 568 l 340 0 l 457 0 l 457 568 z "},"ŧ":{"ha":489,"x_min":0,"x_max":0,"o":"m 432 385 l 432 468 l 267 468 l 267 558 l 458 558 l 458 650 l 267 650 l 267 835 l 158 835 l 158 650 l 17 650 l 17 558 l 158 558 l 158 468 l 49 468 l 49 385 l 158 385 l 158 201 b 165 110 158 168 160 138 b 190 42 169 83 177 60 b 244 -1 203 23 221 9 b 338 -17 268 -12 299 -17 b 402 -11 358 -17 379 -15 b 464 7 425 -7 445 -1 l 460 106 b 413 89 445 98 429 93 b 364 83 396 85 380 83 b 308 95 340 83 321 87 b 279 127 295 103 286 114 b 268 174 273 141 269 156 b 267 233 267 192 267 212 l 267 385 z "},"Ũ":{"ha":978,"x_min":0,"x_max":0,"o":"m 860 375 l 860 983 l 743 983 l 743 392 b 731 276 743 352 739 313 b 689 178 722 239 708 206 b 611 109 669 149 644 126 b 489 83 579 92 538 83 b 367 109 440 83 399 92 b 289 178 334 126 308 149 b 247 276 269 206 256 239 b 235 392 239 313 235 352 l 235 983 l 118 983 l 118 375 b 138 222 118 321 125 270 b 202 95 152 174 173 132 b 317 8 231 59 269 29 b 489 -25 364 -14 421 -25 b 661 8 556 -25 614 -14 b 776 95 708 29 747 59 b 840 222 805 132 826 174 b 860 375 853 270 860 321 z m 258 1069 l 325 1069 b 347 1112 330 1085 337 1099 b 389 1131 357 1124 371 1131 b 436 1122 405 1131 420 1128 b 481 1104 452 1116 467 1110 b 535 1084 498 1097 516 1090 b 593 1075 554 1078 574 1075 b 646 1088 613 1075 631 1079 b 684 1121 661 1096 673 1107 b 709 1167 695 1135 703 1150 b 722 1219 715 1184 719 1202 l 656 1219 b 633 1176 651 1203 643 1188 b 589 1158 622 1164 607 1158 b 551 1166 574 1158 561 1161 b 514 1182 540 1171 528 1176 b 458 1203 495 1189 477 1197 b 397 1214 439 1210 419 1214 b 342 1201 376 1214 357 1210 b 301 1169 326 1193 312 1182 b 273 1122 289 1155 280 1140 b 258 1069 266 1105 261 1087 z "},"ũ":{"ha":772,"x_min":0,"x_max":0,"o":"m 669 154 l 669 650 l 561 650 l 561 333 b 549 232 561 296 557 263 b 513 153 541 201 529 175 b 451 101 497 131 476 113 b 360 83 425 89 395 83 b 247 131 309 83 271 99 b 211 260 223 162 211 205 l 211 650 l 103 650 l 103 249 b 117 141 103 210 108 174 b 163 57 127 108 142 80 b 240 3 183 34 209 16 b 350 -17 271 -10 307 -17 b 425 -6 377 -17 402 -13 b 488 22 448 1 469 10 b 535 61 506 33 522 46 b 567 107 549 76 559 91 l 569 107 b 571 53 569 88 570 70 b 572 0 572 35 572 18 l 675 0 b 672 71 675 21 674 45 b 669 154 670 97 669 125 z m 158 800 l 225 800 b 247 842 230 816 237 830 b 289 861 257 855 271 861 b 336 852 305 861 320 858 b 381 835 352 846 367 840 b 435 815 398 827 416 821 b 493 806 454 809 474 806 b 546 818 513 806 531 810 b 584 851 561 826 573 838 b 609 898 595 865 603 881 b 622 950 615 915 619 932 l 556 950 b 533 907 551 933 543 919 b 489 889 522 895 507 889 b 451 897 474 889 461 891 b 414 913 440 902 428 907 b 358 934 395 920 377 927 b 297 944 339 941 319 944 b 242 932 277 944 259 940 b 201 899 226 924 212 913 b 173 853 189 886 180 870 b 158 800 166 835 161 818 z "},"Ū":{"ha":978,"x_min":0,"x_max":0,"o":"m 860 375 l 860 983 l 743 983 l 743 392 b 731 276 743 352 739 313 b 689 178 722 239 708 206 b 611 109 669 149 644 126 b 489 83 579 92 538 83 b 367 109 440 83 399 92 b 289 178 334 126 308 149 b 247 276 269 206 256 239 b 235 392 239 313 235 352 l 235 983 l 118 983 l 118 375 b 138 222 118 321 125 270 b 202 95 152 174 173 132 b 317 8 231 59 269 29 b 489 -25 364 -14 421 -25 b 661 8 556 -25 614 -14 b 776 95 708 29 747 59 b 840 222 805 132 826 174 b 860 375 853 270 860 321 z m 682 1103 l 682 1186 l 299 1186 l 299 1103 z "},"ū":{"ha":772,"x_min":0,"x_max":0,"o":"m 669 154 l 669 650 l 561 650 l 561 333 b 549 232 561 296 557 263 b 513 153 541 201 529 175 b 451 101 497 131 476 113 b 360 83 425 89 395 83 b 247 131 309 83 271 99 b 211 260 223 162 211 205 l 211 650 l 103 650 l 103 249 b 117 141 103 210 108 174 b 163 57 127 108 142 80 b 240 3 183 34 209 16 b 350 -17 271 -10 307 -17 b 425 -6 377 -17 402 -13 b 488 22 448 1 469 10 b 535 61 506 33 522 46 b 567 107 549 76 559 91 l 569 107 b 571 53 569 88 570 70 b 572 0 572 35 572 18 l 675 0 b 672 71 675 21 674 45 b 669 154 670 97 669 125 z m 582 833 l 582 917 l 199 917 l 199 833 z "},"Ŭ":{"ha":978,"x_min":0,"x_max":0,"o":"m 860 375 l 860 983 l 743 983 l 743 392 b 731 276 743 352 739 313 b 689 178 722 239 708 206 b 611 109 669 149 644 126 b 489 83 579 92 538 83 b 367 109 440 83 399 92 b 289 178 334 126 308 149 b 247 276 269 206 256 239 b 235 392 239 313 235 352 l 235 983 l 118 983 l 118 375 b 138 222 118 321 125 270 b 202 95 152 174 173 132 b 317 8 231 59 269 29 b 489 -25 364 -14 421 -25 b 661 8 556 -25 614 -14 b 776 95 708 29 747 59 b 840 222 805 132 826 174 b 860 375 853 270 860 321 z m 346 1244 l 278 1244 b 342 1107 281 1183 303 1138 b 489 1061 382 1076 431 1061 b 635 1107 548 1061 597 1076 b 703 1244 674 1138 696 1183 l 636 1244 b 586 1159 626 1203 609 1174 b 489 1136 563 1144 531 1136 b 397 1163 454 1136 423 1145 b 346 1244 370 1181 353 1208 z "},"ŭ":{"ha":772,"x_min":0,"x_max":0,"o":"m 669 154 l 669 650 l 561 650 l 561 333 b 549 232 561 296 557 263 b 513 153 541 201 529 175 b 451 101 497 131 476 113 b 360 83 425 89 395 83 b 247 131 309 83 271 99 b 211 260 223 162 211 205 l 211 650 l 103 650 l 103 249 b 117 141 103 210 108 174 b 163 57 127 108 142 80 b 240 3 183 34 209 16 b 350 -17 271 -10 307 -17 b 425 -6 377 -17 402 -13 b 488 22 448 1 469 10 b 535 61 506 33 522 46 b 567 107 549 76 559 91 l 569 107 b 571 53 569 88 570 70 b 572 0 572 35 572 18 l 675 0 b 672 71 675 21 674 45 b 669 154 670 97 669 125 z m 246 975 l 178 975 b 242 838 181 914 203 868 b 389 792 282 807 331 792 b 535 838 448 792 497 807 b 603 975 574 868 596 914 l 536 975 b 485 890 526 934 509 906 b 389 867 462 875 430 867 b 297 894 354 867 323 876 b 246 975 270 912 253 939 z "},"Ů":{"ha":978,"x_min":0,"x_max":0,"o":"m 860 375 l 860 983 l 743 983 l 743 392 b 731 276 743 352 739 313 b 689 178 722 239 708 206 b 611 109 669 149 644 126 b 489 83 579 92 538 83 b 367 109 440 83 399 92 b 289 178 334 126 308 149 b 247 276 269 206 256 239 b 235 392 239 313 235 352 l 235 983 l 118 983 l 118 375 b 138 222 118 321 125 270 b 202 95 152 174 173 132 b 317 8 231 59 269 29 b 489 -25 364 -14 421 -25 b 661 8 556 -25 614 -14 b 776 95 708 29 747 59 b 840 222 805 132 826 174 b 860 375 853 270 860 321 z m 353 1151 b 392 1053 353 1113 366 1080 b 490 1014 418 1027 450 1014 b 589 1053 530 1014 563 1027 b 628 1151 615 1080 628 1113 b 590 1248 628 1188 615 1221 b 490 1289 565 1275 532 1289 b 435 1278 471 1289 453 1285 b 392 1248 418 1270 404 1260 b 363 1204 380 1235 370 1221 b 353 1151 356 1188 353 1170 z m 411 1151 b 435 1208 411 1174 419 1192 b 490 1231 452 1223 470 1231 b 545 1208 511 1231 529 1223 b 569 1151 561 1192 569 1174 b 545 1094 569 1128 561 1109 b 490 1072 529 1080 511 1072 b 435 1094 470 1072 452 1080 b 411 1151 419 1109 411 1128 z "},"ů":{"ha":772,"x_min":0,"x_max":0,"o":"m 669 154 l 669 650 l 561 650 l 561 333 b 549 232 561 296 557 263 b 513 153 541 201 529 175 b 451 101 497 131 476 113 b 360 83 425 89 395 83 b 247 131 309 83 271 99 b 211 260 223 162 211 205 l 211 650 l 103 650 l 103 249 b 117 141 103 210 108 174 b 163 57 127 108 142 80 b 240 3 183 34 209 16 b 350 -17 271 -10 307 -17 b 425 -6 377 -17 402 -13 b 488 22 448 1 469 10 b 535 61 506 33 522 46 b 567 107 549 76 559 91 l 569 107 b 571 53 569 88 570 70 b 572 0 572 35 572 18 l 675 0 b 672 71 675 21 674 45 b 669 154 670 97 669 125 z m 253 896 b 292 799 253 858 266 825 b 390 758 318 772 350 758 b 489 799 430 758 463 772 b 528 896 515 825 528 858 b 490 992 528 933 515 965 b 390 1033 464 1020 431 1033 b 335 1022 371 1033 353 1030 b 292 992 318 1015 304 1005 b 263 949 280 980 270 965 b 253 896 256 932 253 914 z m 311 896 b 335 952 311 918 319 937 b 390 975 352 967 370 975 b 445 952 411 975 429 967 b 469 896 461 937 469 918 b 445 839 469 873 461 854 b 390 817 429 824 411 817 b 335 839 370 817 352 824 b 311 896 319 854 311 873 z "},"Ű":{"ha":978,"x_min":0,"x_max":0,"o":"m 860 375 l 860 983 l 743 983 l 743 392 b 731 276 743 352 739 313 b 689 178 722 239 708 206 b 611 109 669 149 644 126 b 489 83 579 92 538 83 b 367 109 440 83 399 92 b 289 178 334 126 308 149 b 247 276 269 206 256 239 b 235 392 239 313 235 352 l 235 983 l 118 983 l 118 375 b 138 222 118 321 125 270 b 202 95 152 174 173 132 b 317 8 231 59 269 29 b 489 -25 364 -14 421 -25 b 661 8 556 -25 614 -14 b 776 95 708 29 747 59 b 840 222 805 132 826 174 b 860 375 853 270 860 321 z m 413 1053 l 592 1253 l 458 1253 l 319 1053 z m 631 1053 l 829 1253 l 688 1253 l 536 1053 z "},"ű":{"ha":772,"x_min":0,"x_max":0,"o":"m 669 154 l 669 650 l 561 650 l 561 333 b 549 232 561 296 557 263 b 513 153 541 201 529 175 b 451 101 497 131 476 113 b 360 83 425 89 395 83 b 247 131 309 83 271 99 b 211 260 223 162 211 205 l 211 650 l 103 650 l 103 249 b 117 141 103 210 108 174 b 163 57 127 108 142 80 b 240 3 183 34 209 16 b 350 -17 271 -10 307 -17 b 425 -6 377 -17 402 -13 b 488 22 448 1 469 10 b 535 61 506 33 522 46 b 567 107 549 76 559 91 l 569 107 b 571 53 569 88 570 70 b 572 0 572 35 572 18 l 675 0 b 672 71 675 21 674 45 b 669 154 670 97 669 125 z m 315 783 l 494 983 l 361 983 l 222 783 z m 533 783 l 732 983 l 590 983 l 439 783 z "},"Ų":{"ha":978,"x_min":0,"x_max":0,"o":"m 635 -253 l 606 -196 b 574 -216 597 -204 587 -211 b 536 -224 561 -221 548 -224 b 486 -206 514 -225 497 -219 b 469 -160 475 -194 469 -178 b 494 -83 469 -133 478 -107 b 546 -22 510 -59 527 -39 b 690 23 602 -16 650 -1 b 788 112 730 47 763 76 b 842 233 813 147 831 188 b 860 375 854 278 860 325 l 860 983 l 743 983 l 743 392 b 731 276 743 352 739 313 b 689 178 722 239 708 206 b 610 109 669 149 643 126 b 489 83 578 92 537 83 b 367 109 440 83 399 92 b 289 178 334 126 308 149 b 247 276 269 206 256 239 b 235 392 239 313 235 352 l 235 983 l 118 983 l 118 375 b 137 225 118 322 124 272 b 197 99 149 178 169 136 b 306 11 225 63 261 33 b 469 -25 351 -11 406 -23 b 406 -98 445 -45 424 -70 b 378 -189 387 -126 378 -156 b 388 -237 378 -206 381 -222 b 417 -274 395 -251 405 -264 b 458 -299 429 -285 443 -293 b 507 -307 474 -304 490 -307 b 576 -292 531 -307 554 -302 b 635 -253 597 -283 617 -269 z "},"ų":{"ha":772,"x_min":0,"x_max":0,"o":"m 703 -253 l 674 -196 b 642 -216 665 -204 655 -211 b 604 -224 629 -221 616 -224 b 554 -206 582 -225 565 -219 b 538 -160 543 -194 538 -178 b 548 -110 538 -143 541 -127 b 574 -65 555 -94 564 -79 b 609 -28 585 -51 597 -39 b 643 0 622 -17 633 -7 l 675 0 b 672 71 675 21 674 45 b 669 154 670 97 669 125 l 669 650 l 561 650 l 561 333 b 549 232 561 296 557 263 b 513 153 541 201 529 175 b 451 101 497 131 476 113 b 360 83 425 89 395 83 b 247 130 309 83 271 99 b 211 260 223 161 211 204 l 211 650 l 103 650 l 103 249 b 117 141 103 210 108 174 b 163 57 127 108 142 80 b 240 3 183 34 209 16 b 350 -17 271 -10 307 -17 b 425 -6 377 -17 402 -13 b 488 22 448 1 469 10 b 535 61 506 33 522 46 b 567 107 549 76 559 91 l 569 107 b 571 53 569 88 570 70 b 572 0 572 35 572 18 b 528 -34 557 -9 543 -21 b 488 -79 513 -47 500 -62 b 458 -132 475 -96 466 -113 b 446 -189 450 -150 446 -169 b 456 -237 446 -206 449 -222 b 485 -274 463 -251 473 -264 b 526 -299 497 -285 511 -293 b 575 -307 542 -304 558 -307 b 644 -292 599 -307 622 -302 b 703 -253 666 -283 685 -269 z "},"Ŵ":{"ha":1338,"x_min":0,"x_max":0,"o":"m 8 983 l 296 0 l 424 0 l 668 833 l 671 833 l 914 0 l 1040 0 l 1329 983 l 1207 983 l 979 167 l 976 167 l 736 983 l 606 983 l 364 167 l 361 167 l 138 983 z m 606 1253 l 451 1053 l 557 1053 l 665 1194 l 775 1053 l 888 1053 l 732 1253 z "},"ŵ":{"ha":1029,"x_min":0,"x_max":0,"o":"m 800 0 l 1010 650 l 893 650 l 746 150 l 743 150 l 572 650 l 458 650 l 290 150 l 288 150 l 139 650 l 19 650 l 231 0 l 342 0 l 506 500 l 508 500 l 693 0 z m 449 983 l 294 783 l 400 783 l 508 925 l 618 783 l 731 783 l 575 983 z "},"Ŷ":{"ha":825,"x_min":0,"x_max":0,"o":"m 354 424 l 354 0 l 471 0 l 471 424 l 838 983 l 697 983 l 413 539 l 136 983 l -12 983 z m 349 1253 l 194 1053 l 300 1053 l 408 1194 l 518 1053 l 631 1053 l 475 1253 z "},"ŷ":{"ha":669,"x_min":0,"x_max":0,"o":"m 342 -149 l 656 650 l 538 650 l 344 140 l 342 140 l 140 650 l 14 650 l 283 -4 l 239 -126 b 196 -204 227 -159 213 -185 b 118 -233 179 -224 153 -233 b 76 -231 102 -233 88 -233 b 42 -222 64 -230 53 -227 l 28 -317 b 76 -331 43 -324 59 -329 b 125 -333 93 -332 109 -333 b 208 -320 157 -333 185 -329 b 266 -283 230 -311 250 -299 b 308 -224 282 -266 296 -247 b 342 -149 319 -202 331 -176 z m 282 983 l 128 783 l 233 783 l 342 925 l 451 783 l 564 783 l 408 983 z "},"Ÿ":{"ha":825,"x_min":0,"x_max":0,"o":"m 354 424 l 354 0 l 471 0 l 471 424 l 838 983 l 697 983 l 413 539 l 136 983 l -12 983 z m 275 1219 b 222 1197 254 1219 236 1212 b 200 1144 207 1182 200 1165 b 222 1091 200 1123 207 1105 b 275 1069 236 1077 254 1069 b 328 1091 296 1069 314 1077 b 350 1144 343 1105 350 1123 b 328 1197 350 1165 343 1182 b 275 1219 314 1212 296 1219 z m 550 1219 b 497 1197 529 1219 511 1212 b 475 1144 482 1182 475 1165 b 497 1091 475 1123 482 1105 b 550 1069 511 1077 529 1069 b 603 1091 571 1069 589 1077 b 625 1144 618 1105 625 1123 b 603 1197 625 1165 618 1182 b 550 1219 589 1212 571 1219 z "},"Ź":{"ha":797,"x_min":0,"x_max":0,"o":"m 40 104 l 40 0 l 757 0 l 757 108 l 182 108 l 750 883 l 750 983 l 49 983 l 49 875 l 608 875 z m 468 1253 l 324 1053 l 422 1053 l 621 1253 z "},"ź":{"ha":617,"x_min":0,"x_max":0,"o":"m 42 85 l 42 0 l 575 0 l 575 92 l 183 92 l 565 567 l 565 650 l 58 650 l 58 558 l 424 558 z m 350 983 l 206 783 l 304 783 l 503 983 z "},"Ż":{"ha":797,"x_min":0,"x_max":0,"o":"m 40 104 l 40 0 l 757 0 l 757 108 l 182 108 l 750 883 l 750 983 l 49 983 l 49 875 l 608 875 z m 414 1219 b 360 1197 393 1219 375 1212 b 339 1144 346 1182 339 1165 b 360 1091 339 1123 346 1105 b 414 1069 375 1077 393 1069 b 467 1091 435 1069 453 1077 b 489 1144 482 1105 489 1123 b 467 1197 489 1165 482 1182 b 414 1219 453 1212 435 1219 z "},"ż":{"ha":617,"x_min":0,"x_max":0,"o":"m 42 85 l 42 0 l 575 0 l 575 92 l 183 92 l 565 567 l 565 650 l 58 650 l 58 558 l 424 558 z m 325 950 b 272 928 304 950 286 943 b 250 875 257 913 250 895 b 272 822 250 854 257 836 b 325 800 286 807 304 800 b 378 822 346 800 364 807 b 400 875 393 836 400 854 b 378 928 400 895 393 913 b 325 950 364 943 346 950 z "},"Ž":{"ha":797,"x_min":0,"x_max":0,"o":"m 40 104 l 40 0 l 757 0 l 757 108 l 182 108 l 750 883 l 750 983 l 49 983 l 49 875 l 608 875 z m 463 1053 l 615 1253 l 510 1253 l 403 1111 l 294 1253 l 182 1253 l 336 1053 z "},"ž":{"ha":617,"x_min":0,"x_max":0,"o":"m 42 85 l 42 0 l 575 0 l 575 92 l 183 92 l 565 567 l 565 650 l 58 650 l 58 558 l 424 558 z m 372 806 l 525 1006 l 419 1006 l 313 864 l 204 1006 l 92 1006 l 246 806 z "},"ƒ":{"ha":772,"x_min":0,"x_max":0,"o":"m 599 499 l 599 590 l 440 590 l 469 743 b 482 797 473 761 477 779 b 502 848 487 816 493 833 b 537 885 511 863 522 876 b 592 900 551 895 569 900 b 633 893 606 900 619 898 b 671 875 646 888 659 882 l 722 961 b 583 1000 679 987 632 1000 b 484 978 544 1000 510 993 b 419 922 458 964 436 945 b 379 840 402 898 388 871 b 356 743 370 809 362 776 l 326 590 l 158 590 l 158 499 l 308 499 l 225 49 b 215 -3 222 32 219 15 b 196 -51 210 -20 204 -36 b 163 -86 188 -65 176 -77 b 108 -100 149 -95 131 -100 b 70 -95 95 -100 83 -98 b 36 -79 58 -92 46 -87 l -14 -167 b 43 -192 4 -178 23 -186 b 106 -200 63 -197 84 -200 b 200 -183 143 -200 174 -194 b 265 -137 226 -172 248 -157 b 308 -68 283 -118 297 -95 b 333 21 318 -41 327 -12 l 424 499 z "},"ǀ":{"ha":308,"x_min":0,"x_max":0,"o":"m 200 1042 l 108 1042 l 108 -347 l 200 -347 z "},"ǁ":{"ha":617,"x_min":0,"x_max":0,"o":"m 200 1042 l 108 1042 l 108 -347 l 200 -347 z m 508 1042 l 417 1042 l 417 -347 l 508 -347 z "},"ǃ":{"ha":386,"x_min":0,"x_max":0,"o":"m 251 275 l 251 983 l 135 983 l 135 275 z m 193 158 b 134 134 170 158 150 150 b 110 75 118 118 110 98 b 135 16 110 52 118 32 b 193 -8 153 0 172 -8 b 251 16 214 -8 234 0 b 276 75 268 32 276 52 b 252 134 276 98 268 118 b 193 158 236 150 216 158 z "},"Ǆ":{"ha":1826,"x_min":0,"x_max":0,"o":"m 104 983 l 104 0 l 482 0 b 585 11 514 0 549 4 b 692 47 621 19 657 30 b 795 110 728 63 762 84 b 882 203 828 136 857 167 b 942 330 907 240 927 282 b 964 492 956 378 964 431 b 942 653 964 552 956 606 b 882 780 927 701 907 743 b 795 874 857 816 828 848 b 692 937 762 900 728 921 b 585 972 657 953 621 965 b 482 983 549 980 514 983 z m 221 108 l 221 875 l 443 875 b 600 853 500 875 552 868 b 725 784 648 838 690 815 b 808 665 760 753 788 713 b 839 492 829 617 839 559 b 808 318 839 424 829 366 b 725 199 788 270 760 230 b 600 131 690 168 648 145 b 443 108 552 116 500 108 z m 1069 104 l 1069 0 l 1786 0 l 1786 108 l 1211 108 l 1779 883 l 1779 983 l 1078 983 l 1078 875 l 1638 875 z m 1492 1053 l 1644 1253 l 1539 1253 l 1432 1111 l 1324 1253 l 1211 1253 l 1365 1053 z "},"ǅ":{"ha":1646,"x_min":0,"x_max":0,"o":"m 104 983 l 104 0 l 482 0 b 585 11 514 0 549 4 b 692 47 621 19 657 30 b 795 110 728 63 762 84 b 882 203 828 136 857 167 b 942 330 907 240 927 282 b 964 492 956 378 964 431 b 942 653 964 552 956 606 b 882 780 927 701 907 743 b 795 874 857 816 828 848 b 692 937 762 900 728 921 b 585 972 657 953 621 965 b 482 983 549 980 514 983 z m 221 108 l 221 875 l 443 875 b 600 853 500 875 552 868 b 725 784 648 838 690 815 b 808 665 760 753 788 713 b 839 492 829 617 839 559 b 808 318 839 424 829 366 b 725 199 788 270 760 230 b 600 131 690 168 648 145 b 443 108 552 116 500 108 z m 1071 85 l 1071 0 l 1604 0 l 1604 92 l 1213 92 l 1594 567 l 1594 650 l 1088 650 l 1088 558 l 1453 558 z m 1401 719 l 1554 919 l 1449 919 l 1342 778 l 1233 919 l 1121 919 l 1275 719 z "},"ǆ":{"ha":1465,"x_min":0,"x_max":0,"o":"m 643 115 l 643 0 l 751 0 l 751 1050 l 643 1050 l 643 556 l 640 556 b 537 638 611 591 576 618 b 407 667 497 657 454 667 b 267 641 356 667 309 658 b 160 569 225 624 189 600 b 90 461 130 539 107 503 b 65 325 74 419 65 374 b 90 189 65 276 74 231 b 159 81 107 147 130 111 b 263 9 188 50 223 26 b 390 -17 302 -8 345 -17 b 544 22 449 -17 500 -4 b 640 115 588 47 620 78 z m 643 325 b 627 230 643 291 638 259 b 581 153 616 201 601 175 b 508 102 560 132 536 115 b 413 83 479 90 448 83 b 317 102 377 83 346 90 b 244 153 289 115 265 132 b 198 230 224 175 209 201 b 182 325 187 259 182 291 b 198 420 182 359 187 391 b 244 497 209 449 224 475 b 317 548 265 518 289 535 b 413 567 346 560 377 567 b 508 548 448 567 479 560 b 581 497 536 535 560 518 b 627 420 601 475 616 449 b 643 325 638 391 643 359 z m 890 85 l 890 0 l 1424 0 l 1424 92 l 1032 92 l 1414 567 l 1414 650 l 907 650 l 907 558 l 1272 558 z m 1221 719 l 1374 919 l 1268 919 l 1161 778 l 1053 919 l 940 919 l 1094 719 z "},"Ǉ":{"ha":1364,"x_min":0,"x_max":0,"o":"m 122 983 l 122 0 l 689 0 l 689 108 l 239 108 l 239 983 z m 1242 254 l 1242 983 l 1125 983 l 1125 294 b 1118 216 1125 268 1123 241 b 1094 149 1113 191 1105 168 b 1044 101 1082 129 1066 113 b 963 83 1023 89 996 83 b 863 117 921 83 888 95 b 815 210 839 140 823 171 l 699 186 b 788 28 712 116 741 63 b 961 -25 834 -7 892 -25 b 1094 0 1014 -25 1058 -17 b 1180 65 1129 17 1158 38 b 1227 155 1202 92 1217 122 b 1242 254 1237 188 1242 221 z "},"ǈ":{"ha":1028,"x_min":0,"x_max":0,"o":"m 122 983 l 122 0 l 689 0 l 689 108 l 239 108 l 239 983 z m 915 -146 l 915 650 l 807 650 l 807 -96 b 803 -149 807 -114 806 -132 b 790 -192 801 -165 797 -180 b 762 -222 784 -205 774 -215 b 713 -233 749 -230 733 -233 b 660 -225 695 -233 677 -231 l 647 -319 b 684 -331 659 -325 672 -329 b 722 -333 697 -332 709 -333 b 820 -313 762 -333 795 -327 b 879 -265 846 -300 865 -284 b 908 -203 893 -246 903 -225 b 915 -146 913 -182 915 -162 z m 782 904 b 804 847 782 881 789 862 b 861 825 819 832 838 825 b 918 847 884 825 903 832 b 940 904 933 862 940 881 b 917 960 940 925 933 944 b 861 983 902 975 883 983 b 805 960 839 983 820 975 b 782 904 790 944 782 925 z "},"ǉ":{"ha":667,"x_min":0,"x_max":0,"o":"m 113 1050 l 113 0 l 221 0 l 221 1050 z m 554 -146 l 554 650 l 446 650 l 446 -96 b 442 -149 446 -114 445 -132 b 429 -192 440 -165 436 -180 b 401 -222 423 -205 413 -215 b 351 -233 388 -230 372 -233 b 299 -225 334 -233 316 -231 l 286 -319 b 323 -331 298 -325 310 -329 b 361 -333 335 -332 348 -333 b 459 -313 401 -333 434 -327 b 518 -265 484 -300 504 -284 b 547 -203 532 -246 541 -225 b 554 -146 552 -182 554 -162 z m 421 904 b 443 847 421 881 428 862 b 500 825 458 832 477 825 b 557 847 523 825 542 832 b 579 904 572 862 579 881 b 556 960 579 925 572 944 b 500 983 541 975 522 983 b 444 960 478 983 459 975 b 421 904 428 944 421 925 z "},"Ǌ":{"ha":1750,"x_min":0,"x_max":0,"o":"m 122 983 l 122 0 l 239 0 l 239 817 l 242 817 l 811 0 l 958 0 l 958 983 l 842 983 l 842 167 l 839 167 l 269 983 z m 1628 254 l 1628 983 l 1511 983 l 1511 294 b 1504 216 1511 268 1509 241 b 1480 149 1500 191 1491 168 b 1431 101 1468 129 1452 113 b 1349 83 1409 89 1382 83 b 1249 117 1307 83 1274 95 b 1201 210 1225 140 1209 171 l 1085 186 b 1174 28 1098 116 1127 63 b 1347 -25 1220 -7 1278 -25 b 1480 0 1400 -25 1444 -17 b 1566 65 1515 17 1544 38 b 1613 155 1588 92 1603 122 b 1628 254 1623 188 1628 221 z "}}}
